G04 #@! TF.FileFunction,Legend,Top*
%FSLAX46Y46*%
G04 Gerber Fmt 4.6, Leading zero omitted, Abs format (unit mm)*
G04 Created by KiCad (PCBNEW (2015-01-02 BZR 5348)-product) date 4/1/2015 10:56:25 PM*
%MOMM*%
G01*
G04 APERTURE LIST*
%ADD10C,0.100000*%
%ADD11C,0.150000*%
%ADD12C,0.109220*%
G04 APERTURE END LIST*
D10*
D11*
X115000000Y-108500000D02*
X121800000Y-108500000D01*
X121800000Y-108500000D02*
X121800000Y-96500000D01*
X121800000Y-96500000D02*
X115000000Y-96500000D01*
X103000000Y-108500000D02*
X103000000Y-96500000D01*
X103000000Y-96500000D02*
X115000000Y-96500000D01*
X115000000Y-96500000D02*
X115000000Y-108500000D01*
X115000000Y-108500000D02*
X103000000Y-108500000D01*
X132950000Y-104490000D02*
X132950000Y-106040000D01*
X134500000Y-104490000D02*
X132950000Y-104490000D01*
X134500000Y-104490000D02*
X132950000Y-104490000D01*
X135770000Y-104770000D02*
X135770000Y-107310000D01*
X135770000Y-107310000D02*
X133230000Y-107310000D01*
X133230000Y-107310000D02*
X133230000Y-109850000D01*
X133230000Y-109850000D02*
X138310000Y-109850000D01*
X138310000Y-109850000D02*
X138310000Y-104770000D01*
X138310000Y-104770000D02*
X135770000Y-104770000D01*
X132950000Y-99410000D02*
X132950000Y-100960000D01*
X134500000Y-99410000D02*
X132950000Y-99410000D01*
X134500000Y-99410000D02*
X132950000Y-99410000D01*
X135770000Y-99690000D02*
X135770000Y-102230000D01*
X135770000Y-102230000D02*
X133230000Y-102230000D01*
X133230000Y-102230000D02*
X133230000Y-104770000D01*
X133230000Y-104770000D02*
X138310000Y-104770000D01*
X138310000Y-104770000D02*
X138310000Y-99690000D01*
X138310000Y-99690000D02*
X135770000Y-99690000D01*
X132950000Y-94330000D02*
X132950000Y-95880000D01*
X134500000Y-94330000D02*
X132950000Y-94330000D01*
X134500000Y-94330000D02*
X132950000Y-94330000D01*
X135770000Y-94610000D02*
X135770000Y-97150000D01*
X135770000Y-97150000D02*
X133230000Y-97150000D01*
X133230000Y-97150000D02*
X133230000Y-99690000D01*
X133230000Y-99690000D02*
X138310000Y-99690000D01*
X138310000Y-99690000D02*
X138310000Y-94610000D01*
X138310000Y-94610000D02*
X135770000Y-94610000D01*
X131600000Y-100650000D02*
X131600000Y-104350000D01*
X124900000Y-100650000D02*
X131600000Y-100650000D01*
X124900000Y-104350000D02*
X124900000Y-100650000D01*
X124900000Y-104350000D02*
X131600000Y-104350000D01*
X125270000Y-110520000D02*
X125270000Y-107980000D01*
X122450000Y-107700000D02*
X124000000Y-107700000D01*
X122450000Y-107700000D02*
X122450000Y-110800000D01*
X122450000Y-110800000D02*
X124000000Y-110800000D01*
X125270000Y-97020000D02*
X125270000Y-94480000D01*
X122450000Y-94200000D02*
X124000000Y-94200000D01*
X122450000Y-94200000D02*
X122450000Y-97300000D01*
X122450000Y-97300000D02*
X124000000Y-97300000D01*
D12*
X128476362Y-109321672D02*
X128476362Y-109607604D01*
X128476362Y-109464638D02*
X127975982Y-109464638D01*
X128047465Y-109512293D01*
X128095120Y-109559948D01*
X128118948Y-109607604D01*
X127975982Y-109011913D02*
X127975982Y-108964258D01*
X127999810Y-108916603D01*
X128023638Y-108892775D01*
X128071293Y-108868948D01*
X128166603Y-108845120D01*
X128285741Y-108845120D01*
X128381052Y-108868948D01*
X128428707Y-108892775D01*
X128452535Y-108916603D01*
X128476362Y-108964258D01*
X128476362Y-109011913D01*
X128452535Y-109059569D01*
X128428707Y-109083396D01*
X128381052Y-109107224D01*
X128285741Y-109131052D01*
X128166603Y-109131052D01*
X128071293Y-109107224D01*
X128023638Y-109083396D01*
X127999810Y-109059569D01*
X127975982Y-109011913D01*
X128142776Y-108416223D02*
X128476362Y-108416223D01*
X128142776Y-108630672D02*
X128404880Y-108630672D01*
X128452535Y-108606844D01*
X128476362Y-108559189D01*
X128476362Y-108487706D01*
X128452535Y-108440051D01*
X128428707Y-108416223D01*
X128476362Y-96071672D02*
X128476362Y-96357604D01*
X128476362Y-96214638D02*
X127975982Y-96214638D01*
X128047465Y-96262293D01*
X128095120Y-96309948D01*
X128118948Y-96357604D01*
X127975982Y-95761913D02*
X127975982Y-95714258D01*
X127999810Y-95666603D01*
X128023638Y-95642775D01*
X128071293Y-95618948D01*
X128166603Y-95595120D01*
X128285741Y-95595120D01*
X128381052Y-95618948D01*
X128428707Y-95642775D01*
X128452535Y-95666603D01*
X128476362Y-95714258D01*
X128476362Y-95761913D01*
X128452535Y-95809569D01*
X128428707Y-95833396D01*
X128381052Y-95857224D01*
X128285741Y-95881052D01*
X128166603Y-95881052D01*
X128071293Y-95857224D01*
X128023638Y-95833396D01*
X127999810Y-95809569D01*
X127975982Y-95761913D01*
X128142776Y-95166223D02*
X128476362Y-95166223D01*
X128142776Y-95380672D02*
X128404880Y-95380672D01*
X128452535Y-95356844D01*
X128476362Y-95309189D01*
X128476362Y-95237706D01*
X128452535Y-95190051D01*
X128428707Y-95166223D01*
D11*
X138952381Y-107490476D02*
X138952381Y-107966667D01*
X139428571Y-108014286D01*
X139380952Y-107966667D01*
X139333333Y-107871429D01*
X139333333Y-107633333D01*
X139380952Y-107538095D01*
X139428571Y-107490476D01*
X139523810Y-107442857D01*
X139761905Y-107442857D01*
X139857143Y-107490476D01*
X139904762Y-107538095D01*
X139952381Y-107633333D01*
X139952381Y-107871429D01*
X139904762Y-107966667D01*
X139857143Y-108014286D01*
X138952381Y-107157143D02*
X139952381Y-106823810D01*
X138952381Y-106490476D01*
X138952381Y-103776190D02*
X138952381Y-103157142D01*
X139333333Y-103490476D01*
X139333333Y-103347618D01*
X139380952Y-103252380D01*
X139428571Y-103204761D01*
X139523810Y-103157142D01*
X139761905Y-103157142D01*
X139857143Y-103204761D01*
X139904762Y-103252380D01*
X139952381Y-103347618D01*
X139952381Y-103633333D01*
X139904762Y-103728571D01*
X139857143Y-103776190D01*
X139857143Y-102728571D02*
X139904762Y-102680952D01*
X139952381Y-102728571D01*
X139904762Y-102776190D01*
X139857143Y-102728571D01*
X139952381Y-102728571D01*
X138952381Y-102347619D02*
X138952381Y-101728571D01*
X139333333Y-102061905D01*
X139333333Y-101919047D01*
X139380952Y-101823809D01*
X139428571Y-101776190D01*
X139523810Y-101728571D01*
X139761905Y-101728571D01*
X139857143Y-101776190D01*
X139904762Y-101823809D01*
X139952381Y-101919047D01*
X139952381Y-102204762D01*
X139904762Y-102300000D01*
X139857143Y-102347619D01*
X138952381Y-101442857D02*
X139952381Y-101109524D01*
X138952381Y-100776190D01*
X139000000Y-97861904D02*
X138952381Y-97957142D01*
X138952381Y-98099999D01*
X139000000Y-98242857D01*
X139095238Y-98338095D01*
X139190476Y-98385714D01*
X139380952Y-98433333D01*
X139523810Y-98433333D01*
X139714286Y-98385714D01*
X139809524Y-98338095D01*
X139904762Y-98242857D01*
X139952381Y-98099999D01*
X139952381Y-98004761D01*
X139904762Y-97861904D01*
X139857143Y-97814285D01*
X139523810Y-97814285D01*
X139523810Y-98004761D01*
X139952381Y-97385714D02*
X138952381Y-97385714D01*
X139952381Y-96814285D01*
X138952381Y-96814285D01*
X139952381Y-96338095D02*
X138952381Y-96338095D01*
X138952381Y-96100000D01*
X139000000Y-95957142D01*
X139095238Y-95861904D01*
X139190476Y-95814285D01*
X139380952Y-95766666D01*
X139523810Y-95766666D01*
X139714286Y-95814285D01*
X139809524Y-95861904D01*
X139904762Y-95957142D01*
X139952381Y-96100000D01*
X139952381Y-96338095D01*
X130052381Y-102961905D02*
X130861905Y-102961905D01*
X130957143Y-102914286D01*
X131004762Y-102866667D01*
X131052381Y-102771429D01*
X131052381Y-102580952D01*
X131004762Y-102485714D01*
X130957143Y-102438095D01*
X130861905Y-102390476D01*
X130052381Y-102390476D01*
X131052381Y-101390476D02*
X131052381Y-101961905D01*
X131052381Y-101676191D02*
X130052381Y-101676191D01*
X130195238Y-101771429D01*
X130290476Y-101866667D01*
X130338095Y-101961905D01*
X120809524Y-110202381D02*
X120333333Y-110202381D01*
X120285714Y-110678571D01*
X120333333Y-110630952D01*
X120428571Y-110583333D01*
X120666667Y-110583333D01*
X120761905Y-110630952D01*
X120809524Y-110678571D01*
X120857143Y-110773810D01*
X120857143Y-111011905D01*
X120809524Y-111107143D01*
X120761905Y-111154762D01*
X120666667Y-111202381D01*
X120428571Y-111202381D01*
X120333333Y-111154762D01*
X120285714Y-111107143D01*
X121142857Y-110202381D02*
X121476190Y-111202381D01*
X121809524Y-110202381D01*
X119988096Y-93750000D02*
X119892858Y-93702381D01*
X119750001Y-93702381D01*
X119607143Y-93750000D01*
X119511905Y-93845238D01*
X119464286Y-93940476D01*
X119416667Y-94130952D01*
X119416667Y-94273810D01*
X119464286Y-94464286D01*
X119511905Y-94559524D01*
X119607143Y-94654762D01*
X119750001Y-94702381D01*
X119845239Y-94702381D01*
X119988096Y-94654762D01*
X120035715Y-94607143D01*
X120035715Y-94273810D01*
X119845239Y-94273810D01*
X120464286Y-94702381D02*
X120464286Y-93702381D01*
X121035715Y-94702381D01*
X121035715Y-93702381D01*
X121511905Y-94702381D02*
X121511905Y-93702381D01*
X121750000Y-93702381D01*
X121892858Y-93750000D01*
X121988096Y-93845238D01*
X122035715Y-93940476D01*
X122083334Y-94130952D01*
X122083334Y-94273810D01*
X122035715Y-94464286D01*
X121988096Y-94559524D01*
X121892858Y-94654762D01*
X121750000Y-94702381D01*
X121511905Y-94702381D01*
M02*
