G04 #@! TF.FileFunction,Legend,Bot*
%FSLAX46Y46*%
G04 Gerber Fmt 4.6, Leading zero omitted, Abs format (unit mm)*
G04 Created by KiCad (PCBNEW (2015-01-02 BZR 5348)-product) date 4/1/2015 10:56:25 PM*
%MOMM*%
G01*
G04 APERTURE LIST*
%ADD10C,0.100000*%
%ADD11C,0.300000*%
%ADD12C,0.130000*%
%ADD13C,0.152400*%
%ADD14C,0.127000*%
G04 APERTURE END LIST*
D10*
D11*
X126028571Y-96142858D02*
X127028571Y-96142858D01*
X126028571Y-95500001D02*
X126814286Y-95500001D01*
X126957143Y-95571429D01*
X127028571Y-95714287D01*
X127028571Y-95928572D01*
X126957143Y-96071429D01*
X126885714Y-96142858D01*
X126957143Y-96785715D02*
X127028571Y-96928572D01*
X127028571Y-97214287D01*
X126957143Y-97357144D01*
X126814286Y-97428572D01*
X126742857Y-97428572D01*
X126600000Y-97357144D01*
X126528571Y-97214287D01*
X126528571Y-97000001D01*
X126457143Y-96857144D01*
X126314286Y-96785715D01*
X126242857Y-96785715D01*
X126100000Y-96857144D01*
X126028571Y-97000001D01*
X126028571Y-97214287D01*
X126100000Y-97357144D01*
X127028571Y-98071430D02*
X125528571Y-98071430D01*
X126100000Y-98071430D02*
X126028571Y-98214287D01*
X126028571Y-98500001D01*
X126100000Y-98642858D01*
X126171429Y-98714287D01*
X126314286Y-98785716D01*
X126742857Y-98785716D01*
X126885714Y-98714287D01*
X126957143Y-98642858D01*
X127028571Y-98500001D01*
X127028571Y-98214287D01*
X126957143Y-98071430D01*
X126457143Y-99428573D02*
X126457143Y-100571430D01*
X125528571Y-102000002D02*
X125528571Y-101285716D01*
X126242857Y-101214287D01*
X126171429Y-101285716D01*
X126100000Y-101428573D01*
X126100000Y-101785716D01*
X126171429Y-101928573D01*
X126242857Y-102000002D01*
X126385714Y-102071430D01*
X126742857Y-102071430D01*
X126885714Y-102000002D01*
X126957143Y-101928573D01*
X127028571Y-101785716D01*
X127028571Y-101428573D01*
X126957143Y-101285716D01*
X126885714Y-101214287D01*
X126028571Y-102571430D02*
X127028571Y-102928573D01*
X126028571Y-103285715D01*
X126457143Y-103857144D02*
X126457143Y-105000001D01*
X125528571Y-105571430D02*
X125528571Y-106500001D01*
X126100000Y-106000001D01*
X126100000Y-106214287D01*
X126171429Y-106357144D01*
X126242857Y-106428573D01*
X126385714Y-106500001D01*
X126742857Y-106500001D01*
X126885714Y-106428573D01*
X126957143Y-106357144D01*
X127028571Y-106214287D01*
X127028571Y-105785715D01*
X126957143Y-105642858D01*
X126885714Y-105571430D01*
X126028571Y-107000001D02*
X127028571Y-107357144D01*
X126028571Y-107714286D01*
X125528571Y-108142858D02*
X125528571Y-109071429D01*
X126100000Y-108571429D01*
X126100000Y-108785715D01*
X126171429Y-108928572D01*
X126242857Y-109000001D01*
X126385714Y-109071429D01*
X126742857Y-109071429D01*
X126885714Y-109000001D01*
X126957143Y-108928572D01*
X127028571Y-108785715D01*
X127028571Y-108357143D01*
X126957143Y-108214286D01*
X126885714Y-108142858D01*
X130000000Y-97964287D02*
X129928571Y-97892859D01*
X129714286Y-97750002D01*
X129571429Y-97678573D01*
X129357143Y-97607144D01*
X129000000Y-97535716D01*
X128714286Y-97535716D01*
X128357143Y-97607144D01*
X128142857Y-97678573D01*
X128000000Y-97750002D01*
X127785714Y-97892859D01*
X127714286Y-97964287D01*
X129357143Y-99178573D02*
X129428571Y-99035716D01*
X129428571Y-98750002D01*
X129357143Y-98607144D01*
X129285714Y-98535716D01*
X129142857Y-98464287D01*
X128714286Y-98464287D01*
X128571429Y-98535716D01*
X128500000Y-98607144D01*
X128428571Y-98750002D01*
X128428571Y-99035716D01*
X128500000Y-99178573D01*
X130000000Y-99678573D02*
X129928571Y-99750001D01*
X129714286Y-99892858D01*
X129571429Y-99964287D01*
X129357143Y-100035716D01*
X129000000Y-100107144D01*
X128714286Y-100107144D01*
X128357143Y-100035716D01*
X128142857Y-99964287D01*
X128000000Y-99892858D01*
X127785714Y-99750001D01*
X127714286Y-99678573D01*
X128071429Y-101892858D02*
X128000000Y-101964287D01*
X127928571Y-102107144D01*
X127928571Y-102464287D01*
X128000000Y-102607144D01*
X128071429Y-102678573D01*
X128214286Y-102750001D01*
X128357143Y-102750001D01*
X128571429Y-102678573D01*
X129428571Y-101821430D01*
X129428571Y-102750001D01*
X127928571Y-103678572D02*
X127928571Y-103821429D01*
X128000000Y-103964286D01*
X128071429Y-104035715D01*
X128214286Y-104107144D01*
X128500000Y-104178572D01*
X128857143Y-104178572D01*
X129142857Y-104107144D01*
X129285714Y-104035715D01*
X129357143Y-103964286D01*
X129428571Y-103821429D01*
X129428571Y-103678572D01*
X129357143Y-103535715D01*
X129285714Y-103464286D01*
X129142857Y-103392858D01*
X128857143Y-103321429D01*
X128500000Y-103321429D01*
X128214286Y-103392858D01*
X128071429Y-103464286D01*
X128000000Y-103535715D01*
X127928571Y-103678572D01*
X129428571Y-105607143D02*
X129428571Y-104750000D01*
X129428571Y-105178572D02*
X127928571Y-105178572D01*
X128142857Y-105035715D01*
X128285714Y-104892857D01*
X128357143Y-104750000D01*
X127928571Y-106964286D02*
X127928571Y-106250000D01*
X128642857Y-106178571D01*
X128571429Y-106250000D01*
X128500000Y-106392857D01*
X128500000Y-106750000D01*
X128571429Y-106892857D01*
X128642857Y-106964286D01*
X128785714Y-107035714D01*
X129142857Y-107035714D01*
X129285714Y-106964286D01*
X129357143Y-106892857D01*
X129428571Y-106750000D01*
X129428571Y-106392857D01*
X129357143Y-106250000D01*
X129285714Y-106178571D01*
X130828571Y-95000000D02*
X132328571Y-95000000D01*
X130900000Y-95000000D02*
X130828571Y-95142857D01*
X130828571Y-95428571D01*
X130900000Y-95571428D01*
X130971429Y-95642857D01*
X131114286Y-95714286D01*
X131542857Y-95714286D01*
X131685714Y-95642857D01*
X131757143Y-95571428D01*
X131828571Y-95428571D01*
X131828571Y-95142857D01*
X131757143Y-95000000D01*
X130828571Y-96357143D02*
X132328571Y-96357143D01*
X130900000Y-96357143D02*
X130828571Y-96500000D01*
X130828571Y-96785714D01*
X130900000Y-96928571D01*
X130971429Y-97000000D01*
X131114286Y-97071429D01*
X131542857Y-97071429D01*
X131685714Y-97000000D01*
X131757143Y-96928571D01*
X131828571Y-96785714D01*
X131828571Y-96500000D01*
X131757143Y-96357143D01*
X131114286Y-98642857D02*
X131042857Y-98571429D01*
X130971429Y-98428572D01*
X130971429Y-98285714D01*
X131042857Y-98142857D01*
X131114286Y-98071429D01*
X131257143Y-98000000D01*
X131400000Y-98000000D01*
X131542857Y-98071429D01*
X131614286Y-98142857D01*
X131685714Y-98285714D01*
X131685714Y-98428572D01*
X131614286Y-98571429D01*
X131542857Y-98642857D01*
X130971429Y-98642857D02*
X131542857Y-98642857D01*
X131614286Y-98714286D01*
X131614286Y-98785714D01*
X131542857Y-98928572D01*
X131400000Y-99000000D01*
X131042857Y-99000000D01*
X130828571Y-98857143D01*
X130685714Y-98642857D01*
X130614286Y-98357143D01*
X130685714Y-98071429D01*
X130828571Y-97857143D01*
X131042857Y-97714286D01*
X131328571Y-97642857D01*
X131614286Y-97714286D01*
X131828571Y-97857143D01*
X131971429Y-98071429D01*
X132042857Y-98357143D01*
X131971429Y-98642857D01*
X131828571Y-98857143D01*
X131828571Y-99642857D02*
X130828571Y-99642857D01*
X130971429Y-99642857D02*
X130900000Y-99714285D01*
X130828571Y-99857143D01*
X130828571Y-100071428D01*
X130900000Y-100214285D01*
X131042857Y-100285714D01*
X131828571Y-100285714D01*
X131042857Y-100285714D02*
X130900000Y-100357143D01*
X130828571Y-100500000D01*
X130828571Y-100714285D01*
X130900000Y-100857143D01*
X131042857Y-100928571D01*
X131828571Y-100928571D01*
X130828571Y-101500000D02*
X131828571Y-101857143D01*
X130828571Y-102214285D02*
X131828571Y-101857143D01*
X132185714Y-101714285D01*
X132257143Y-101642857D01*
X132328571Y-101500000D01*
X131757143Y-103357142D02*
X131828571Y-103214285D01*
X131828571Y-102928571D01*
X131757143Y-102785714D01*
X131614286Y-102714285D01*
X131042857Y-102714285D01*
X130900000Y-102785714D01*
X130828571Y-102928571D01*
X130828571Y-103214285D01*
X130900000Y-103357142D01*
X131042857Y-103428571D01*
X131185714Y-103428571D01*
X131328571Y-102714285D01*
X131828571Y-104285714D02*
X131757143Y-104142856D01*
X131614286Y-104071428D01*
X130328571Y-104071428D01*
X131828571Y-104857142D02*
X130828571Y-104857142D01*
X130328571Y-104857142D02*
X130400000Y-104785713D01*
X130471429Y-104857142D01*
X130400000Y-104928570D01*
X130328571Y-104857142D01*
X130471429Y-104857142D01*
X130828571Y-105571428D02*
X131828571Y-105571428D01*
X130971429Y-105571428D02*
X130900000Y-105642856D01*
X130828571Y-105785714D01*
X130828571Y-105999999D01*
X130900000Y-106142856D01*
X131042857Y-106214285D01*
X131828571Y-106214285D01*
X131685714Y-106928571D02*
X131757143Y-106999999D01*
X131828571Y-106928571D01*
X131757143Y-106857142D01*
X131685714Y-106928571D01*
X131828571Y-106928571D01*
X130828571Y-107642857D02*
X131828571Y-107642857D01*
X130971429Y-107642857D02*
X130900000Y-107714285D01*
X130828571Y-107857143D01*
X130828571Y-108071428D01*
X130900000Y-108214285D01*
X131042857Y-108285714D01*
X131828571Y-108285714D01*
X130828571Y-108857143D02*
X130828571Y-109642857D01*
X131828571Y-108857143D01*
X131828571Y-109642857D01*
D12*
X115050000Y-106450000D02*
X115050000Y-98050000D01*
X119850000Y-100300000D02*
X119850000Y-98850000D01*
X119850000Y-98850000D02*
X117900000Y-98850000D01*
X119850000Y-104200000D02*
X119850000Y-105650000D01*
X119850000Y-105650000D02*
X117900000Y-105650000D01*
D13*
X116705619Y-99903524D02*
X117721619Y-100242191D01*
X116705619Y-100580857D01*
X117334571Y-100919524D02*
X117334571Y-101693619D01*
X117334571Y-102177429D02*
X117334571Y-102951524D01*
X117721619Y-102564476D02*
X116947524Y-102564476D01*
X117721619Y-103435334D02*
X116705619Y-103435334D01*
X116754000Y-104451334D02*
X116705619Y-104354572D01*
X116705619Y-104209429D01*
X116754000Y-104064287D01*
X116850762Y-103967525D01*
X116947524Y-103919144D01*
X117141048Y-103870763D01*
X117286190Y-103870763D01*
X117479714Y-103919144D01*
X117576476Y-103967525D01*
X117673238Y-104064287D01*
X117721619Y-104209429D01*
X117721619Y-104306191D01*
X117673238Y-104451334D01*
X117624857Y-104499715D01*
X117286190Y-104499715D01*
X117286190Y-104306191D01*
D14*
X113323429Y-97315143D02*
X114847429Y-97315143D01*
X113396000Y-97315143D02*
X113323429Y-97460286D01*
X113323429Y-97750572D01*
X113396000Y-97895715D01*
X113468571Y-97968286D01*
X113613714Y-98040857D01*
X114049143Y-98040857D01*
X114194286Y-97968286D01*
X114266857Y-97895715D01*
X114339429Y-97750572D01*
X114339429Y-97460286D01*
X114266857Y-97315143D01*
X114266857Y-99347143D02*
X114339429Y-99202000D01*
X114339429Y-98911714D01*
X114266857Y-98766572D01*
X114194286Y-98694000D01*
X114049143Y-98621429D01*
X113613714Y-98621429D01*
X113468571Y-98694000D01*
X113396000Y-98766572D01*
X113323429Y-98911714D01*
X113323429Y-99202000D01*
X113396000Y-99347143D01*
X114339429Y-100000286D02*
X112815429Y-100000286D01*
X113396000Y-100000286D02*
X113323429Y-100145429D01*
X113323429Y-100435715D01*
X113396000Y-100580858D01*
X113468571Y-100653429D01*
X113613714Y-100726000D01*
X114049143Y-100726000D01*
X114194286Y-100653429D01*
X114266857Y-100580858D01*
X114339429Y-100435715D01*
X114339429Y-100145429D01*
X114266857Y-100000286D01*
X114266857Y-103120858D02*
X114339429Y-102975715D01*
X114339429Y-102685429D01*
X114266857Y-102540286D01*
X114121714Y-102467715D01*
X113541143Y-102467715D01*
X113396000Y-102540286D01*
X113323429Y-102685429D01*
X113323429Y-102975715D01*
X113396000Y-103120858D01*
X113541143Y-103193429D01*
X113686286Y-103193429D01*
X113831429Y-102467715D01*
X114339429Y-104499715D02*
X112815429Y-104499715D01*
X114266857Y-104499715D02*
X114339429Y-104354572D01*
X114339429Y-104064286D01*
X114266857Y-103919144D01*
X114194286Y-103846572D01*
X114049143Y-103774001D01*
X113613714Y-103774001D01*
X113468571Y-103846572D01*
X113396000Y-103919144D01*
X113323429Y-104064286D01*
X113323429Y-104354572D01*
X113396000Y-104499715D01*
X113323429Y-105878572D02*
X114557143Y-105878572D01*
X114702286Y-105806001D01*
X114774857Y-105733429D01*
X114847429Y-105588286D01*
X114847429Y-105370572D01*
X114774857Y-105225429D01*
X114266857Y-105878572D02*
X114339429Y-105733429D01*
X114339429Y-105443143D01*
X114266857Y-105298001D01*
X114194286Y-105225429D01*
X114049143Y-105152858D01*
X113613714Y-105152858D01*
X113468571Y-105225429D01*
X113396000Y-105298001D01*
X113323429Y-105443143D01*
X113323429Y-105733429D01*
X113396000Y-105878572D01*
X114266857Y-107184858D02*
X114339429Y-107039715D01*
X114339429Y-106749429D01*
X114266857Y-106604286D01*
X114121714Y-106531715D01*
X113541143Y-106531715D01*
X113396000Y-106604286D01*
X113323429Y-106749429D01*
X113323429Y-107039715D01*
X113396000Y-107184858D01*
X113541143Y-107257429D01*
X113686286Y-107257429D01*
X113831429Y-106531715D01*
M02*
