M48
;DRILL file {kicad (2015-01-02 BZR 5348)-product} date 4/1/2015 10:56:27 PM
;FORMAT={-:-/ absolute / inch / decimal}
FMAT,2
INCH,TZ
T1C0.016
T2C0.039
T3C0.040
T4C0.079
%
G90
G05
M72
T1
X4.6752Y-3.9469
X4.6752Y-4.1043
T2
X4.8425Y-3.8953
X4.8425Y-3.9953
X4.8425Y-4.0756
X4.8425Y-4.1756
T3
X4.8819Y-3.7697
X4.8819Y-4.3012
X5.2953Y-3.7748
X5.2953Y-3.8748
X5.2953Y-3.9748
X5.2953Y-4.0748
X5.2953Y-4.1748
X5.2953Y-4.2748
X5.3953Y-3.7748
X5.3953Y-3.8748
X5.3953Y-3.9748
X5.3953Y-4.0748
X5.3953Y-4.1748
X5.3953Y-4.2748
T4
X4.7559Y-3.7992
X4.7559Y-4.2717
T0
M30
