G04 #@! TF.FileFunction,Copper,L2,Bot,Signal*
%FSLAX46Y46*%
G04 Gerber Fmt 4.6, Leading zero omitted, Abs format (unit mm)*
G04 Created by KiCad (PCBNEW (2015-01-02 BZR 5348)-product) date 4/1/2015 10:56:25 PM*
%MOMM*%
G01*
G04 APERTURE LIST*
%ADD10C,0.100000*%
%ADD11C,1.500000*%
%ADD12C,2.500000*%
%ADD13R,1.900000X1.600000*%
%ADD14R,1.350000X0.400000*%
%ADD15C,0.600000*%
%ADD16R,1.727200X1.727200*%
%ADD17O,1.727200X1.727200*%
%ADD18C,1.727200*%
%ADD19C,0.254000*%
G04 APERTURE END LIST*
D10*
D11*
X123000000Y-106060000D03*
X123000000Y-103520000D03*
X123000000Y-101480000D03*
X123000000Y-98940000D03*
D12*
X120800000Y-108500000D03*
X120800000Y-96500000D03*
D13*
X116500000Y-106450000D03*
X116500000Y-98050000D03*
D14*
X119175000Y-102250000D03*
X119175000Y-101600000D03*
X119175000Y-100950000D03*
X119175000Y-102900000D03*
X119175000Y-103550000D03*
D15*
X118750000Y-104250000D03*
X118750000Y-100250000D03*
D16*
X134500000Y-106040000D03*
D17*
X134500000Y-108580000D03*
X137040000Y-106040000D03*
X137040000Y-108580000D03*
D16*
X134500000Y-100960000D03*
D17*
X134500000Y-103500000D03*
X137040000Y-100960000D03*
X137040000Y-103500000D03*
D16*
X134500000Y-95880000D03*
D17*
X134500000Y-98420000D03*
X137040000Y-95880000D03*
X137040000Y-98420000D03*
D18*
X124000000Y-109250000D03*
X124000000Y-95750000D03*
D19*
G36*
X139768200Y-101363553D02*
X138283346Y-101349276D01*
X138360778Y-100960000D01*
X138262172Y-100464272D01*
X137981364Y-100044014D01*
X137592595Y-99784246D01*
X137928490Y-99626821D01*
X138322688Y-99194947D01*
X138494958Y-98779026D01*
X138494958Y-98060974D01*
X138322688Y-97645053D01*
X137928490Y-97213179D01*
X137793687Y-97150000D01*
X137928490Y-97086821D01*
X138322688Y-96654947D01*
X138494958Y-96239026D01*
X138494958Y-95520974D01*
X138322688Y-95105053D01*
X137928490Y-94673179D01*
X137399027Y-94425032D01*
X137167000Y-94545531D01*
X137167000Y-95753000D01*
X138373817Y-95753000D01*
X138494958Y-95520974D01*
X138494958Y-96239026D01*
X138373817Y-96007000D01*
X137167000Y-96007000D01*
X137167000Y-97085531D01*
X137167000Y-97214469D01*
X137167000Y-98293000D01*
X138373817Y-98293000D01*
X138494958Y-98060974D01*
X138494958Y-98779026D01*
X138373817Y-98547000D01*
X137167000Y-98547000D01*
X137167000Y-98567000D01*
X136913000Y-98567000D01*
X136913000Y-98547000D01*
X136913000Y-98293000D01*
X136913000Y-97214469D01*
X136913000Y-97085531D01*
X136913000Y-96007000D01*
X136913000Y-95753000D01*
X136913000Y-94545531D01*
X136680973Y-94425032D01*
X136151510Y-94673179D01*
X135984528Y-94856119D01*
X135901927Y-94656701D01*
X135723298Y-94478073D01*
X135489909Y-94381400D01*
X134785750Y-94381400D01*
X134627000Y-94540150D01*
X134627000Y-95753000D01*
X135706183Y-95753000D01*
X135839850Y-95753000D01*
X136913000Y-95753000D01*
X136913000Y-96007000D01*
X135839850Y-96007000D01*
X135706183Y-96007000D01*
X134627000Y-96007000D01*
X134627000Y-97085531D01*
X134627000Y-97219850D01*
X134627000Y-98293000D01*
X135706183Y-98293000D01*
X135833817Y-98293000D01*
X136913000Y-98293000D01*
X136913000Y-98547000D01*
X135833817Y-98547000D01*
X135706183Y-98547000D01*
X134627000Y-98547000D01*
X134627000Y-98567000D01*
X134373000Y-98567000D01*
X134373000Y-98547000D01*
X134373000Y-98293000D01*
X134373000Y-97219850D01*
X134373000Y-97085531D01*
X134373000Y-96007000D01*
X134373000Y-95753000D01*
X134373000Y-94540150D01*
X134214250Y-94381400D01*
X133510091Y-94381400D01*
X133276702Y-94478073D01*
X133098073Y-94656701D01*
X133001400Y-94890090D01*
X133001400Y-95142709D01*
X133001400Y-95594250D01*
X133160150Y-95753000D01*
X134373000Y-95753000D01*
X134373000Y-96007000D01*
X133160150Y-96007000D01*
X133001400Y-96165750D01*
X133001400Y-96617291D01*
X133001400Y-96869910D01*
X133098073Y-97103299D01*
X133276702Y-97281927D01*
X133474119Y-97363700D01*
X133217312Y-97645053D01*
X133045042Y-98060974D01*
X133166183Y-98293000D01*
X134373000Y-98293000D01*
X134373000Y-98547000D01*
X133166183Y-98547000D01*
X133045042Y-98779026D01*
X133217312Y-99194947D01*
X133611510Y-99626821D01*
X133674069Y-99656141D01*
X133636400Y-99656141D01*
X133471756Y-99688085D01*
X133327049Y-99783142D01*
X133230184Y-99926645D01*
X133196141Y-100096400D01*
X133196141Y-101300360D01*
X125510248Y-101226457D01*
X125510248Y-95981970D01*
X125484058Y-95386365D01*
X125306516Y-94957741D01*
X125053805Y-94875800D01*
X124874200Y-95055405D01*
X124874200Y-94696195D01*
X124792259Y-94443484D01*
X124231970Y-94239752D01*
X123636365Y-94265942D01*
X123207741Y-94443484D01*
X123125800Y-94696195D01*
X124000000Y-95570395D01*
X124874200Y-94696195D01*
X124874200Y-95055405D01*
X124179605Y-95750000D01*
X125053805Y-96624200D01*
X125306516Y-96542259D01*
X125510248Y-95981970D01*
X125510248Y-101226457D01*
X124874200Y-101220341D01*
X124874200Y-96803805D01*
X124000000Y-95929605D01*
X123820395Y-96109210D01*
X123820395Y-95750000D01*
X122946195Y-94875800D01*
X122693484Y-94957741D01*
X122489752Y-95518030D01*
X122515942Y-96113635D01*
X122693484Y-96542259D01*
X122946195Y-96624200D01*
X123820395Y-95750000D01*
X123820395Y-96109210D01*
X123125800Y-96803805D01*
X123207741Y-97056516D01*
X123768030Y-97260248D01*
X124363635Y-97234058D01*
X124792259Y-97056516D01*
X124874200Y-96803805D01*
X124874200Y-101220341D01*
X124397201Y-101215754D01*
X124397201Y-99144829D01*
X124369230Y-98594552D01*
X124212460Y-98216077D01*
X123971517Y-98148088D01*
X123791912Y-98327693D01*
X123791912Y-97968483D01*
X123723923Y-97727540D01*
X123204829Y-97542799D01*
X122654552Y-97570770D01*
X122482091Y-97642205D01*
X122482091Y-96166937D01*
X122226592Y-95548582D01*
X121753907Y-95075071D01*
X121135998Y-94818493D01*
X120466937Y-94817909D01*
X119848582Y-95073408D01*
X119375071Y-95546093D01*
X119118493Y-96164002D01*
X119117909Y-96833063D01*
X119373408Y-97451418D01*
X119846093Y-97924929D01*
X120464002Y-98181507D01*
X121133063Y-98182091D01*
X121751418Y-97926592D01*
X122224929Y-97453907D01*
X122481507Y-96835998D01*
X122482091Y-96166937D01*
X122482091Y-97642205D01*
X122276077Y-97727540D01*
X122208088Y-97968483D01*
X123000000Y-98760395D01*
X123791912Y-97968483D01*
X123791912Y-98327693D01*
X123179605Y-98940000D01*
X123971517Y-99731912D01*
X124212460Y-99663923D01*
X124397201Y-99144829D01*
X124397201Y-101215754D01*
X124168617Y-101213557D01*
X124002466Y-100811439D01*
X123670310Y-100478703D01*
X123271257Y-100313001D01*
X123345448Y-100309230D01*
X123723923Y-100152460D01*
X123791912Y-99911517D01*
X123000000Y-99119605D01*
X122820395Y-99299210D01*
X122820395Y-98940000D01*
X122028483Y-98148088D01*
X121787540Y-98216077D01*
X121602799Y-98735171D01*
X121630770Y-99285448D01*
X121787540Y-99663923D01*
X122028483Y-99731912D01*
X122820395Y-98940000D01*
X122820395Y-99299210D01*
X122208088Y-99911517D01*
X122276077Y-100152460D01*
X122728498Y-100313472D01*
X122331439Y-100477534D01*
X121998703Y-100809690D01*
X121840298Y-101191169D01*
X120454090Y-101177840D01*
X120326250Y-101050000D01*
X120103037Y-101050000D01*
X120019755Y-100993784D01*
X119850000Y-100959741D01*
X118948619Y-100959741D01*
X119163990Y-100870752D01*
X119231860Y-100803000D01*
X119302000Y-100803000D01*
X119302000Y-100850000D01*
X120326250Y-100850000D01*
X120485000Y-100691250D01*
X120485000Y-100623691D01*
X120388327Y-100390302D01*
X120209699Y-100211673D01*
X119976310Y-100115000D01*
X119723691Y-100115000D01*
X119481918Y-100115000D01*
X119481927Y-100105075D01*
X119370752Y-99836010D01*
X119165073Y-99629972D01*
X118896203Y-99518327D01*
X118605075Y-99518073D01*
X118336010Y-99629248D01*
X118129972Y-99834927D01*
X118018327Y-100103797D01*
X118018126Y-100333848D01*
X117961673Y-100390302D01*
X117865000Y-100623691D01*
X117865000Y-100691250D01*
X118023750Y-100850000D01*
X118314933Y-100850000D01*
X118334927Y-100870028D01*
X118550979Y-100959741D01*
X118500000Y-100959741D01*
X118335356Y-100991685D01*
X118246582Y-101050000D01*
X118023750Y-101050000D01*
X117920272Y-101153477D01*
X115731800Y-101132434D01*
X115731800Y-99290259D01*
X117450000Y-99290259D01*
X117614644Y-99258315D01*
X117759351Y-99163258D01*
X117856216Y-99019755D01*
X117890259Y-98850000D01*
X117890259Y-97250000D01*
X117858315Y-97085356D01*
X117763258Y-96940649D01*
X117619755Y-96843784D01*
X117450000Y-96809741D01*
X115731800Y-96809741D01*
X115731800Y-94547450D01*
X115779965Y-94305306D01*
X115890251Y-94140251D01*
X116055305Y-94029965D01*
X116297450Y-93981800D01*
X139202549Y-93981800D01*
X139444693Y-94029965D01*
X139609748Y-94140251D01*
X139720034Y-94305305D01*
X139768200Y-94547450D01*
X139768200Y-101363553D01*
X139768200Y-101363553D01*
G37*
X139768200Y-101363553D02*
X138283346Y-101349276D01*
X138360778Y-100960000D01*
X138262172Y-100464272D01*
X137981364Y-100044014D01*
X137592595Y-99784246D01*
X137928490Y-99626821D01*
X138322688Y-99194947D01*
X138494958Y-98779026D01*
X138494958Y-98060974D01*
X138322688Y-97645053D01*
X137928490Y-97213179D01*
X137793687Y-97150000D01*
X137928490Y-97086821D01*
X138322688Y-96654947D01*
X138494958Y-96239026D01*
X138494958Y-95520974D01*
X138322688Y-95105053D01*
X137928490Y-94673179D01*
X137399027Y-94425032D01*
X137167000Y-94545531D01*
X137167000Y-95753000D01*
X138373817Y-95753000D01*
X138494958Y-95520974D01*
X138494958Y-96239026D01*
X138373817Y-96007000D01*
X137167000Y-96007000D01*
X137167000Y-97085531D01*
X137167000Y-97214469D01*
X137167000Y-98293000D01*
X138373817Y-98293000D01*
X138494958Y-98060974D01*
X138494958Y-98779026D01*
X138373817Y-98547000D01*
X137167000Y-98547000D01*
X137167000Y-98567000D01*
X136913000Y-98567000D01*
X136913000Y-98547000D01*
X136913000Y-98293000D01*
X136913000Y-97214469D01*
X136913000Y-97085531D01*
X136913000Y-96007000D01*
X136913000Y-95753000D01*
X136913000Y-94545531D01*
X136680973Y-94425032D01*
X136151510Y-94673179D01*
X135984528Y-94856119D01*
X135901927Y-94656701D01*
X135723298Y-94478073D01*
X135489909Y-94381400D01*
X134785750Y-94381400D01*
X134627000Y-94540150D01*
X134627000Y-95753000D01*
X135706183Y-95753000D01*
X135839850Y-95753000D01*
X136913000Y-95753000D01*
X136913000Y-96007000D01*
X135839850Y-96007000D01*
X135706183Y-96007000D01*
X134627000Y-96007000D01*
X134627000Y-97085531D01*
X134627000Y-97219850D01*
X134627000Y-98293000D01*
X135706183Y-98293000D01*
X135833817Y-98293000D01*
X136913000Y-98293000D01*
X136913000Y-98547000D01*
X135833817Y-98547000D01*
X135706183Y-98547000D01*
X134627000Y-98547000D01*
X134627000Y-98567000D01*
X134373000Y-98567000D01*
X134373000Y-98547000D01*
X134373000Y-98293000D01*
X134373000Y-97219850D01*
X134373000Y-97085531D01*
X134373000Y-96007000D01*
X134373000Y-95753000D01*
X134373000Y-94540150D01*
X134214250Y-94381400D01*
X133510091Y-94381400D01*
X133276702Y-94478073D01*
X133098073Y-94656701D01*
X133001400Y-94890090D01*
X133001400Y-95142709D01*
X133001400Y-95594250D01*
X133160150Y-95753000D01*
X134373000Y-95753000D01*
X134373000Y-96007000D01*
X133160150Y-96007000D01*
X133001400Y-96165750D01*
X133001400Y-96617291D01*
X133001400Y-96869910D01*
X133098073Y-97103299D01*
X133276702Y-97281927D01*
X133474119Y-97363700D01*
X133217312Y-97645053D01*
X133045042Y-98060974D01*
X133166183Y-98293000D01*
X134373000Y-98293000D01*
X134373000Y-98547000D01*
X133166183Y-98547000D01*
X133045042Y-98779026D01*
X133217312Y-99194947D01*
X133611510Y-99626821D01*
X133674069Y-99656141D01*
X133636400Y-99656141D01*
X133471756Y-99688085D01*
X133327049Y-99783142D01*
X133230184Y-99926645D01*
X133196141Y-100096400D01*
X133196141Y-101300360D01*
X125510248Y-101226457D01*
X125510248Y-95981970D01*
X125484058Y-95386365D01*
X125306516Y-94957741D01*
X125053805Y-94875800D01*
X124874200Y-95055405D01*
X124874200Y-94696195D01*
X124792259Y-94443484D01*
X124231970Y-94239752D01*
X123636365Y-94265942D01*
X123207741Y-94443484D01*
X123125800Y-94696195D01*
X124000000Y-95570395D01*
X124874200Y-94696195D01*
X124874200Y-95055405D01*
X124179605Y-95750000D01*
X125053805Y-96624200D01*
X125306516Y-96542259D01*
X125510248Y-95981970D01*
X125510248Y-101226457D01*
X124874200Y-101220341D01*
X124874200Y-96803805D01*
X124000000Y-95929605D01*
X123820395Y-96109210D01*
X123820395Y-95750000D01*
X122946195Y-94875800D01*
X122693484Y-94957741D01*
X122489752Y-95518030D01*
X122515942Y-96113635D01*
X122693484Y-96542259D01*
X122946195Y-96624200D01*
X123820395Y-95750000D01*
X123820395Y-96109210D01*
X123125800Y-96803805D01*
X123207741Y-97056516D01*
X123768030Y-97260248D01*
X124363635Y-97234058D01*
X124792259Y-97056516D01*
X124874200Y-96803805D01*
X124874200Y-101220341D01*
X124397201Y-101215754D01*
X124397201Y-99144829D01*
X124369230Y-98594552D01*
X124212460Y-98216077D01*
X123971517Y-98148088D01*
X123791912Y-98327693D01*
X123791912Y-97968483D01*
X123723923Y-97727540D01*
X123204829Y-97542799D01*
X122654552Y-97570770D01*
X122482091Y-97642205D01*
X122482091Y-96166937D01*
X122226592Y-95548582D01*
X121753907Y-95075071D01*
X121135998Y-94818493D01*
X120466937Y-94817909D01*
X119848582Y-95073408D01*
X119375071Y-95546093D01*
X119118493Y-96164002D01*
X119117909Y-96833063D01*
X119373408Y-97451418D01*
X119846093Y-97924929D01*
X120464002Y-98181507D01*
X121133063Y-98182091D01*
X121751418Y-97926592D01*
X122224929Y-97453907D01*
X122481507Y-96835998D01*
X122482091Y-96166937D01*
X122482091Y-97642205D01*
X122276077Y-97727540D01*
X122208088Y-97968483D01*
X123000000Y-98760395D01*
X123791912Y-97968483D01*
X123791912Y-98327693D01*
X123179605Y-98940000D01*
X123971517Y-99731912D01*
X124212460Y-99663923D01*
X124397201Y-99144829D01*
X124397201Y-101215754D01*
X124168617Y-101213557D01*
X124002466Y-100811439D01*
X123670310Y-100478703D01*
X123271257Y-100313001D01*
X123345448Y-100309230D01*
X123723923Y-100152460D01*
X123791912Y-99911517D01*
X123000000Y-99119605D01*
X122820395Y-99299210D01*
X122820395Y-98940000D01*
X122028483Y-98148088D01*
X121787540Y-98216077D01*
X121602799Y-98735171D01*
X121630770Y-99285448D01*
X121787540Y-99663923D01*
X122028483Y-99731912D01*
X122820395Y-98940000D01*
X122820395Y-99299210D01*
X122208088Y-99911517D01*
X122276077Y-100152460D01*
X122728498Y-100313472D01*
X122331439Y-100477534D01*
X121998703Y-100809690D01*
X121840298Y-101191169D01*
X120454090Y-101177840D01*
X120326250Y-101050000D01*
X120103037Y-101050000D01*
X120019755Y-100993784D01*
X119850000Y-100959741D01*
X118948619Y-100959741D01*
X119163990Y-100870752D01*
X119231860Y-100803000D01*
X119302000Y-100803000D01*
X119302000Y-100850000D01*
X120326250Y-100850000D01*
X120485000Y-100691250D01*
X120485000Y-100623691D01*
X120388327Y-100390302D01*
X120209699Y-100211673D01*
X119976310Y-100115000D01*
X119723691Y-100115000D01*
X119481918Y-100115000D01*
X119481927Y-100105075D01*
X119370752Y-99836010D01*
X119165073Y-99629972D01*
X118896203Y-99518327D01*
X118605075Y-99518073D01*
X118336010Y-99629248D01*
X118129972Y-99834927D01*
X118018327Y-100103797D01*
X118018126Y-100333848D01*
X117961673Y-100390302D01*
X117865000Y-100623691D01*
X117865000Y-100691250D01*
X118023750Y-100850000D01*
X118314933Y-100850000D01*
X118334927Y-100870028D01*
X118550979Y-100959741D01*
X118500000Y-100959741D01*
X118335356Y-100991685D01*
X118246582Y-101050000D01*
X118023750Y-101050000D01*
X117920272Y-101153477D01*
X115731800Y-101132434D01*
X115731800Y-99290259D01*
X117450000Y-99290259D01*
X117614644Y-99258315D01*
X117759351Y-99163258D01*
X117856216Y-99019755D01*
X117890259Y-98850000D01*
X117890259Y-97250000D01*
X117858315Y-97085356D01*
X117763258Y-96940649D01*
X117619755Y-96843784D01*
X117450000Y-96809741D01*
X115731800Y-96809741D01*
X115731800Y-94547450D01*
X115779965Y-94305306D01*
X115890251Y-94140251D01*
X116055305Y-94029965D01*
X116297450Y-93981800D01*
X139202549Y-93981800D01*
X139444693Y-94029965D01*
X139609748Y-94140251D01*
X139720034Y-94305305D01*
X139768200Y-94547450D01*
X139768200Y-101363553D01*
G36*
X139768200Y-110452549D02*
X139720034Y-110694694D01*
X139609748Y-110859748D01*
X139444693Y-110970034D01*
X139202549Y-111018200D01*
X138494958Y-111018200D01*
X138494958Y-108939026D01*
X138494958Y-108220974D01*
X138322688Y-107805053D01*
X137928490Y-107373179D01*
X137793687Y-107310000D01*
X137928490Y-107246821D01*
X138322688Y-106814947D01*
X138494958Y-106399026D01*
X138373817Y-106167000D01*
X137167000Y-106167000D01*
X137167000Y-107245531D01*
X137167000Y-107374469D01*
X137167000Y-108453000D01*
X138373817Y-108453000D01*
X138494958Y-108220974D01*
X138494958Y-108939026D01*
X138373817Y-108707000D01*
X137167000Y-108707000D01*
X137167000Y-109914469D01*
X137399027Y-110034968D01*
X137928490Y-109786821D01*
X138322688Y-109354947D01*
X138494958Y-108939026D01*
X138494958Y-111018200D01*
X136913000Y-111018200D01*
X136913000Y-109914469D01*
X136913000Y-108707000D01*
X136913000Y-108453000D01*
X136913000Y-107374469D01*
X136913000Y-107245531D01*
X136913000Y-106167000D01*
X135839850Y-106167000D01*
X135706183Y-106167000D01*
X134627000Y-106167000D01*
X134627000Y-107245531D01*
X134627000Y-107379850D01*
X134627000Y-108453000D01*
X135706183Y-108453000D01*
X135833817Y-108453000D01*
X136913000Y-108453000D01*
X136913000Y-108707000D01*
X135833817Y-108707000D01*
X135706183Y-108707000D01*
X134627000Y-108707000D01*
X134627000Y-109914469D01*
X134859027Y-110034968D01*
X135388490Y-109786821D01*
X135770000Y-109368847D01*
X136151510Y-109786821D01*
X136680973Y-110034968D01*
X136913000Y-109914469D01*
X136913000Y-111018200D01*
X134373000Y-111018200D01*
X134373000Y-109914469D01*
X134373000Y-108707000D01*
X134373000Y-108453000D01*
X134373000Y-107379850D01*
X134373000Y-107245531D01*
X134373000Y-106167000D01*
X133160150Y-106167000D01*
X133001400Y-106325750D01*
X133001400Y-106777291D01*
X133001400Y-107029910D01*
X133098073Y-107263299D01*
X133276702Y-107441927D01*
X133474119Y-107523700D01*
X133217312Y-107805053D01*
X133045042Y-108220974D01*
X133166183Y-108453000D01*
X134373000Y-108453000D01*
X134373000Y-108707000D01*
X133166183Y-108707000D01*
X133045042Y-108939026D01*
X133217312Y-109354947D01*
X133611510Y-109786821D01*
X134140973Y-110034968D01*
X134373000Y-109914469D01*
X134373000Y-111018200D01*
X125510248Y-111018200D01*
X125510248Y-109481970D01*
X125484058Y-108886365D01*
X125306516Y-108457741D01*
X125053805Y-108375800D01*
X124874200Y-108555405D01*
X124874200Y-108196195D01*
X124792259Y-107943484D01*
X124397201Y-107799833D01*
X124397201Y-106264829D01*
X124369230Y-105714552D01*
X124212460Y-105336077D01*
X123971517Y-105268088D01*
X123179605Y-106060000D01*
X123971517Y-106851912D01*
X124212460Y-106783923D01*
X124397201Y-106264829D01*
X124397201Y-107799833D01*
X124231970Y-107739752D01*
X123791912Y-107759102D01*
X123791912Y-107031517D01*
X123000000Y-106239605D01*
X122820395Y-106419210D01*
X122820395Y-106060000D01*
X122028483Y-105268088D01*
X121787540Y-105336077D01*
X121602799Y-105855171D01*
X121630770Y-106405448D01*
X121787540Y-106783923D01*
X122028483Y-106851912D01*
X122820395Y-106060000D01*
X122820395Y-106419210D01*
X122208088Y-107031517D01*
X122276077Y-107272460D01*
X122795171Y-107457201D01*
X123345448Y-107429230D01*
X123723923Y-107272460D01*
X123791912Y-107031517D01*
X123791912Y-107759102D01*
X123636365Y-107765942D01*
X123207741Y-107943484D01*
X123125800Y-108196195D01*
X124000000Y-109070395D01*
X124874200Y-108196195D01*
X124874200Y-108555405D01*
X124179605Y-109250000D01*
X125053805Y-110124200D01*
X125306516Y-110042259D01*
X125510248Y-109481970D01*
X125510248Y-111018200D01*
X124874200Y-111018200D01*
X124874200Y-110303805D01*
X124000000Y-109429605D01*
X123820395Y-109609210D01*
X123820395Y-109250000D01*
X122946195Y-108375800D01*
X122693484Y-108457741D01*
X122489752Y-109018030D01*
X122515942Y-109613635D01*
X122693484Y-110042259D01*
X122946195Y-110124200D01*
X123820395Y-109250000D01*
X123820395Y-109609210D01*
X123125800Y-110303805D01*
X123207741Y-110556516D01*
X123768030Y-110760248D01*
X124363635Y-110734058D01*
X124792259Y-110556516D01*
X124874200Y-110303805D01*
X124874200Y-111018200D01*
X122482091Y-111018200D01*
X122482091Y-108166937D01*
X122226592Y-107548582D01*
X121753907Y-107075071D01*
X121135998Y-106818493D01*
X120466937Y-106817909D01*
X119848582Y-107073408D01*
X119375071Y-107546093D01*
X119118493Y-108164002D01*
X119117909Y-108833063D01*
X119373408Y-109451418D01*
X119846093Y-109924929D01*
X120464002Y-110181507D01*
X121133063Y-110182091D01*
X121751418Y-109926592D01*
X122224929Y-109453907D01*
X122481507Y-108835998D01*
X122482091Y-108166937D01*
X122482091Y-111018200D01*
X116297450Y-111018200D01*
X116055305Y-110970034D01*
X115890251Y-110859748D01*
X115779965Y-110694693D01*
X115731800Y-110452549D01*
X115731800Y-107690259D01*
X117450000Y-107690259D01*
X117614644Y-107658315D01*
X117759351Y-107563258D01*
X117856216Y-107419755D01*
X117890259Y-107250000D01*
X117890259Y-105650000D01*
X117858315Y-105485356D01*
X117763258Y-105340649D01*
X117619755Y-105243784D01*
X117450000Y-105209741D01*
X115731800Y-105209741D01*
X115731800Y-103127000D01*
X117905050Y-103127000D01*
X117865000Y-103223691D01*
X117865000Y-103291250D01*
X118023750Y-103450000D01*
X118246962Y-103450000D01*
X118330245Y-103506216D01*
X118500000Y-103540259D01*
X118551380Y-103540259D01*
X118336010Y-103629248D01*
X118315221Y-103650000D01*
X118023750Y-103650000D01*
X117865000Y-103808750D01*
X117865000Y-103876309D01*
X117961673Y-104109698D01*
X118018272Y-104166297D01*
X118018073Y-104394925D01*
X118129248Y-104663990D01*
X118334927Y-104870028D01*
X118603797Y-104981673D01*
X118894925Y-104981927D01*
X119163990Y-104870752D01*
X119370028Y-104665073D01*
X119481673Y-104396203D01*
X119481682Y-104385000D01*
X119723691Y-104385000D01*
X119976310Y-104385000D01*
X120209699Y-104288327D01*
X120388327Y-104109698D01*
X120485000Y-103876309D01*
X120485000Y-103808750D01*
X120326250Y-103650000D01*
X119302000Y-103650000D01*
X119302000Y-103697000D01*
X119231984Y-103697000D01*
X119165073Y-103629972D01*
X118949020Y-103540259D01*
X119850000Y-103540259D01*
X120014644Y-103508315D01*
X120103417Y-103450000D01*
X120326250Y-103450000D01*
X120485000Y-103291250D01*
X120485000Y-103223691D01*
X120444949Y-103127000D01*
X121883553Y-103127000D01*
X121818405Y-103283894D01*
X121817995Y-103754043D01*
X121997534Y-104188561D01*
X122329690Y-104521297D01*
X122728742Y-104686998D01*
X122654552Y-104690770D01*
X122276077Y-104847540D01*
X122208088Y-105088483D01*
X123000000Y-105880395D01*
X123791912Y-105088483D01*
X123723923Y-104847540D01*
X123271501Y-104686527D01*
X123668561Y-104522466D01*
X124001297Y-104190310D01*
X124181595Y-103756106D01*
X124182005Y-103285957D01*
X124116325Y-103127000D01*
X133253415Y-103127000D01*
X133179222Y-103500000D01*
X133277828Y-103995728D01*
X133558636Y-104415986D01*
X133746330Y-104541400D01*
X133510091Y-104541400D01*
X133276702Y-104638073D01*
X133098073Y-104816701D01*
X133001400Y-105050090D01*
X133001400Y-105302709D01*
X133001400Y-105754250D01*
X133160150Y-105913000D01*
X134373000Y-105913000D01*
X134373000Y-105893000D01*
X134627000Y-105893000D01*
X134627000Y-105913000D01*
X135706183Y-105913000D01*
X135839850Y-105913000D01*
X136913000Y-105913000D01*
X136913000Y-105893000D01*
X137167000Y-105893000D01*
X137167000Y-105913000D01*
X138373817Y-105913000D01*
X138494958Y-105680974D01*
X138322688Y-105265053D01*
X137928490Y-104833179D01*
X137592595Y-104675753D01*
X137981364Y-104415986D01*
X138262172Y-103995728D01*
X138360778Y-103500000D01*
X138286584Y-103127000D01*
X139768200Y-103127000D01*
X139768200Y-110452549D01*
X139768200Y-110452549D01*
G37*
X139768200Y-110452549D02*
X139720034Y-110694694D01*
X139609748Y-110859748D01*
X139444693Y-110970034D01*
X139202549Y-111018200D01*
X138494958Y-111018200D01*
X138494958Y-108939026D01*
X138494958Y-108220974D01*
X138322688Y-107805053D01*
X137928490Y-107373179D01*
X137793687Y-107310000D01*
X137928490Y-107246821D01*
X138322688Y-106814947D01*
X138494958Y-106399026D01*
X138373817Y-106167000D01*
X137167000Y-106167000D01*
X137167000Y-107245531D01*
X137167000Y-107374469D01*
X137167000Y-108453000D01*
X138373817Y-108453000D01*
X138494958Y-108220974D01*
X138494958Y-108939026D01*
X138373817Y-108707000D01*
X137167000Y-108707000D01*
X137167000Y-109914469D01*
X137399027Y-110034968D01*
X137928490Y-109786821D01*
X138322688Y-109354947D01*
X138494958Y-108939026D01*
X138494958Y-111018200D01*
X136913000Y-111018200D01*
X136913000Y-109914469D01*
X136913000Y-108707000D01*
X136913000Y-108453000D01*
X136913000Y-107374469D01*
X136913000Y-107245531D01*
X136913000Y-106167000D01*
X135839850Y-106167000D01*
X135706183Y-106167000D01*
X134627000Y-106167000D01*
X134627000Y-107245531D01*
X134627000Y-107379850D01*
X134627000Y-108453000D01*
X135706183Y-108453000D01*
X135833817Y-108453000D01*
X136913000Y-108453000D01*
X136913000Y-108707000D01*
X135833817Y-108707000D01*
X135706183Y-108707000D01*
X134627000Y-108707000D01*
X134627000Y-109914469D01*
X134859027Y-110034968D01*
X135388490Y-109786821D01*
X135770000Y-109368847D01*
X136151510Y-109786821D01*
X136680973Y-110034968D01*
X136913000Y-109914469D01*
X136913000Y-111018200D01*
X134373000Y-111018200D01*
X134373000Y-109914469D01*
X134373000Y-108707000D01*
X134373000Y-108453000D01*
X134373000Y-107379850D01*
X134373000Y-107245531D01*
X134373000Y-106167000D01*
X133160150Y-106167000D01*
X133001400Y-106325750D01*
X133001400Y-106777291D01*
X133001400Y-107029910D01*
X133098073Y-107263299D01*
X133276702Y-107441927D01*
X133474119Y-107523700D01*
X133217312Y-107805053D01*
X133045042Y-108220974D01*
X133166183Y-108453000D01*
X134373000Y-108453000D01*
X134373000Y-108707000D01*
X133166183Y-108707000D01*
X133045042Y-108939026D01*
X133217312Y-109354947D01*
X133611510Y-109786821D01*
X134140973Y-110034968D01*
X134373000Y-109914469D01*
X134373000Y-111018200D01*
X125510248Y-111018200D01*
X125510248Y-109481970D01*
X125484058Y-108886365D01*
X125306516Y-108457741D01*
X125053805Y-108375800D01*
X124874200Y-108555405D01*
X124874200Y-108196195D01*
X124792259Y-107943484D01*
X124397201Y-107799833D01*
X124397201Y-106264829D01*
X124369230Y-105714552D01*
X124212460Y-105336077D01*
X123971517Y-105268088D01*
X123179605Y-106060000D01*
X123971517Y-106851912D01*
X124212460Y-106783923D01*
X124397201Y-106264829D01*
X124397201Y-107799833D01*
X124231970Y-107739752D01*
X123791912Y-107759102D01*
X123791912Y-107031517D01*
X123000000Y-106239605D01*
X122820395Y-106419210D01*
X122820395Y-106060000D01*
X122028483Y-105268088D01*
X121787540Y-105336077D01*
X121602799Y-105855171D01*
X121630770Y-106405448D01*
X121787540Y-106783923D01*
X122028483Y-106851912D01*
X122820395Y-106060000D01*
X122820395Y-106419210D01*
X122208088Y-107031517D01*
X122276077Y-107272460D01*
X122795171Y-107457201D01*
X123345448Y-107429230D01*
X123723923Y-107272460D01*
X123791912Y-107031517D01*
X123791912Y-107759102D01*
X123636365Y-107765942D01*
X123207741Y-107943484D01*
X123125800Y-108196195D01*
X124000000Y-109070395D01*
X124874200Y-108196195D01*
X124874200Y-108555405D01*
X124179605Y-109250000D01*
X125053805Y-110124200D01*
X125306516Y-110042259D01*
X125510248Y-109481970D01*
X125510248Y-111018200D01*
X124874200Y-111018200D01*
X124874200Y-110303805D01*
X124000000Y-109429605D01*
X123820395Y-109609210D01*
X123820395Y-109250000D01*
X122946195Y-108375800D01*
X122693484Y-108457741D01*
X122489752Y-109018030D01*
X122515942Y-109613635D01*
X122693484Y-110042259D01*
X122946195Y-110124200D01*
X123820395Y-109250000D01*
X123820395Y-109609210D01*
X123125800Y-110303805D01*
X123207741Y-110556516D01*
X123768030Y-110760248D01*
X124363635Y-110734058D01*
X124792259Y-110556516D01*
X124874200Y-110303805D01*
X124874200Y-111018200D01*
X122482091Y-111018200D01*
X122482091Y-108166937D01*
X122226592Y-107548582D01*
X121753907Y-107075071D01*
X121135998Y-106818493D01*
X120466937Y-106817909D01*
X119848582Y-107073408D01*
X119375071Y-107546093D01*
X119118493Y-108164002D01*
X119117909Y-108833063D01*
X119373408Y-109451418D01*
X119846093Y-109924929D01*
X120464002Y-110181507D01*
X121133063Y-110182091D01*
X121751418Y-109926592D01*
X122224929Y-109453907D01*
X122481507Y-108835998D01*
X122482091Y-108166937D01*
X122482091Y-111018200D01*
X116297450Y-111018200D01*
X116055305Y-110970034D01*
X115890251Y-110859748D01*
X115779965Y-110694693D01*
X115731800Y-110452549D01*
X115731800Y-107690259D01*
X117450000Y-107690259D01*
X117614644Y-107658315D01*
X117759351Y-107563258D01*
X117856216Y-107419755D01*
X117890259Y-107250000D01*
X117890259Y-105650000D01*
X117858315Y-105485356D01*
X117763258Y-105340649D01*
X117619755Y-105243784D01*
X117450000Y-105209741D01*
X115731800Y-105209741D01*
X115731800Y-103127000D01*
X117905050Y-103127000D01*
X117865000Y-103223691D01*
X117865000Y-103291250D01*
X118023750Y-103450000D01*
X118246962Y-103450000D01*
X118330245Y-103506216D01*
X118500000Y-103540259D01*
X118551380Y-103540259D01*
X118336010Y-103629248D01*
X118315221Y-103650000D01*
X118023750Y-103650000D01*
X117865000Y-103808750D01*
X117865000Y-103876309D01*
X117961673Y-104109698D01*
X118018272Y-104166297D01*
X118018073Y-104394925D01*
X118129248Y-104663990D01*
X118334927Y-104870028D01*
X118603797Y-104981673D01*
X118894925Y-104981927D01*
X119163990Y-104870752D01*
X119370028Y-104665073D01*
X119481673Y-104396203D01*
X119481682Y-104385000D01*
X119723691Y-104385000D01*
X119976310Y-104385000D01*
X120209699Y-104288327D01*
X120388327Y-104109698D01*
X120485000Y-103876309D01*
X120485000Y-103808750D01*
X120326250Y-103650000D01*
X119302000Y-103650000D01*
X119302000Y-103697000D01*
X119231984Y-103697000D01*
X119165073Y-103629972D01*
X118949020Y-103540259D01*
X119850000Y-103540259D01*
X120014644Y-103508315D01*
X120103417Y-103450000D01*
X120326250Y-103450000D01*
X120485000Y-103291250D01*
X120485000Y-103223691D01*
X120444949Y-103127000D01*
X121883553Y-103127000D01*
X121818405Y-103283894D01*
X121817995Y-103754043D01*
X121997534Y-104188561D01*
X122329690Y-104521297D01*
X122728742Y-104686998D01*
X122654552Y-104690770D01*
X122276077Y-104847540D01*
X122208088Y-105088483D01*
X123000000Y-105880395D01*
X123791912Y-105088483D01*
X123723923Y-104847540D01*
X123271501Y-104686527D01*
X123668561Y-104522466D01*
X124001297Y-104190310D01*
X124181595Y-103756106D01*
X124182005Y-103285957D01*
X124116325Y-103127000D01*
X133253415Y-103127000D01*
X133179222Y-103500000D01*
X133277828Y-103995728D01*
X133558636Y-104415986D01*
X133746330Y-104541400D01*
X133510091Y-104541400D01*
X133276702Y-104638073D01*
X133098073Y-104816701D01*
X133001400Y-105050090D01*
X133001400Y-105302709D01*
X133001400Y-105754250D01*
X133160150Y-105913000D01*
X134373000Y-105913000D01*
X134373000Y-105893000D01*
X134627000Y-105893000D01*
X134627000Y-105913000D01*
X135706183Y-105913000D01*
X135839850Y-105913000D01*
X136913000Y-105913000D01*
X136913000Y-105893000D01*
X137167000Y-105893000D01*
X137167000Y-105913000D01*
X138373817Y-105913000D01*
X138494958Y-105680974D01*
X138322688Y-105265053D01*
X137928490Y-104833179D01*
X137592595Y-104675753D01*
X137981364Y-104415986D01*
X138262172Y-103995728D01*
X138360778Y-103500000D01*
X138286584Y-103127000D01*
X139768200Y-103127000D01*
X139768200Y-110452549D01*
M02*
