G04 #@! TF.FileFunction,Copper,L1,Top,Signal*
%FSLAX46Y46*%
G04 Gerber Fmt 4.6, Leading zero omitted, Abs format (unit mm)*
G04 Created by KiCad (PCBNEW (2015-01-02 BZR 5348)-product) date 4/1/2015 11:05:10 PM*
%MOMM*%
G01*
G04 APERTURE LIST*
%ADD10C,0.100000*%
%ADD11R,1.727200X1.727200*%
%ADD12O,1.727200X1.727200*%
%ADD13R,1.016000X1.016000*%
%ADD14C,1.016000*%
%ADD15C,0.889000*%
%ADD16C,0.254000*%
G04 APERTURE END LIST*
D10*
D11*
X142240000Y-100330000D03*
D12*
X142240000Y-97790000D03*
X144780000Y-100330000D03*
X144780000Y-97790000D03*
X147320000Y-100330000D03*
X147320000Y-97790000D03*
X149860000Y-100330000D03*
X149860000Y-97790000D03*
D13*
X148590000Y-90805000D03*
D14*
X148590000Y-92075000D03*
X147320000Y-90805000D03*
X147320000Y-92075000D03*
X146050000Y-90805000D03*
X146050000Y-92075000D03*
X144780000Y-90805000D03*
X144780000Y-92075000D03*
X143510000Y-90805000D03*
X143510000Y-92075000D03*
D15*
X146304000Y-94208600D03*
D16*
X143510000Y-92075000D02*
X143510000Y-93497400D01*
X144221200Y-94208600D02*
X146304000Y-94208600D01*
X143510000Y-93497400D02*
X144221200Y-94208600D01*
X148590000Y-92075000D02*
X148590000Y-94640400D01*
X148590000Y-94640400D02*
X146050000Y-97180400D01*
X143510000Y-99060000D02*
X142240000Y-97790000D01*
X145338800Y-99060000D02*
X143510000Y-99060000D01*
X146050000Y-98348800D02*
X145338800Y-99060000D01*
X146050000Y-97180400D02*
X146050000Y-98348800D01*
X147320000Y-92075000D02*
X147320000Y-94792800D01*
X147320000Y-94792800D02*
X144780000Y-97332800D01*
X144780000Y-97332800D02*
X144780000Y-97790000D01*
G36*
X151918200Y-101552549D02*
X151849481Y-101898018D01*
X151680668Y-102150667D01*
X151428019Y-102319481D01*
X151180778Y-102368660D01*
X151180778Y-100330000D01*
X151082172Y-99834272D01*
X150801364Y-99414014D01*
X150381106Y-99133206D01*
X150013072Y-99060000D01*
X150381106Y-98986794D01*
X150801364Y-98705986D01*
X151082172Y-98285728D01*
X151180778Y-97790000D01*
X151082172Y-97294272D01*
X150801364Y-96874014D01*
X150381106Y-96593206D01*
X149885378Y-96494600D01*
X149834622Y-96494600D01*
X149338894Y-96593206D01*
X148918636Y-96874014D01*
X148637828Y-97294272D01*
X148590000Y-97534720D01*
X148542172Y-97294272D01*
X148261364Y-96874014D01*
X147841106Y-96593206D01*
X147496085Y-96524577D01*
X148985131Y-95035532D01*
X148985131Y-95035531D01*
X149106264Y-94854244D01*
X149148799Y-94640400D01*
X149148800Y-94640400D01*
X149148800Y-92845094D01*
X149386259Y-92608049D01*
X149529637Y-92262758D01*
X149529963Y-91888882D01*
X149497853Y-91811171D01*
X149636327Y-91672699D01*
X149733000Y-91439310D01*
X149733000Y-91186691D01*
X149733000Y-91090750D01*
X149733000Y-90519250D01*
X149733000Y-90423309D01*
X149733000Y-90170690D01*
X149636327Y-89937301D01*
X149457698Y-89758673D01*
X149224309Y-89662000D01*
X148875750Y-89662000D01*
X148717000Y-89820750D01*
X148717000Y-90678000D01*
X149574250Y-90678000D01*
X149733000Y-90519250D01*
X149733000Y-91090750D01*
X149574250Y-90932000D01*
X148717000Y-90932000D01*
X148717000Y-90952000D01*
X148463000Y-90952000D01*
X148463000Y-90932000D01*
X148443000Y-90932000D01*
X148443000Y-90678000D01*
X148463000Y-90678000D01*
X148463000Y-89820750D01*
X148304250Y-89662000D01*
X147955691Y-89662000D01*
X147722302Y-89758673D01*
X147583966Y-89897007D01*
X147507758Y-89865363D01*
X147133882Y-89865037D01*
X146788341Y-90007812D01*
X146685051Y-90110921D01*
X146583049Y-90008741D01*
X146237758Y-89865363D01*
X145863882Y-89865037D01*
X145518341Y-90007812D01*
X145415051Y-90110921D01*
X145313049Y-90008741D01*
X144967758Y-89865363D01*
X144593882Y-89865037D01*
X144248341Y-90007812D01*
X144145051Y-90110921D01*
X144043049Y-90008741D01*
X143697758Y-89865363D01*
X143323882Y-89865037D01*
X142978341Y-90007812D01*
X142713741Y-90271951D01*
X142570363Y-90617242D01*
X142570037Y-90991118D01*
X142712812Y-91336659D01*
X142815921Y-91439948D01*
X142713741Y-91541951D01*
X142570363Y-91887242D01*
X142570037Y-92261118D01*
X142712812Y-92606659D01*
X142951200Y-92845463D01*
X142951200Y-93497400D01*
X142993736Y-93711244D01*
X143114869Y-93892531D01*
X143826069Y-94603731D01*
X144007356Y-94724864D01*
X144007357Y-94724865D01*
X144221200Y-94767400D01*
X145623630Y-94767400D01*
X145806968Y-94951058D01*
X146128928Y-95084748D01*
X146237694Y-95084842D01*
X144824194Y-96498342D01*
X144805378Y-96494600D01*
X144754622Y-96494600D01*
X144258894Y-96593206D01*
X143838636Y-96874014D01*
X143557828Y-97294272D01*
X143510000Y-97534720D01*
X143462172Y-97294272D01*
X143181364Y-96874014D01*
X142761106Y-96593206D01*
X142265378Y-96494600D01*
X142214622Y-96494600D01*
X141718894Y-96593206D01*
X141298636Y-96874014D01*
X141017828Y-97294272D01*
X140919222Y-97790000D01*
X141017828Y-98285728D01*
X141298636Y-98705986D01*
X141486330Y-98831400D01*
X141250091Y-98831400D01*
X141016702Y-98928073D01*
X140838073Y-99106701D01*
X140741400Y-99340090D01*
X140741400Y-99592709D01*
X140741400Y-100044250D01*
X140900150Y-100203000D01*
X142113000Y-100203000D01*
X142113000Y-100183000D01*
X142367000Y-100183000D01*
X142367000Y-100203000D01*
X142387000Y-100203000D01*
X142387000Y-100457000D01*
X142367000Y-100457000D01*
X142367000Y-101669850D01*
X142525750Y-101828600D01*
X143229909Y-101828600D01*
X143463298Y-101731927D01*
X143641927Y-101553299D01*
X143738600Y-101319910D01*
X143738600Y-101096271D01*
X143838636Y-101245986D01*
X144258894Y-101526794D01*
X144754622Y-101625400D01*
X144805378Y-101625400D01*
X145301106Y-101526794D01*
X145721364Y-101245986D01*
X146002172Y-100825728D01*
X146050000Y-100585279D01*
X146097828Y-100825728D01*
X146378636Y-101245986D01*
X146798894Y-101526794D01*
X147294622Y-101625400D01*
X147345378Y-101625400D01*
X147841106Y-101526794D01*
X148261364Y-101245986D01*
X148542172Y-100825728D01*
X148590000Y-100585279D01*
X148637828Y-100825728D01*
X148918636Y-101245986D01*
X149338894Y-101526794D01*
X149834622Y-101625400D01*
X149885378Y-101625400D01*
X150381106Y-101526794D01*
X150801364Y-101245986D01*
X151082172Y-100825728D01*
X151180778Y-100330000D01*
X151180778Y-102368660D01*
X151082548Y-102388200D01*
X142113000Y-102388200D01*
X142113000Y-101669850D01*
X142113000Y-100457000D01*
X140900150Y-100457000D01*
X140741400Y-100615750D01*
X140741400Y-101067291D01*
X140741400Y-101319910D01*
X140838073Y-101553299D01*
X141016702Y-101731927D01*
X141250091Y-101828600D01*
X141954250Y-101828600D01*
X142113000Y-101669850D01*
X142113000Y-102388200D01*
X141017450Y-102388200D01*
X140671981Y-102319481D01*
X140419332Y-102150668D01*
X140250518Y-101898019D01*
X140181800Y-101552548D01*
X140181800Y-90217451D01*
X140250518Y-89871980D01*
X140419332Y-89619331D01*
X140671981Y-89450518D01*
X141017450Y-89381800D01*
X151082548Y-89381800D01*
X151428019Y-89450518D01*
X151680668Y-89619332D01*
X151849481Y-89871981D01*
X151918200Y-90217450D01*
X151918200Y-101552549D01*
X151918200Y-101552549D01*
G37*
X151918200Y-101552549D02*
X151849481Y-101898018D01*
X151680668Y-102150667D01*
X151428019Y-102319481D01*
X151180778Y-102368660D01*
X151180778Y-100330000D01*
X151082172Y-99834272D01*
X150801364Y-99414014D01*
X150381106Y-99133206D01*
X150013072Y-99060000D01*
X150381106Y-98986794D01*
X150801364Y-98705986D01*
X151082172Y-98285728D01*
X151180778Y-97790000D01*
X151082172Y-97294272D01*
X150801364Y-96874014D01*
X150381106Y-96593206D01*
X149885378Y-96494600D01*
X149834622Y-96494600D01*
X149338894Y-96593206D01*
X148918636Y-96874014D01*
X148637828Y-97294272D01*
X148590000Y-97534720D01*
X148542172Y-97294272D01*
X148261364Y-96874014D01*
X147841106Y-96593206D01*
X147496085Y-96524577D01*
X148985131Y-95035532D01*
X148985131Y-95035531D01*
X149106264Y-94854244D01*
X149148799Y-94640400D01*
X149148800Y-94640400D01*
X149148800Y-92845094D01*
X149386259Y-92608049D01*
X149529637Y-92262758D01*
X149529963Y-91888882D01*
X149497853Y-91811171D01*
X149636327Y-91672699D01*
X149733000Y-91439310D01*
X149733000Y-91186691D01*
X149733000Y-91090750D01*
X149733000Y-90519250D01*
X149733000Y-90423309D01*
X149733000Y-90170690D01*
X149636327Y-89937301D01*
X149457698Y-89758673D01*
X149224309Y-89662000D01*
X148875750Y-89662000D01*
X148717000Y-89820750D01*
X148717000Y-90678000D01*
X149574250Y-90678000D01*
X149733000Y-90519250D01*
X149733000Y-91090750D01*
X149574250Y-90932000D01*
X148717000Y-90932000D01*
X148717000Y-90952000D01*
X148463000Y-90952000D01*
X148463000Y-90932000D01*
X148443000Y-90932000D01*
X148443000Y-90678000D01*
X148463000Y-90678000D01*
X148463000Y-89820750D01*
X148304250Y-89662000D01*
X147955691Y-89662000D01*
X147722302Y-89758673D01*
X147583966Y-89897007D01*
X147507758Y-89865363D01*
X147133882Y-89865037D01*
X146788341Y-90007812D01*
X146685051Y-90110921D01*
X146583049Y-90008741D01*
X146237758Y-89865363D01*
X145863882Y-89865037D01*
X145518341Y-90007812D01*
X145415051Y-90110921D01*
X145313049Y-90008741D01*
X144967758Y-89865363D01*
X144593882Y-89865037D01*
X144248341Y-90007812D01*
X144145051Y-90110921D01*
X144043049Y-90008741D01*
X143697758Y-89865363D01*
X143323882Y-89865037D01*
X142978341Y-90007812D01*
X142713741Y-90271951D01*
X142570363Y-90617242D01*
X142570037Y-90991118D01*
X142712812Y-91336659D01*
X142815921Y-91439948D01*
X142713741Y-91541951D01*
X142570363Y-91887242D01*
X142570037Y-92261118D01*
X142712812Y-92606659D01*
X142951200Y-92845463D01*
X142951200Y-93497400D01*
X142993736Y-93711244D01*
X143114869Y-93892531D01*
X143826069Y-94603731D01*
X144007356Y-94724864D01*
X144007357Y-94724865D01*
X144221200Y-94767400D01*
X145623630Y-94767400D01*
X145806968Y-94951058D01*
X146128928Y-95084748D01*
X146237694Y-95084842D01*
X144824194Y-96498342D01*
X144805378Y-96494600D01*
X144754622Y-96494600D01*
X144258894Y-96593206D01*
X143838636Y-96874014D01*
X143557828Y-97294272D01*
X143510000Y-97534720D01*
X143462172Y-97294272D01*
X143181364Y-96874014D01*
X142761106Y-96593206D01*
X142265378Y-96494600D01*
X142214622Y-96494600D01*
X141718894Y-96593206D01*
X141298636Y-96874014D01*
X141017828Y-97294272D01*
X140919222Y-97790000D01*
X141017828Y-98285728D01*
X141298636Y-98705986D01*
X141486330Y-98831400D01*
X141250091Y-98831400D01*
X141016702Y-98928073D01*
X140838073Y-99106701D01*
X140741400Y-99340090D01*
X140741400Y-99592709D01*
X140741400Y-100044250D01*
X140900150Y-100203000D01*
X142113000Y-100203000D01*
X142113000Y-100183000D01*
X142367000Y-100183000D01*
X142367000Y-100203000D01*
X142387000Y-100203000D01*
X142387000Y-100457000D01*
X142367000Y-100457000D01*
X142367000Y-101669850D01*
X142525750Y-101828600D01*
X143229909Y-101828600D01*
X143463298Y-101731927D01*
X143641927Y-101553299D01*
X143738600Y-101319910D01*
X143738600Y-101096271D01*
X143838636Y-101245986D01*
X144258894Y-101526794D01*
X144754622Y-101625400D01*
X144805378Y-101625400D01*
X145301106Y-101526794D01*
X145721364Y-101245986D01*
X146002172Y-100825728D01*
X146050000Y-100585279D01*
X146097828Y-100825728D01*
X146378636Y-101245986D01*
X146798894Y-101526794D01*
X147294622Y-101625400D01*
X147345378Y-101625400D01*
X147841106Y-101526794D01*
X148261364Y-101245986D01*
X148542172Y-100825728D01*
X148590000Y-100585279D01*
X148637828Y-100825728D01*
X148918636Y-101245986D01*
X149338894Y-101526794D01*
X149834622Y-101625400D01*
X149885378Y-101625400D01*
X150381106Y-101526794D01*
X150801364Y-101245986D01*
X151082172Y-100825728D01*
X151180778Y-100330000D01*
X151180778Y-102368660D01*
X151082548Y-102388200D01*
X142113000Y-102388200D01*
X142113000Y-101669850D01*
X142113000Y-100457000D01*
X140900150Y-100457000D01*
X140741400Y-100615750D01*
X140741400Y-101067291D01*
X140741400Y-101319910D01*
X140838073Y-101553299D01*
X141016702Y-101731927D01*
X141250091Y-101828600D01*
X141954250Y-101828600D01*
X142113000Y-101669850D01*
X142113000Y-102388200D01*
X141017450Y-102388200D01*
X140671981Y-102319481D01*
X140419332Y-102150668D01*
X140250518Y-101898019D01*
X140181800Y-101552548D01*
X140181800Y-90217451D01*
X140250518Y-89871980D01*
X140419332Y-89619331D01*
X140671981Y-89450518D01*
X141017450Y-89381800D01*
X151082548Y-89381800D01*
X151428019Y-89450518D01*
X151680668Y-89619332D01*
X151849481Y-89871981D01*
X151918200Y-90217450D01*
X151918200Y-101552549D01*
M02*
