G04 #@! TF.FileFunction,Copper,L2,Bot,Signal*
%FSLAX46Y46*%
G04 Gerber Fmt 4.6, Leading zero omitted, Abs format (unit mm)*
G04 Created by KiCad (PCBNEW (2015-01-02 BZR 5348)-product) date 4/1/2015 11:05:10 PM*
%MOMM*%
G01*
G04 APERTURE LIST*
%ADD10C,0.100000*%
%ADD11R,1.727200X1.727200*%
%ADD12O,1.727200X1.727200*%
%ADD13R,1.016000X1.016000*%
%ADD14C,1.016000*%
%ADD15C,0.889000*%
%ADD16C,0.254000*%
G04 APERTURE END LIST*
D10*
D11*
X142240000Y-100330000D03*
D12*
X142240000Y-97790000D03*
X144780000Y-100330000D03*
X144780000Y-97790000D03*
X147320000Y-100330000D03*
X147320000Y-97790000D03*
X149860000Y-100330000D03*
X149860000Y-97790000D03*
D13*
X148590000Y-90805000D03*
D14*
X148590000Y-92075000D03*
X147320000Y-90805000D03*
X147320000Y-92075000D03*
X146050000Y-90805000D03*
X146050000Y-92075000D03*
X144780000Y-90805000D03*
X144780000Y-92075000D03*
X143510000Y-90805000D03*
X143510000Y-92075000D03*
D15*
X146304000Y-94208600D03*
D16*
X151434800Y-98755200D02*
X149860000Y-100330000D01*
X151434800Y-97002600D02*
X151434800Y-98755200D01*
X150190200Y-95758000D02*
X151434800Y-97002600D01*
X147853400Y-95758000D02*
X150190200Y-95758000D01*
X146304000Y-94208600D02*
X147853400Y-95758000D01*
X143510000Y-90805000D02*
X143230600Y-90805000D01*
X143230600Y-90805000D02*
X142417800Y-91617800D01*
X142417800Y-91617800D02*
X142417800Y-94894400D01*
X142417800Y-94894400D02*
X143510000Y-95986600D01*
X143510000Y-95986600D02*
X143510000Y-98348800D01*
X143510000Y-98348800D02*
X144221200Y-99060000D01*
X144221200Y-99060000D02*
X145745200Y-99060000D01*
X145745200Y-99060000D02*
X147015200Y-100330000D01*
X147015200Y-100330000D02*
X147320000Y-100330000D01*
X144780000Y-92075000D02*
X144780000Y-93014800D01*
X144094200Y-94970600D02*
X146050000Y-96926400D01*
X144094200Y-93700600D02*
X144094200Y-94970600D01*
X144780000Y-93014800D02*
X144094200Y-93700600D01*
X148590000Y-99060000D02*
X149860000Y-97790000D01*
X146812000Y-99060000D02*
X148590000Y-99060000D01*
X146050000Y-98298000D02*
X146812000Y-99060000D01*
X146050000Y-96926400D02*
X146050000Y-98298000D01*
X147320000Y-90805000D02*
X147320000Y-89535000D01*
X146050000Y-90805000D02*
X146050000Y-89509600D01*
X146050000Y-90805000D02*
X147320000Y-90805000D01*
X146050000Y-92075000D02*
X146050000Y-92913200D01*
X144932400Y-94691200D02*
X147320000Y-97078800D01*
X144932400Y-94030800D02*
X144932400Y-94691200D01*
X146050000Y-92913200D02*
X144932400Y-94030800D01*
X147320000Y-97078800D02*
X147320000Y-97790000D01*
G36*
X146179678Y-90883211D02*
X146064142Y-90998747D01*
X146050000Y-90984605D01*
X146035857Y-90998747D01*
X145856252Y-90819142D01*
X145870395Y-90805000D01*
X145856252Y-90790857D01*
X146035857Y-90611252D01*
X146050000Y-90625395D01*
X146064142Y-90611252D01*
X146167897Y-90715007D01*
X146179678Y-90883211D01*
X146179678Y-90883211D01*
G37*
X146179678Y-90883211D02*
X146064142Y-90998747D01*
X146050000Y-90984605D01*
X146035857Y-90998747D01*
X145856252Y-90819142D01*
X145870395Y-90805000D01*
X145856252Y-90790857D01*
X146035857Y-90611252D01*
X146050000Y-90625395D01*
X146064142Y-90611252D01*
X146167897Y-90715007D01*
X146179678Y-90883211D01*
G36*
X147513747Y-90819142D02*
X147334142Y-90998747D01*
X147320000Y-90984605D01*
X147305857Y-90998747D01*
X147202102Y-90894992D01*
X147190321Y-90726788D01*
X147305857Y-90611252D01*
X147320000Y-90625395D01*
X147334142Y-90611252D01*
X147513747Y-90790857D01*
X147499605Y-90805000D01*
X147513747Y-90819142D01*
X147513747Y-90819142D01*
G37*
X147513747Y-90819142D02*
X147334142Y-90998747D01*
X147320000Y-90984605D01*
X147305857Y-90998747D01*
X147202102Y-90894992D01*
X147190321Y-90726788D01*
X147305857Y-90611252D01*
X147320000Y-90625395D01*
X147334142Y-90611252D01*
X147513747Y-90790857D01*
X147499605Y-90805000D01*
X147513747Y-90819142D01*
G36*
X151918200Y-101552549D02*
X151849481Y-101898018D01*
X151680668Y-102150667D01*
X151428019Y-102319481D01*
X151082548Y-102388200D01*
X141017450Y-102388200D01*
X140671981Y-102319481D01*
X140419332Y-102150668D01*
X140250518Y-101898019D01*
X140181800Y-101552548D01*
X140181800Y-90217451D01*
X140250518Y-89871980D01*
X140419332Y-89619331D01*
X140671981Y-89450518D01*
X141017450Y-89381800D01*
X151082548Y-89381800D01*
X151428019Y-89450518D01*
X151680668Y-89619332D01*
X151849481Y-89871981D01*
X151918200Y-90217450D01*
X151918200Y-96739571D01*
X151829931Y-96607469D01*
X150585331Y-95362869D01*
X150404044Y-95241736D01*
X150190200Y-95199200D01*
X148084862Y-95199200D01*
X147180225Y-94294563D01*
X147180452Y-94035058D01*
X147047324Y-93712864D01*
X146801032Y-93466142D01*
X146479072Y-93332452D01*
X146421060Y-93332401D01*
X146445131Y-93308331D01*
X146566264Y-93127044D01*
X146566264Y-93127043D01*
X146608800Y-92913200D01*
X146608800Y-92845094D01*
X146684948Y-92769078D01*
X146786951Y-92871259D01*
X147132242Y-93014637D01*
X147506118Y-93014963D01*
X147851659Y-92872188D01*
X147954948Y-92769078D01*
X148056951Y-92871259D01*
X148402242Y-93014637D01*
X148776118Y-93014963D01*
X149121659Y-92872188D01*
X149386259Y-92608049D01*
X149529637Y-92262758D01*
X149529963Y-91888882D01*
X149416095Y-91613302D01*
X149504216Y-91482755D01*
X149538259Y-91313000D01*
X149538259Y-90297000D01*
X149506315Y-90132356D01*
X149411258Y-89987649D01*
X149267755Y-89890784D01*
X149098000Y-89856741D01*
X148082000Y-89856741D01*
X147917356Y-89888685D01*
X147915289Y-89890042D01*
X147898176Y-89793144D01*
X147466945Y-89648909D01*
X147013343Y-89680678D01*
X146741824Y-89793144D01*
X146711702Y-89963689D01*
X146685000Y-89990392D01*
X146658297Y-89963689D01*
X146628176Y-89793144D01*
X146196945Y-89648909D01*
X145743343Y-89680678D01*
X145471824Y-89793144D01*
X145433686Y-90009078D01*
X145317506Y-89892898D01*
X145234344Y-89976059D01*
X144967758Y-89865363D01*
X144593882Y-89865037D01*
X144248341Y-90007812D01*
X144145051Y-90110921D01*
X144043049Y-90008741D01*
X143697758Y-89865363D01*
X143323882Y-89865037D01*
X142978341Y-90007812D01*
X142713741Y-90271951D01*
X142570363Y-90617242D01*
X142570312Y-90675025D01*
X142022669Y-91222669D01*
X141901536Y-91403956D01*
X141859000Y-91617800D01*
X141859000Y-94894400D01*
X141901536Y-95108244D01*
X142022669Y-95289531D01*
X142951200Y-96218062D01*
X142951200Y-96720223D01*
X142761106Y-96593206D01*
X142265378Y-96494600D01*
X142214622Y-96494600D01*
X141718894Y-96593206D01*
X141298636Y-96874014D01*
X141017828Y-97294272D01*
X140919222Y-97790000D01*
X141017828Y-98285728D01*
X141298636Y-98705986D01*
X141718894Y-98986794D01*
X141916705Y-99026141D01*
X141376400Y-99026141D01*
X141211756Y-99058085D01*
X141067049Y-99153142D01*
X140970184Y-99296645D01*
X140936141Y-99466400D01*
X140936141Y-101193600D01*
X140968085Y-101358244D01*
X141063142Y-101502951D01*
X141206645Y-101599816D01*
X141376400Y-101633859D01*
X143103600Y-101633859D01*
X143268244Y-101601915D01*
X143412951Y-101506858D01*
X143509816Y-101363355D01*
X143543859Y-101193600D01*
X143543859Y-101155942D01*
X143891510Y-101536821D01*
X144420973Y-101784968D01*
X144653000Y-101664469D01*
X144653000Y-100457000D01*
X144633000Y-100457000D01*
X144633000Y-100203000D01*
X144653000Y-100203000D01*
X144653000Y-100183000D01*
X144907000Y-100183000D01*
X144907000Y-100203000D01*
X144927000Y-100203000D01*
X144927000Y-100457000D01*
X144907000Y-100457000D01*
X144907000Y-101664469D01*
X145139027Y-101784968D01*
X145668490Y-101536821D01*
X146062688Y-101104947D01*
X146147529Y-100900110D01*
X146378636Y-101245986D01*
X146798894Y-101526794D01*
X147294622Y-101625400D01*
X147345378Y-101625400D01*
X147841106Y-101526794D01*
X148261364Y-101245986D01*
X148542172Y-100825728D01*
X148590000Y-100585279D01*
X148637828Y-100825728D01*
X148918636Y-101245986D01*
X149338894Y-101526794D01*
X149834622Y-101625400D01*
X149885378Y-101625400D01*
X150381106Y-101526794D01*
X150801364Y-101245986D01*
X151082172Y-100825728D01*
X151180778Y-100330000D01*
X151092760Y-99887502D01*
X151829931Y-99150331D01*
X151829932Y-99150331D01*
X151918200Y-99018228D01*
X151918200Y-101552549D01*
X151918200Y-101552549D01*
G37*
X151918200Y-101552549D02*
X151849481Y-101898018D01*
X151680668Y-102150667D01*
X151428019Y-102319481D01*
X151082548Y-102388200D01*
X141017450Y-102388200D01*
X140671981Y-102319481D01*
X140419332Y-102150668D01*
X140250518Y-101898019D01*
X140181800Y-101552548D01*
X140181800Y-90217451D01*
X140250518Y-89871980D01*
X140419332Y-89619331D01*
X140671981Y-89450518D01*
X141017450Y-89381800D01*
X151082548Y-89381800D01*
X151428019Y-89450518D01*
X151680668Y-89619332D01*
X151849481Y-89871981D01*
X151918200Y-90217450D01*
X151918200Y-96739571D01*
X151829931Y-96607469D01*
X150585331Y-95362869D01*
X150404044Y-95241736D01*
X150190200Y-95199200D01*
X148084862Y-95199200D01*
X147180225Y-94294563D01*
X147180452Y-94035058D01*
X147047324Y-93712864D01*
X146801032Y-93466142D01*
X146479072Y-93332452D01*
X146421060Y-93332401D01*
X146445131Y-93308331D01*
X146566264Y-93127044D01*
X146566264Y-93127043D01*
X146608800Y-92913200D01*
X146608800Y-92845094D01*
X146684948Y-92769078D01*
X146786951Y-92871259D01*
X147132242Y-93014637D01*
X147506118Y-93014963D01*
X147851659Y-92872188D01*
X147954948Y-92769078D01*
X148056951Y-92871259D01*
X148402242Y-93014637D01*
X148776118Y-93014963D01*
X149121659Y-92872188D01*
X149386259Y-92608049D01*
X149529637Y-92262758D01*
X149529963Y-91888882D01*
X149416095Y-91613302D01*
X149504216Y-91482755D01*
X149538259Y-91313000D01*
X149538259Y-90297000D01*
X149506315Y-90132356D01*
X149411258Y-89987649D01*
X149267755Y-89890784D01*
X149098000Y-89856741D01*
X148082000Y-89856741D01*
X147917356Y-89888685D01*
X147915289Y-89890042D01*
X147898176Y-89793144D01*
X147466945Y-89648909D01*
X147013343Y-89680678D01*
X146741824Y-89793144D01*
X146711702Y-89963689D01*
X146685000Y-89990392D01*
X146658297Y-89963689D01*
X146628176Y-89793144D01*
X146196945Y-89648909D01*
X145743343Y-89680678D01*
X145471824Y-89793144D01*
X145433686Y-90009078D01*
X145317506Y-89892898D01*
X145234344Y-89976059D01*
X144967758Y-89865363D01*
X144593882Y-89865037D01*
X144248341Y-90007812D01*
X144145051Y-90110921D01*
X144043049Y-90008741D01*
X143697758Y-89865363D01*
X143323882Y-89865037D01*
X142978341Y-90007812D01*
X142713741Y-90271951D01*
X142570363Y-90617242D01*
X142570312Y-90675025D01*
X142022669Y-91222669D01*
X141901536Y-91403956D01*
X141859000Y-91617800D01*
X141859000Y-94894400D01*
X141901536Y-95108244D01*
X142022669Y-95289531D01*
X142951200Y-96218062D01*
X142951200Y-96720223D01*
X142761106Y-96593206D01*
X142265378Y-96494600D01*
X142214622Y-96494600D01*
X141718894Y-96593206D01*
X141298636Y-96874014D01*
X141017828Y-97294272D01*
X140919222Y-97790000D01*
X141017828Y-98285728D01*
X141298636Y-98705986D01*
X141718894Y-98986794D01*
X141916705Y-99026141D01*
X141376400Y-99026141D01*
X141211756Y-99058085D01*
X141067049Y-99153142D01*
X140970184Y-99296645D01*
X140936141Y-99466400D01*
X140936141Y-101193600D01*
X140968085Y-101358244D01*
X141063142Y-101502951D01*
X141206645Y-101599816D01*
X141376400Y-101633859D01*
X143103600Y-101633859D01*
X143268244Y-101601915D01*
X143412951Y-101506858D01*
X143509816Y-101363355D01*
X143543859Y-101193600D01*
X143543859Y-101155942D01*
X143891510Y-101536821D01*
X144420973Y-101784968D01*
X144653000Y-101664469D01*
X144653000Y-100457000D01*
X144633000Y-100457000D01*
X144633000Y-100203000D01*
X144653000Y-100203000D01*
X144653000Y-100183000D01*
X144907000Y-100183000D01*
X144907000Y-100203000D01*
X144927000Y-100203000D01*
X144927000Y-100457000D01*
X144907000Y-100457000D01*
X144907000Y-101664469D01*
X145139027Y-101784968D01*
X145668490Y-101536821D01*
X146062688Y-101104947D01*
X146147529Y-100900110D01*
X146378636Y-101245986D01*
X146798894Y-101526794D01*
X147294622Y-101625400D01*
X147345378Y-101625400D01*
X147841106Y-101526794D01*
X148261364Y-101245986D01*
X148542172Y-100825728D01*
X148590000Y-100585279D01*
X148637828Y-100825728D01*
X148918636Y-101245986D01*
X149338894Y-101526794D01*
X149834622Y-101625400D01*
X149885378Y-101625400D01*
X150381106Y-101526794D01*
X150801364Y-101245986D01*
X151082172Y-100825728D01*
X151180778Y-100330000D01*
X151092760Y-99887502D01*
X151829931Y-99150331D01*
X151829932Y-99150331D01*
X151918200Y-99018228D01*
X151918200Y-101552549D01*
M02*
