G04 #@! TF.FileFunction,Legend,Top*
%FSLAX46Y46*%
G04 Gerber Fmt 4.6, Leading zero omitted, Abs format (unit mm)*
G04 Created by KiCad (PCBNEW (2015-01-02 BZR 5348)-product) date 4/1/2015 11:05:10 PM*
%MOMM*%
G01*
G04 APERTURE LIST*
%ADD10C,0.100000*%
%ADD11C,0.300000*%
%ADD12C,0.177800*%
%ADD13C,0.150000*%
G04 APERTURE END LIST*
D10*
D11*
X150923572Y-91483571D02*
X150066429Y-91483571D01*
X150495001Y-91483571D02*
X150495001Y-89983571D01*
X150352144Y-90197857D01*
X150209286Y-90340714D01*
X150066429Y-90412143D01*
D12*
X141363096Y-94211624D02*
X141363096Y-93364957D01*
X141363096Y-92941624D02*
X141302620Y-93002100D01*
X141363096Y-93062576D01*
X141423572Y-93002100D01*
X141363096Y-92941624D01*
X141363096Y-93062576D01*
X142149287Y-94211624D02*
X142028334Y-94151148D01*
X141967858Y-94090671D01*
X141907382Y-93969719D01*
X141907382Y-93606862D01*
X141967858Y-93485910D01*
X142028334Y-93425433D01*
X142149287Y-93364957D01*
X142330715Y-93364957D01*
X142451667Y-93425433D01*
X142512144Y-93485910D01*
X142572620Y-93606862D01*
X142572620Y-93969719D01*
X142512144Y-94090671D01*
X142451667Y-94151148D01*
X142330715Y-94211624D01*
X142149287Y-94211624D01*
X144628811Y-94151148D02*
X144507858Y-94211624D01*
X144265954Y-94211624D01*
X144145001Y-94151148D01*
X144084525Y-94090671D01*
X144024049Y-93969719D01*
X144024049Y-93606862D01*
X144084525Y-93485910D01*
X144145001Y-93425433D01*
X144265954Y-93364957D01*
X144507858Y-93364957D01*
X144628811Y-93425433D01*
X145173096Y-94211624D02*
X145173096Y-92941624D01*
X145294048Y-93727814D02*
X145656905Y-94211624D01*
X145656905Y-93364957D02*
X145173096Y-93848767D01*
X146987381Y-93364957D02*
X147471191Y-93364957D01*
X147168810Y-92941624D02*
X147168810Y-94030195D01*
X147229286Y-94151148D01*
X147350239Y-94211624D01*
X147471191Y-94211624D01*
X148075953Y-94211624D02*
X147955000Y-94151148D01*
X147894524Y-94090671D01*
X147834048Y-93969719D01*
X147834048Y-93606862D01*
X147894524Y-93485910D01*
X147955000Y-93425433D01*
X148075953Y-93364957D01*
X148257381Y-93364957D01*
X148378333Y-93425433D01*
X148438810Y-93485910D01*
X148499286Y-93606862D01*
X148499286Y-93969719D01*
X148438810Y-94090671D01*
X148378333Y-94151148D01*
X148257381Y-94211624D01*
X148075953Y-94211624D01*
X149829762Y-93364957D02*
X150313572Y-93364957D01*
X150011191Y-92941624D02*
X150011191Y-94030195D01*
X150071667Y-94151148D01*
X150192620Y-94211624D01*
X150313572Y-94211624D01*
X150736905Y-94211624D02*
X150736905Y-93364957D01*
X150736905Y-92941624D02*
X150676429Y-93002100D01*
X150736905Y-93062576D01*
X150797381Y-93002100D01*
X150736905Y-92941624D01*
X150736905Y-93062576D01*
X141484048Y-95683614D02*
X142451667Y-95683614D01*
X141967857Y-96167424D02*
X141967857Y-95199805D01*
X144265953Y-94897424D02*
X144386905Y-94897424D01*
X144507857Y-94957900D01*
X144568334Y-95018376D01*
X144628810Y-95139329D01*
X144689286Y-95381233D01*
X144689286Y-95683614D01*
X144628810Y-95925519D01*
X144568334Y-96046471D01*
X144507857Y-96106948D01*
X144386905Y-96167424D01*
X144265953Y-96167424D01*
X144145000Y-96106948D01*
X144084524Y-96046471D01*
X144024048Y-95925519D01*
X143963572Y-95683614D01*
X143963572Y-95381233D01*
X144024048Y-95139329D01*
X144084524Y-95018376D01*
X144145000Y-94957900D01*
X144265953Y-94897424D01*
X145112620Y-95320757D02*
X145415001Y-96167424D01*
X145717381Y-95320757D01*
X147713096Y-95320757D02*
X147713096Y-96348852D01*
X147652619Y-96469805D01*
X147592143Y-96530281D01*
X147471191Y-96590757D01*
X147289762Y-96590757D01*
X147168810Y-96530281D01*
X147713096Y-96106948D02*
X147592143Y-96167424D01*
X147350239Y-96167424D01*
X147229286Y-96106948D01*
X147168810Y-96046471D01*
X147108334Y-95925519D01*
X147108334Y-95562662D01*
X147168810Y-95441710D01*
X147229286Y-95381233D01*
X147350239Y-95320757D01*
X147592143Y-95320757D01*
X147713096Y-95381233D01*
X148862144Y-96167424D02*
X148862144Y-94897424D01*
X148862144Y-96106948D02*
X148741191Y-96167424D01*
X148499287Y-96167424D01*
X148378334Y-96106948D01*
X148317858Y-96046471D01*
X148257382Y-95925519D01*
X148257382Y-95562662D01*
X148317858Y-95441710D01*
X148378334Y-95381233D01*
X148499287Y-95320757D01*
X148741191Y-95320757D01*
X148862144Y-95381233D01*
X150434525Y-96167424D02*
X150434525Y-95320757D01*
X150434525Y-95562662D02*
X150495001Y-95441710D01*
X150555477Y-95381233D01*
X150676430Y-95320757D01*
X150797382Y-95320757D01*
D13*
X143510000Y-101600000D02*
X151130000Y-101600000D01*
X151130000Y-101600000D02*
X151130000Y-96520000D01*
X151130000Y-96520000D02*
X140970000Y-96520000D01*
X140970000Y-96520000D02*
X140970000Y-99060000D01*
X140970000Y-101600000D02*
X143510000Y-101600000D01*
X140970000Y-99060000D02*
X143510000Y-99060000D01*
X143510000Y-99060000D02*
X143510000Y-101600000D01*
X140970000Y-101600000D02*
X140970000Y-99060000D01*
X149420000Y-91640000D02*
X149420000Y-89940000D01*
X149420000Y-89940000D02*
X147720000Y-89940000D01*
X148590000Y-89916000D02*
X148844000Y-89535000D01*
X148844000Y-89535000D02*
X148463000Y-89535000D01*
X148463000Y-89535000D02*
X148336000Y-89535000D01*
X148336000Y-89535000D02*
X148590000Y-89916000D01*
M02*
