M48
;DRILL file {KiCad 4.0.1-stable} date 2/6/2016 5:06:46 PM
;FORMAT={-:-/ absolute / inch / decimal}
FMAT,2
INCH,TZ
T1C0.020
T2C0.025
T3C0.035
T4C0.040
%
G90
G05
M72
T1
X5.36Y-4.205
X5.44Y-4.415
X5.445Y-4.515
X5.465Y-4.335
T2
X6.0039Y-4.1437
T3
X5.27Y-4.44
X5.3937Y-4.2618
T4
X5.15Y-3.6
X5.15Y-3.7
X5.15Y-3.8
X5.15Y-3.9
X5.15Y-4.
X5.15Y-4.1
X5.15Y-4.2
X5.15Y-4.3
X5.15Y-4.4
X5.15Y-4.5
X5.85Y-4.4
X5.85Y-4.5
X5.95Y-4.4
X5.95Y-4.5
X6.05Y-4.4
X6.05Y-4.5
X6.15Y-3.6
X6.15Y-3.7
X6.15Y-3.8
X6.15Y-3.9
X6.15Y-4.
X6.15Y-4.1
X6.15Y-4.2
X6.15Y-4.3
T0
M30
