G04 #@! TF.FileFunction,Legend,Bot*
%FSLAX46Y46*%
G04 Gerber Fmt 4.6, Leading zero omitted, Abs format (unit mm)*
G04 Created by KiCad (PCBNEW 4.0.1-stable) date 2/6/2016 4:43:16 PM*
%MOMM*%
G01*
G04 APERTURE LIST*
%ADD10C,0.100000*%
%ADD11C,0.152400*%
%ADD12C,0.254000*%
%ADD13C,0.109220*%
G04 APERTURE END LIST*
D10*
D11*
X157554666Y-116411238D02*
X157651428Y-116459619D01*
X157844951Y-116459619D01*
X157941713Y-116411238D01*
X157990094Y-116314476D01*
X157990094Y-115927429D01*
X157941713Y-115830667D01*
X157844951Y-115782286D01*
X157651428Y-115782286D01*
X157554666Y-115830667D01*
X157506285Y-115927429D01*
X157506285Y-116024190D01*
X157990094Y-116120952D01*
X157119237Y-116411238D02*
X157022475Y-116459619D01*
X156828951Y-116459619D01*
X156732190Y-116411238D01*
X156683809Y-116314476D01*
X156683809Y-116266095D01*
X156732190Y-116169333D01*
X156828951Y-116120952D01*
X156974094Y-116120952D01*
X157070856Y-116072571D01*
X157119237Y-115975810D01*
X157119237Y-115927429D01*
X157070856Y-115830667D01*
X156974094Y-115782286D01*
X156828951Y-115782286D01*
X156732190Y-115830667D01*
X156248380Y-115782286D02*
X156248380Y-116798286D01*
X156248380Y-115830667D02*
X156151618Y-115782286D01*
X155958095Y-115782286D01*
X155861333Y-115830667D01*
X155812952Y-115879048D01*
X155764571Y-115975810D01*
X155764571Y-116266095D01*
X155812952Y-116362857D01*
X155861333Y-116411238D01*
X155958095Y-116459619D01*
X156151618Y-116459619D01*
X156248380Y-116411238D01*
X155183999Y-115879048D02*
X155280761Y-115830667D01*
X155329142Y-115782286D01*
X155377523Y-115685524D01*
X155377523Y-115637143D01*
X155329142Y-115540381D01*
X155280761Y-115492000D01*
X155183999Y-115443619D01*
X154990476Y-115443619D01*
X154893714Y-115492000D01*
X154845333Y-115540381D01*
X154796952Y-115637143D01*
X154796952Y-115685524D01*
X154845333Y-115782286D01*
X154893714Y-115830667D01*
X154990476Y-115879048D01*
X155183999Y-115879048D01*
X155280761Y-115927429D01*
X155329142Y-115975810D01*
X155377523Y-116072571D01*
X155377523Y-116266095D01*
X155329142Y-116362857D01*
X155280761Y-116411238D01*
X155183999Y-116459619D01*
X154990476Y-116459619D01*
X154893714Y-116411238D01*
X154845333Y-116362857D01*
X154796952Y-116266095D01*
X154796952Y-116072571D01*
X154845333Y-115975810D01*
X154893714Y-115927429D01*
X154990476Y-115879048D01*
X154409904Y-115540381D02*
X154361523Y-115492000D01*
X154264761Y-115443619D01*
X154022857Y-115443619D01*
X153926095Y-115492000D01*
X153877714Y-115540381D01*
X153829333Y-115637143D01*
X153829333Y-115733905D01*
X153877714Y-115879048D01*
X154458285Y-116459619D01*
X153829333Y-116459619D01*
X152958476Y-115443619D02*
X153151999Y-115443619D01*
X153248761Y-115492000D01*
X153297142Y-115540381D01*
X153393904Y-115685524D01*
X153442285Y-115879048D01*
X153442285Y-116266095D01*
X153393904Y-116362857D01*
X153345523Y-116411238D01*
X153248761Y-116459619D01*
X153055238Y-116459619D01*
X152958476Y-116411238D01*
X152910095Y-116362857D01*
X152861714Y-116266095D01*
X152861714Y-116024190D01*
X152910095Y-115927429D01*
X152958476Y-115879048D01*
X153055238Y-115830667D01*
X153248761Y-115830667D01*
X153345523Y-115879048D01*
X153393904Y-115927429D01*
X153442285Y-116024190D01*
X151990857Y-115443619D02*
X152184380Y-115443619D01*
X152281142Y-115492000D01*
X152329523Y-115540381D01*
X152426285Y-115685524D01*
X152474666Y-115879048D01*
X152474666Y-116266095D01*
X152426285Y-116362857D01*
X152377904Y-116411238D01*
X152281142Y-116459619D01*
X152087619Y-116459619D01*
X151990857Y-116411238D01*
X151942476Y-116362857D01*
X151894095Y-116266095D01*
X151894095Y-116024190D01*
X151942476Y-115927429D01*
X151990857Y-115879048D01*
X152087619Y-115830667D01*
X152281142Y-115830667D01*
X152377904Y-115879048D01*
X152426285Y-115927429D01*
X152474666Y-116024190D01*
X151458666Y-116072571D02*
X150684571Y-116072571D01*
X150200761Y-115782286D02*
X150200761Y-116653143D01*
X150249142Y-116749905D01*
X150345904Y-116798286D01*
X150394285Y-116798286D01*
X150200761Y-115443619D02*
X150249142Y-115492000D01*
X150200761Y-115540381D01*
X150152380Y-115492000D01*
X150200761Y-115443619D01*
X150200761Y-115540381D01*
X149862094Y-115782286D02*
X149475046Y-115782286D01*
X149716951Y-115443619D02*
X149716951Y-116314476D01*
X149668570Y-116411238D01*
X149571808Y-116459619D01*
X149475046Y-116459619D01*
X148700952Y-116459619D02*
X148700952Y-115927429D01*
X148749333Y-115830667D01*
X148846095Y-115782286D01*
X149039618Y-115782286D01*
X149136380Y-115830667D01*
X148700952Y-116411238D02*
X148797714Y-116459619D01*
X149039618Y-116459619D01*
X149136380Y-116411238D01*
X149184761Y-116314476D01*
X149184761Y-116217714D01*
X149136380Y-116120952D01*
X149039618Y-116072571D01*
X148797714Y-116072571D01*
X148700952Y-116024190D01*
X147781714Y-115782286D02*
X147781714Y-116604762D01*
X147830095Y-116701524D01*
X147878476Y-116749905D01*
X147975237Y-116798286D01*
X148120380Y-116798286D01*
X148217142Y-116749905D01*
X147781714Y-116411238D02*
X147878476Y-116459619D01*
X148071999Y-116459619D01*
X148168761Y-116411238D01*
X148217142Y-116362857D01*
X148265523Y-116266095D01*
X148265523Y-115975810D01*
X148217142Y-115879048D01*
X148168761Y-115830667D01*
X148071999Y-115782286D01*
X147878476Y-115782286D01*
X147781714Y-115830667D01*
X146233524Y-116846667D02*
X146281904Y-116798286D01*
X146378666Y-116653143D01*
X146427047Y-116556381D01*
X146475428Y-116411238D01*
X146523809Y-116169333D01*
X146523809Y-115975810D01*
X146475428Y-115733905D01*
X146427047Y-115588762D01*
X146378666Y-115492000D01*
X146281904Y-115346857D01*
X146233524Y-115298476D01*
X145411048Y-116411238D02*
X145507810Y-116459619D01*
X145701333Y-116459619D01*
X145798095Y-116411238D01*
X145846476Y-116362857D01*
X145894857Y-116266095D01*
X145894857Y-115975810D01*
X145846476Y-115879048D01*
X145798095Y-115830667D01*
X145701333Y-115782286D01*
X145507810Y-115782286D01*
X145411048Y-115830667D01*
X145072381Y-116846667D02*
X145024000Y-116798286D01*
X144927238Y-116653143D01*
X144878857Y-116556381D01*
X144830476Y-116411238D01*
X144782095Y-116169333D01*
X144782095Y-115975810D01*
X144830476Y-115733905D01*
X144878857Y-115588762D01*
X144927238Y-115492000D01*
X145024000Y-115346857D01*
X145072381Y-115298476D01*
X143572572Y-115540381D02*
X143524191Y-115492000D01*
X143427429Y-115443619D01*
X143185525Y-115443619D01*
X143088763Y-115492000D01*
X143040382Y-115540381D01*
X142992001Y-115637143D01*
X142992001Y-115733905D01*
X143040382Y-115879048D01*
X143620953Y-116459619D01*
X142992001Y-116459619D01*
X142363048Y-115443619D02*
X142266287Y-115443619D01*
X142169525Y-115492000D01*
X142121144Y-115540381D01*
X142072763Y-115637143D01*
X142024382Y-115830667D01*
X142024382Y-116072571D01*
X142072763Y-116266095D01*
X142121144Y-116362857D01*
X142169525Y-116411238D01*
X142266287Y-116459619D01*
X142363048Y-116459619D01*
X142459810Y-116411238D01*
X142508191Y-116362857D01*
X142556572Y-116266095D01*
X142604953Y-116072571D01*
X142604953Y-115830667D01*
X142556572Y-115637143D01*
X142508191Y-115540381D01*
X142459810Y-115492000D01*
X142363048Y-115443619D01*
X141056763Y-116459619D02*
X141637334Y-116459619D01*
X141347048Y-116459619D02*
X141347048Y-115443619D01*
X141443810Y-115588762D01*
X141540572Y-115685524D01*
X141637334Y-115733905D01*
X140185906Y-115443619D02*
X140379429Y-115443619D01*
X140476191Y-115492000D01*
X140524572Y-115540381D01*
X140621334Y-115685524D01*
X140669715Y-115879048D01*
X140669715Y-116266095D01*
X140621334Y-116362857D01*
X140572953Y-116411238D01*
X140476191Y-116459619D01*
X140282668Y-116459619D01*
X140185906Y-116411238D01*
X140137525Y-116362857D01*
X140089144Y-116266095D01*
X140089144Y-116024190D01*
X140137525Y-115927429D01*
X140185906Y-115879048D01*
X140282668Y-115830667D01*
X140476191Y-115830667D01*
X140572953Y-115879048D01*
X140621334Y-115927429D01*
X140669715Y-116024190D01*
X138879620Y-115782286D02*
X138879620Y-116798286D01*
X138879620Y-115830667D02*
X138782858Y-115782286D01*
X138589335Y-115782286D01*
X138492573Y-115830667D01*
X138444192Y-115879048D01*
X138395811Y-115975810D01*
X138395811Y-116266095D01*
X138444192Y-116362857D01*
X138492573Y-116411238D01*
X138589335Y-116459619D01*
X138782858Y-116459619D01*
X138879620Y-116411238D01*
X137960382Y-115782286D02*
X137960382Y-116798286D01*
X137960382Y-115830667D02*
X137863620Y-115782286D01*
X137670097Y-115782286D01*
X137573335Y-115830667D01*
X137524954Y-115879048D01*
X137476573Y-115975810D01*
X137476573Y-116266095D01*
X137524954Y-116362857D01*
X137573335Y-116411238D01*
X137670097Y-116459619D01*
X137863620Y-116459619D01*
X137960382Y-116411238D01*
X136412192Y-115975810D02*
X136460573Y-115927429D01*
X136557335Y-115879048D01*
X136654097Y-115879048D01*
X136750859Y-115927429D01*
X136799239Y-115975810D01*
X136847620Y-116072571D01*
X136847620Y-116169333D01*
X136799239Y-116266095D01*
X136750859Y-116314476D01*
X136654097Y-116362857D01*
X136557335Y-116362857D01*
X136460573Y-116314476D01*
X136412192Y-116266095D01*
X136412192Y-115879048D02*
X136412192Y-116266095D01*
X136363811Y-116314476D01*
X136315430Y-116314476D01*
X136218668Y-116266095D01*
X136170287Y-116169333D01*
X136170287Y-115927429D01*
X136267049Y-115782286D01*
X136412192Y-115685524D01*
X136605716Y-115637143D01*
X136799239Y-115685524D01*
X136944382Y-115782286D01*
X137041144Y-115927429D01*
X137089525Y-116120952D01*
X137041144Y-116314476D01*
X136944382Y-116459619D01*
X136799239Y-116556381D01*
X136605716Y-116604762D01*
X136412192Y-116556381D01*
X136267049Y-116459619D01*
X135734858Y-116459619D02*
X135734858Y-115782286D01*
X135734858Y-115879048D02*
X135686477Y-115830667D01*
X135589715Y-115782286D01*
X135444573Y-115782286D01*
X135347811Y-115830667D01*
X135299430Y-115927429D01*
X135299430Y-116459619D01*
X135299430Y-115927429D02*
X135251049Y-115830667D01*
X135154287Y-115782286D01*
X135009144Y-115782286D01*
X134912382Y-115830667D01*
X134864001Y-115927429D01*
X134864001Y-116459619D01*
X134476953Y-115782286D02*
X134235048Y-116459619D01*
X133993144Y-115782286D02*
X134235048Y-116459619D01*
X134331810Y-116701524D01*
X134380191Y-116749905D01*
X134476953Y-116798286D01*
X133219049Y-116411238D02*
X133315811Y-116459619D01*
X133509334Y-116459619D01*
X133606096Y-116411238D01*
X133654477Y-116314476D01*
X133654477Y-115927429D01*
X133606096Y-115830667D01*
X133509334Y-115782286D01*
X133315811Y-115782286D01*
X133219049Y-115830667D01*
X133170668Y-115927429D01*
X133170668Y-116024190D01*
X133654477Y-116120952D01*
X132590096Y-116459619D02*
X132686858Y-116411238D01*
X132735239Y-116314476D01*
X132735239Y-115443619D01*
X132203049Y-116459619D02*
X132203049Y-115782286D01*
X132203049Y-115443619D02*
X132251430Y-115492000D01*
X132203049Y-115540381D01*
X132154668Y-115492000D01*
X132203049Y-115443619D01*
X132203049Y-115540381D01*
X131719239Y-115782286D02*
X131719239Y-116459619D01*
X131719239Y-115879048D02*
X131670858Y-115830667D01*
X131574096Y-115782286D01*
X131428954Y-115782286D01*
X131332192Y-115830667D01*
X131283811Y-115927429D01*
X131283811Y-116459619D01*
X130800001Y-116362857D02*
X130751620Y-116411238D01*
X130800001Y-116459619D01*
X130848382Y-116411238D01*
X130800001Y-116362857D01*
X130800001Y-116459619D01*
X130316191Y-115782286D02*
X130316191Y-116459619D01*
X130316191Y-115879048D02*
X130267810Y-115830667D01*
X130171048Y-115782286D01*
X130025906Y-115782286D01*
X129929144Y-115830667D01*
X129880763Y-115927429D01*
X129880763Y-116459619D01*
X129493715Y-115782286D02*
X128961525Y-115782286D01*
X129493715Y-116459619D01*
X128961525Y-116459619D01*
D12*
X154357143Y-90755350D02*
X153500000Y-90755350D01*
X153928571Y-92380950D02*
X153928571Y-90755350D01*
X153142857Y-90755350D02*
X152142857Y-92380950D01*
X152142857Y-90755350D02*
X153142857Y-92380950D01*
X151571429Y-92380950D02*
X151571429Y-90755350D01*
X151214286Y-90755350D01*
X151000001Y-90832760D01*
X150857143Y-90987579D01*
X150785715Y-91142398D01*
X150714286Y-91452036D01*
X150714286Y-91684265D01*
X150785715Y-91993903D01*
X150857143Y-92148722D01*
X151000001Y-92303541D01*
X151214286Y-92380950D01*
X151571429Y-92380950D01*
X153285714Y-94910790D02*
X153785714Y-94136695D01*
X154142857Y-94910790D02*
X154142857Y-93285190D01*
X153571429Y-93285190D01*
X153428571Y-93362600D01*
X153357143Y-93440010D01*
X153285714Y-93594829D01*
X153285714Y-93827057D01*
X153357143Y-93981876D01*
X153428571Y-94059286D01*
X153571429Y-94136695D01*
X154142857Y-94136695D01*
X152785714Y-93285190D02*
X151785714Y-94910790D01*
X151785714Y-93285190D02*
X152785714Y-94910790D01*
X151214286Y-94910790D02*
X151214286Y-93285190D01*
X150857143Y-93285190D01*
X150642858Y-93362600D01*
X150500000Y-93517419D01*
X150428572Y-93672238D01*
X150357143Y-93981876D01*
X150357143Y-94214105D01*
X150428572Y-94523743D01*
X150500000Y-94678562D01*
X150642858Y-94833381D01*
X150857143Y-94910790D01*
X151214286Y-94910790D01*
X153357143Y-95892440D02*
X153500000Y-95815030D01*
X153714286Y-95815030D01*
X153928571Y-95892440D01*
X154071429Y-96047259D01*
X154142857Y-96202078D01*
X154214286Y-96511716D01*
X154214286Y-96743945D01*
X154142857Y-97053583D01*
X154071429Y-97208402D01*
X153928571Y-97363221D01*
X153714286Y-97440630D01*
X153571429Y-97440630D01*
X153357143Y-97363221D01*
X153285714Y-97285811D01*
X153285714Y-96743945D01*
X153571429Y-96743945D01*
X152642857Y-97440630D02*
X152642857Y-95815030D01*
X152071429Y-95815030D01*
X151928571Y-95892440D01*
X151857143Y-95969850D01*
X151785714Y-96124669D01*
X151785714Y-96356897D01*
X151857143Y-96511716D01*
X151928571Y-96589126D01*
X152071429Y-96666535D01*
X152642857Y-96666535D01*
X151142857Y-97440630D02*
X151142857Y-95815030D01*
X150142857Y-95815030D02*
X149857143Y-95815030D01*
X149714285Y-95892440D01*
X149571428Y-96047259D01*
X149500000Y-96356897D01*
X149500000Y-96898764D01*
X149571428Y-97208402D01*
X149714285Y-97363221D01*
X149857143Y-97440630D01*
X150142857Y-97440630D01*
X150285714Y-97363221D01*
X150428571Y-97208402D01*
X150500000Y-96898764D01*
X150500000Y-96356897D01*
X150428571Y-96047259D01*
X150285714Y-95892440D01*
X150142857Y-95815030D01*
X148142856Y-95815030D02*
X148857142Y-95815030D01*
X148928571Y-96589126D01*
X148857142Y-96511716D01*
X148714285Y-96434307D01*
X148357142Y-96434307D01*
X148214285Y-96511716D01*
X148142856Y-96589126D01*
X148071428Y-96743945D01*
X148071428Y-97130992D01*
X148142856Y-97285811D01*
X148214285Y-97363221D01*
X148357142Y-97440630D01*
X148714285Y-97440630D01*
X148857142Y-97363221D01*
X148928571Y-97285811D01*
X153357143Y-98422280D02*
X153500000Y-98344870D01*
X153714286Y-98344870D01*
X153928571Y-98422280D01*
X154071429Y-98577099D01*
X154142857Y-98731918D01*
X154214286Y-99041556D01*
X154214286Y-99273785D01*
X154142857Y-99583423D01*
X154071429Y-99738242D01*
X153928571Y-99893061D01*
X153714286Y-99970470D01*
X153571429Y-99970470D01*
X153357143Y-99893061D01*
X153285714Y-99815651D01*
X153285714Y-99273785D01*
X153571429Y-99273785D01*
X152642857Y-99970470D02*
X152642857Y-98344870D01*
X152071429Y-98344870D01*
X151928571Y-98422280D01*
X151857143Y-98499690D01*
X151785714Y-98654509D01*
X151785714Y-98886737D01*
X151857143Y-99041556D01*
X151928571Y-99118966D01*
X152071429Y-99196375D01*
X152642857Y-99196375D01*
X151142857Y-99970470D02*
X151142857Y-98344870D01*
X150142857Y-98344870D02*
X149857143Y-98344870D01*
X149714285Y-98422280D01*
X149571428Y-98577099D01*
X149500000Y-98886737D01*
X149500000Y-99428604D01*
X149571428Y-99738242D01*
X149714285Y-99893061D01*
X149857143Y-99970470D01*
X150142857Y-99970470D01*
X150285714Y-99893061D01*
X150428571Y-99738242D01*
X150500000Y-99428604D01*
X150500000Y-98886737D01*
X150428571Y-98577099D01*
X150285714Y-98422280D01*
X150142857Y-98344870D01*
X148214285Y-98886737D02*
X148214285Y-99970470D01*
X148571428Y-98267461D02*
X148928571Y-99428604D01*
X147999999Y-99428604D01*
X153357143Y-100952120D02*
X153500000Y-100874710D01*
X153714286Y-100874710D01*
X153928571Y-100952120D01*
X154071429Y-101106939D01*
X154142857Y-101261758D01*
X154214286Y-101571396D01*
X154214286Y-101803625D01*
X154142857Y-102113263D01*
X154071429Y-102268082D01*
X153928571Y-102422901D01*
X153714286Y-102500310D01*
X153571429Y-102500310D01*
X153357143Y-102422901D01*
X153285714Y-102345491D01*
X153285714Y-101803625D01*
X153571429Y-101803625D01*
X152642857Y-102500310D02*
X152642857Y-100874710D01*
X152071429Y-100874710D01*
X151928571Y-100952120D01*
X151857143Y-101029530D01*
X151785714Y-101184349D01*
X151785714Y-101416577D01*
X151857143Y-101571396D01*
X151928571Y-101648806D01*
X152071429Y-101726215D01*
X152642857Y-101726215D01*
X151142857Y-102500310D02*
X151142857Y-100874710D01*
X150142857Y-100874710D02*
X149857143Y-100874710D01*
X149714285Y-100952120D01*
X149571428Y-101106939D01*
X149500000Y-101416577D01*
X149500000Y-101958444D01*
X149571428Y-102268082D01*
X149714285Y-102422901D01*
X149857143Y-102500310D01*
X150142857Y-102500310D01*
X150285714Y-102422901D01*
X150428571Y-102268082D01*
X150500000Y-101958444D01*
X150500000Y-101416577D01*
X150428571Y-101106939D01*
X150285714Y-100952120D01*
X150142857Y-100874710D01*
X148571428Y-100874710D02*
X148428571Y-100874710D01*
X148285714Y-100952120D01*
X148214285Y-101029530D01*
X148142856Y-101184349D01*
X148071428Y-101493987D01*
X148071428Y-101881034D01*
X148142856Y-102190672D01*
X148214285Y-102345491D01*
X148285714Y-102422901D01*
X148428571Y-102500310D01*
X148571428Y-102500310D01*
X148714285Y-102422901D01*
X148785714Y-102345491D01*
X148857142Y-102190672D01*
X148928571Y-101881034D01*
X148928571Y-101493987D01*
X148857142Y-101184349D01*
X148785714Y-101029530D01*
X148714285Y-100952120D01*
X148571428Y-100874710D01*
X153357143Y-103481960D02*
X153500000Y-103404550D01*
X153714286Y-103404550D01*
X153928571Y-103481960D01*
X154071429Y-103636779D01*
X154142857Y-103791598D01*
X154214286Y-104101236D01*
X154214286Y-104333465D01*
X154142857Y-104643103D01*
X154071429Y-104797922D01*
X153928571Y-104952741D01*
X153714286Y-105030150D01*
X153571429Y-105030150D01*
X153357143Y-104952741D01*
X153285714Y-104875331D01*
X153285714Y-104333465D01*
X153571429Y-104333465D01*
X152642857Y-105030150D02*
X152642857Y-103404550D01*
X152071429Y-103404550D01*
X151928571Y-103481960D01*
X151857143Y-103559370D01*
X151785714Y-103714189D01*
X151785714Y-103946417D01*
X151857143Y-104101236D01*
X151928571Y-104178646D01*
X152071429Y-104256055D01*
X152642857Y-104256055D01*
X151142857Y-105030150D02*
X151142857Y-103404550D01*
X150142857Y-103404550D02*
X149857143Y-103404550D01*
X149714285Y-103481960D01*
X149571428Y-103636779D01*
X149500000Y-103946417D01*
X149500000Y-104488284D01*
X149571428Y-104797922D01*
X149714285Y-104952741D01*
X149857143Y-105030150D01*
X150142857Y-105030150D01*
X150285714Y-104952741D01*
X150428571Y-104797922D01*
X150500000Y-104488284D01*
X150500000Y-103946417D01*
X150428571Y-103636779D01*
X150285714Y-103481960D01*
X150142857Y-103404550D01*
X148928571Y-103559370D02*
X148857142Y-103481960D01*
X148714285Y-103404550D01*
X148357142Y-103404550D01*
X148214285Y-103481960D01*
X148142856Y-103559370D01*
X148071428Y-103714189D01*
X148071428Y-103869008D01*
X148142856Y-104101236D01*
X148999999Y-105030150D01*
X148071428Y-105030150D01*
X150928572Y-105934390D02*
X150071429Y-105934390D01*
X150500000Y-107559990D02*
X150500000Y-105934390D01*
X149571429Y-107559990D02*
X149571429Y-105934390D01*
X149214286Y-105934390D01*
X149000001Y-106011800D01*
X148857143Y-106166619D01*
X148785715Y-106321438D01*
X148714286Y-106631076D01*
X148714286Y-106863305D01*
X148785715Y-107172943D01*
X148857143Y-107327762D01*
X149000001Y-107482581D01*
X149214286Y-107559990D01*
X149571429Y-107559990D01*
X147785715Y-105934390D02*
X147500001Y-105934390D01*
X147357143Y-106011800D01*
X147214286Y-106166619D01*
X147142858Y-106476257D01*
X147142858Y-107018124D01*
X147214286Y-107327762D01*
X147357143Y-107482581D01*
X147500001Y-107559990D01*
X147785715Y-107559990D01*
X147928572Y-107482581D01*
X148071429Y-107327762D01*
X148142858Y-107018124D01*
X148142858Y-106476257D01*
X148071429Y-106166619D01*
X147928572Y-106011800D01*
X147785715Y-105934390D01*
X153357143Y-108541640D02*
X153500000Y-108464230D01*
X153714286Y-108464230D01*
X153928571Y-108541640D01*
X154071429Y-108696459D01*
X154142857Y-108851278D01*
X154214286Y-109160916D01*
X154214286Y-109393145D01*
X154142857Y-109702783D01*
X154071429Y-109857602D01*
X153928571Y-110012421D01*
X153714286Y-110089830D01*
X153571429Y-110089830D01*
X153357143Y-110012421D01*
X153285714Y-109935011D01*
X153285714Y-109393145D01*
X153571429Y-109393145D01*
X152642857Y-110089830D02*
X152642857Y-108464230D01*
X151785714Y-110089830D01*
X151785714Y-108464230D01*
X151071428Y-110089830D02*
X151071428Y-108464230D01*
X150714285Y-108464230D01*
X150500000Y-108541640D01*
X150357142Y-108696459D01*
X150285714Y-108851278D01*
X150214285Y-109160916D01*
X150214285Y-109393145D01*
X150285714Y-109702783D01*
X150357142Y-109857602D01*
X150500000Y-110012421D01*
X150714285Y-110089830D01*
X151071428Y-110089830D01*
X144088572Y-90518101D02*
X145374286Y-92608158D01*
X142731428Y-92221110D02*
X143231428Y-91447015D01*
X143588571Y-92221110D02*
X143588571Y-90595510D01*
X143017143Y-90595510D01*
X142874285Y-90672920D01*
X142802857Y-90750330D01*
X142731428Y-90905149D01*
X142731428Y-91137377D01*
X142802857Y-91292196D01*
X142874285Y-91369606D01*
X143017143Y-91447015D01*
X143588571Y-91447015D01*
X142088571Y-91369606D02*
X141588571Y-91369606D01*
X141374285Y-92221110D02*
X142088571Y-92221110D01*
X142088571Y-90595510D01*
X141374285Y-90595510D01*
X140802857Y-92143701D02*
X140588571Y-92221110D01*
X140231428Y-92221110D01*
X140088571Y-92143701D01*
X140017142Y-92066291D01*
X139945714Y-91911472D01*
X139945714Y-91756653D01*
X140017142Y-91601834D01*
X140088571Y-91524425D01*
X140231428Y-91447015D01*
X140517142Y-91369606D01*
X140660000Y-91292196D01*
X140731428Y-91214787D01*
X140802857Y-91059968D01*
X140802857Y-90905149D01*
X140731428Y-90750330D01*
X140660000Y-90672920D01*
X140517142Y-90595510D01*
X140160000Y-90595510D01*
X139945714Y-90672920D01*
X139302857Y-91369606D02*
X138802857Y-91369606D01*
X138588571Y-92221110D02*
X139302857Y-92221110D01*
X139302857Y-90595510D01*
X138588571Y-90595510D01*
X138160000Y-90595510D02*
X137302857Y-90595510D01*
X137731428Y-92221110D02*
X137731428Y-90595510D01*
X141160000Y-94286493D02*
X140445714Y-94286493D01*
X141302857Y-94750950D02*
X140802857Y-93125350D01*
X140302857Y-94750950D01*
X139802857Y-94750950D02*
X139802857Y-93125350D01*
X139445714Y-93125350D01*
X139231429Y-93202760D01*
X139088571Y-93357579D01*
X139017143Y-93512398D01*
X138945714Y-93822036D01*
X138945714Y-94054265D01*
X139017143Y-94363903D01*
X139088571Y-94518722D01*
X139231429Y-94673541D01*
X139445714Y-94750950D01*
X139802857Y-94750950D01*
X137445714Y-94596131D02*
X137517143Y-94673541D01*
X137731429Y-94750950D01*
X137874286Y-94750950D01*
X138088571Y-94673541D01*
X138231429Y-94518722D01*
X138302857Y-94363903D01*
X138374286Y-94054265D01*
X138374286Y-93822036D01*
X138302857Y-93512398D01*
X138231429Y-93357579D01*
X138088571Y-93202760D01*
X137874286Y-93125350D01*
X137731429Y-93125350D01*
X137517143Y-93202760D01*
X137445714Y-93280170D01*
X145302858Y-97125971D02*
X145374287Y-97203381D01*
X145588573Y-97280790D01*
X145731430Y-97280790D01*
X145945715Y-97203381D01*
X146088573Y-97048562D01*
X146160001Y-96893743D01*
X146231430Y-96584105D01*
X146231430Y-96351876D01*
X146160001Y-96042238D01*
X146088573Y-95887419D01*
X145945715Y-95732600D01*
X145731430Y-95655190D01*
X145588573Y-95655190D01*
X145374287Y-95732600D01*
X145302858Y-95810010D01*
X144660001Y-97280790D02*
X144660001Y-95655190D01*
X144660001Y-96429286D02*
X143802858Y-96429286D01*
X143802858Y-97280790D02*
X143802858Y-95655190D01*
X143088572Y-97280790D02*
X143088572Y-95655190D01*
X142374286Y-97280790D02*
X142374286Y-95655190D01*
X141802858Y-95655190D01*
X141660000Y-95732600D01*
X141588572Y-95810010D01*
X141517143Y-95964829D01*
X141517143Y-96197057D01*
X141588572Y-96351876D01*
X141660000Y-96429286D01*
X141802858Y-96506695D01*
X142374286Y-96506695D01*
X141231429Y-97435610D02*
X140088572Y-97435610D01*
X139731429Y-96429286D02*
X139231429Y-96429286D01*
X139017143Y-97280790D02*
X139731429Y-97280790D01*
X139731429Y-95655190D01*
X139017143Y-95655190D01*
X138374286Y-97280790D02*
X138374286Y-95655190D01*
X137517143Y-97280790D01*
X137517143Y-95655190D01*
X144160000Y-98262440D02*
X144302857Y-98185030D01*
X144517143Y-98185030D01*
X144731428Y-98262440D01*
X144874286Y-98417259D01*
X144945714Y-98572078D01*
X145017143Y-98881716D01*
X145017143Y-99113945D01*
X144945714Y-99423583D01*
X144874286Y-99578402D01*
X144731428Y-99733221D01*
X144517143Y-99810630D01*
X144374286Y-99810630D01*
X144160000Y-99733221D01*
X144088571Y-99655811D01*
X144088571Y-99113945D01*
X144374286Y-99113945D01*
X143445714Y-99810630D02*
X143445714Y-98185030D01*
X142874286Y-98185030D01*
X142731428Y-98262440D01*
X142660000Y-98339850D01*
X142588571Y-98494669D01*
X142588571Y-98726897D01*
X142660000Y-98881716D01*
X142731428Y-98959126D01*
X142874286Y-99036535D01*
X143445714Y-99036535D01*
X141945714Y-99810630D02*
X141945714Y-98185030D01*
X140945714Y-98185030D02*
X140660000Y-98185030D01*
X140517142Y-98262440D01*
X140374285Y-98417259D01*
X140302857Y-98726897D01*
X140302857Y-99268764D01*
X140374285Y-99578402D01*
X140517142Y-99733221D01*
X140660000Y-99810630D01*
X140945714Y-99810630D01*
X141088571Y-99733221D01*
X141231428Y-99578402D01*
X141302857Y-99268764D01*
X141302857Y-98726897D01*
X141231428Y-98417259D01*
X141088571Y-98262440D01*
X140945714Y-98185030D01*
X138874285Y-99810630D02*
X139731428Y-99810630D01*
X139302856Y-99810630D02*
X139302856Y-98185030D01*
X139445713Y-98417259D01*
X139588571Y-98572078D01*
X139731428Y-98649488D01*
X137588571Y-98185030D02*
X137874285Y-98185030D01*
X138017142Y-98262440D01*
X138088571Y-98339850D01*
X138231428Y-98572078D01*
X138302857Y-98881716D01*
X138302857Y-99500992D01*
X138231428Y-99655811D01*
X138160000Y-99733221D01*
X138017142Y-99810630D01*
X137731428Y-99810630D01*
X137588571Y-99733221D01*
X137517142Y-99655811D01*
X137445714Y-99500992D01*
X137445714Y-99113945D01*
X137517142Y-98959126D01*
X137588571Y-98881716D01*
X137731428Y-98804307D01*
X138017142Y-98804307D01*
X138160000Y-98881716D01*
X138231428Y-98959126D01*
X138302857Y-99113945D01*
X141302857Y-100714870D02*
X140445714Y-100714870D01*
X140874285Y-102340470D02*
X140874285Y-100714870D01*
X139945714Y-102340470D02*
X139945714Y-100714870D01*
X139445714Y-101876013D01*
X138945714Y-100714870D01*
X138945714Y-102340470D01*
X138302857Y-102263061D02*
X138088571Y-102340470D01*
X137731428Y-102340470D01*
X137588571Y-102263061D01*
X137517142Y-102185651D01*
X137445714Y-102030832D01*
X137445714Y-101876013D01*
X137517142Y-101721194D01*
X137588571Y-101643785D01*
X137731428Y-101566375D01*
X138017142Y-101488966D01*
X138160000Y-101411556D01*
X138231428Y-101334147D01*
X138302857Y-101179328D01*
X138302857Y-101024509D01*
X138231428Y-100869690D01*
X138160000Y-100792280D01*
X138017142Y-100714870D01*
X137660000Y-100714870D01*
X137445714Y-100792280D01*
X140374286Y-103244710D02*
X139517143Y-103244710D01*
X139945714Y-104870310D02*
X139945714Y-103244710D01*
X139017143Y-104870310D02*
X139017143Y-103244710D01*
X138660000Y-103244710D01*
X138445715Y-103322120D01*
X138302857Y-103476939D01*
X138231429Y-103631758D01*
X138160000Y-103941396D01*
X138160000Y-104173625D01*
X138231429Y-104483263D01*
X138302857Y-104638082D01*
X138445715Y-104792901D01*
X138660000Y-104870310D01*
X139017143Y-104870310D01*
X137517143Y-104870310D02*
X137517143Y-103244710D01*
X144588571Y-105774550D02*
X143731428Y-105774550D01*
X144159999Y-107400150D02*
X144159999Y-105774550D01*
X142374285Y-107245331D02*
X142445714Y-107322741D01*
X142660000Y-107400150D01*
X142802857Y-107400150D01*
X143017142Y-107322741D01*
X143160000Y-107167922D01*
X143231428Y-107013103D01*
X143302857Y-106703465D01*
X143302857Y-106471236D01*
X143231428Y-106161598D01*
X143160000Y-106006779D01*
X143017142Y-105851960D01*
X142802857Y-105774550D01*
X142660000Y-105774550D01*
X142445714Y-105851960D01*
X142374285Y-105929370D01*
X141731428Y-107400150D02*
X141731428Y-105774550D01*
X140874285Y-107400150D02*
X141517142Y-106471236D01*
X140874285Y-105774550D02*
X141731428Y-106703465D01*
X141088570Y-108304390D02*
X140159999Y-108304390D01*
X140659999Y-108923667D01*
X140445713Y-108923667D01*
X140302856Y-109001076D01*
X140231427Y-109078486D01*
X140159999Y-109233305D01*
X140159999Y-109620352D01*
X140231427Y-109775171D01*
X140302856Y-109852581D01*
X140445713Y-109929990D01*
X140874285Y-109929990D01*
X141017142Y-109852581D01*
X141088570Y-109775171D01*
X139731428Y-108304390D02*
X139231428Y-109929990D01*
X138731428Y-108304390D01*
X138374285Y-108304390D02*
X137445714Y-108304390D01*
X137945714Y-108923667D01*
X137731428Y-108923667D01*
X137588571Y-109001076D01*
X137517142Y-109078486D01*
X137445714Y-109233305D01*
X137445714Y-109620352D01*
X137517142Y-109775171D01*
X137588571Y-109852581D01*
X137731428Y-109929990D01*
X138160000Y-109929990D01*
X138302857Y-109852581D01*
X138374285Y-109775171D01*
X140588572Y-110911640D02*
X140731429Y-110834230D01*
X140945715Y-110834230D01*
X141160000Y-110911640D01*
X141302858Y-111066459D01*
X141374286Y-111221278D01*
X141445715Y-111530916D01*
X141445715Y-111763145D01*
X141374286Y-112072783D01*
X141302858Y-112227602D01*
X141160000Y-112382421D01*
X140945715Y-112459830D01*
X140802858Y-112459830D01*
X140588572Y-112382421D01*
X140517143Y-112305011D01*
X140517143Y-111763145D01*
X140802858Y-111763145D01*
X139874286Y-112459830D02*
X139874286Y-110834230D01*
X139017143Y-112459830D01*
X139017143Y-110834230D01*
X138302857Y-112459830D02*
X138302857Y-110834230D01*
X137945714Y-110834230D01*
X137731429Y-110911640D01*
X137588571Y-111066459D01*
X137517143Y-111221278D01*
X137445714Y-111530916D01*
X137445714Y-111763145D01*
X137517143Y-112072783D01*
X137588571Y-112227602D01*
X137731429Y-112382421D01*
X137945714Y-112459830D01*
X138302857Y-112459830D01*
X141088570Y-113364070D02*
X140159999Y-113364070D01*
X140659999Y-113983347D01*
X140445713Y-113983347D01*
X140302856Y-114060756D01*
X140231427Y-114138166D01*
X140159999Y-114292985D01*
X140159999Y-114680032D01*
X140231427Y-114834851D01*
X140302856Y-114912261D01*
X140445713Y-114989670D01*
X140874285Y-114989670D01*
X141017142Y-114912261D01*
X141088570Y-114834851D01*
X139731428Y-113364070D02*
X139231428Y-114989670D01*
X138731428Y-113364070D01*
X138374285Y-113364070D02*
X137445714Y-113364070D01*
X137945714Y-113983347D01*
X137731428Y-113983347D01*
X137588571Y-114060756D01*
X137517142Y-114138166D01*
X137445714Y-114292985D01*
X137445714Y-114680032D01*
X137517142Y-114834851D01*
X137588571Y-114912261D01*
X137731428Y-114989670D01*
X138160000Y-114989670D01*
X138302857Y-114912261D01*
X138374285Y-114834851D01*
D13*
X138976362Y-106178328D02*
X138976362Y-105892396D01*
X138976362Y-106035362D02*
X138475982Y-106035362D01*
X138547465Y-105987707D01*
X138595120Y-105940052D01*
X138618948Y-105892396D01*
X138475982Y-106488087D02*
X138475982Y-106535742D01*
X138499810Y-106583397D01*
X138523638Y-106607225D01*
X138571293Y-106631052D01*
X138666603Y-106654880D01*
X138785741Y-106654880D01*
X138881052Y-106631052D01*
X138928707Y-106607225D01*
X138952535Y-106583397D01*
X138976362Y-106535742D01*
X138976362Y-106488087D01*
X138952535Y-106440431D01*
X138928707Y-106416604D01*
X138881052Y-106392776D01*
X138785741Y-106368948D01*
X138666603Y-106368948D01*
X138571293Y-106392776D01*
X138523638Y-106416604D01*
X138499810Y-106440431D01*
X138475982Y-106488087D01*
X138642776Y-107083777D02*
X138976362Y-107083777D01*
X138642776Y-106869328D02*
X138904880Y-106869328D01*
X138952535Y-106893156D01*
X138976362Y-106940811D01*
X138976362Y-107012294D01*
X138952535Y-107059949D01*
X138928707Y-107083777D01*
X134338362Y-91142155D02*
X134338362Y-90856223D01*
X134338362Y-90999189D02*
X133837982Y-90999189D01*
X133909465Y-90951534D01*
X133957120Y-90903879D01*
X133980948Y-90856223D01*
X133837982Y-91451914D02*
X133837982Y-91499569D01*
X133861810Y-91547224D01*
X133885638Y-91571052D01*
X133933293Y-91594879D01*
X134028603Y-91618707D01*
X134147741Y-91618707D01*
X134243052Y-91594879D01*
X134290707Y-91571052D01*
X134314535Y-91547224D01*
X134338362Y-91499569D01*
X134338362Y-91451914D01*
X134314535Y-91404258D01*
X134290707Y-91380431D01*
X134243052Y-91356603D01*
X134147741Y-91332775D01*
X134028603Y-91332775D01*
X133933293Y-91356603D01*
X133885638Y-91380431D01*
X133861810Y-91404258D01*
X133837982Y-91451914D01*
X134338362Y-91833155D02*
X133837982Y-91833155D01*
X134147741Y-91880810D02*
X134338362Y-92023776D01*
X134004776Y-92023776D02*
X134195397Y-91833155D01*
X134338362Y-96349155D02*
X134338362Y-96063223D01*
X134338362Y-96206189D02*
X133837982Y-96206189D01*
X133909465Y-96158534D01*
X133957120Y-96110879D01*
X133980948Y-96063223D01*
X133837982Y-96658914D02*
X133837982Y-96706569D01*
X133861810Y-96754224D01*
X133885638Y-96778052D01*
X133933293Y-96801879D01*
X134028603Y-96825707D01*
X134147741Y-96825707D01*
X134243052Y-96801879D01*
X134290707Y-96778052D01*
X134314535Y-96754224D01*
X134338362Y-96706569D01*
X134338362Y-96658914D01*
X134314535Y-96611258D01*
X134290707Y-96587431D01*
X134243052Y-96563603D01*
X134147741Y-96539775D01*
X134028603Y-96539775D01*
X133933293Y-96563603D01*
X133885638Y-96587431D01*
X133861810Y-96611258D01*
X133837982Y-96658914D01*
X134338362Y-97040155D02*
X133837982Y-97040155D01*
X134147741Y-97087810D02*
X134338362Y-97230776D01*
X134004776Y-97230776D02*
X134195397Y-97040155D01*
X152880362Y-107017155D02*
X152880362Y-106731223D01*
X152880362Y-106874189D02*
X152379982Y-106874189D01*
X152451465Y-106826534D01*
X152499120Y-106778879D01*
X152522948Y-106731223D01*
X152379982Y-107326914D02*
X152379982Y-107374569D01*
X152403810Y-107422224D01*
X152427638Y-107446052D01*
X152475293Y-107469879D01*
X152570603Y-107493707D01*
X152689741Y-107493707D01*
X152785052Y-107469879D01*
X152832707Y-107446052D01*
X152856535Y-107422224D01*
X152880362Y-107374569D01*
X152880362Y-107326914D01*
X152856535Y-107279258D01*
X152832707Y-107255431D01*
X152785052Y-107231603D01*
X152689741Y-107207775D01*
X152570603Y-107207775D01*
X152475293Y-107231603D01*
X152427638Y-107255431D01*
X152403810Y-107279258D01*
X152379982Y-107326914D01*
X152880362Y-107708155D02*
X152379982Y-107708155D01*
X152689741Y-107755810D02*
X152880362Y-107898776D01*
X152546776Y-107898776D02*
X152737397Y-107708155D01*
X134338362Y-101302155D02*
X134338362Y-101016223D01*
X134338362Y-101159189D02*
X133837982Y-101159189D01*
X133909465Y-101111534D01*
X133957120Y-101063879D01*
X133980948Y-101016223D01*
X133837982Y-101611914D02*
X133837982Y-101659569D01*
X133861810Y-101707224D01*
X133885638Y-101731052D01*
X133933293Y-101754879D01*
X134028603Y-101778707D01*
X134147741Y-101778707D01*
X134243052Y-101754879D01*
X134290707Y-101731052D01*
X134314535Y-101707224D01*
X134338362Y-101659569D01*
X134338362Y-101611914D01*
X134314535Y-101564258D01*
X134290707Y-101540431D01*
X134243052Y-101516603D01*
X134147741Y-101492775D01*
X134028603Y-101492775D01*
X133933293Y-101516603D01*
X133885638Y-101540431D01*
X133861810Y-101564258D01*
X133837982Y-101611914D01*
X134338362Y-101993155D02*
X133837982Y-101993155D01*
X134147741Y-102040810D02*
X134338362Y-102183776D01*
X134004776Y-102183776D02*
X134195397Y-101993155D01*
X134338362Y-103969155D02*
X134338362Y-103683223D01*
X134338362Y-103826189D02*
X133837982Y-103826189D01*
X133909465Y-103778534D01*
X133957120Y-103730879D01*
X133980948Y-103683223D01*
X133837982Y-104278914D02*
X133837982Y-104326569D01*
X133861810Y-104374224D01*
X133885638Y-104398052D01*
X133933293Y-104421879D01*
X134028603Y-104445707D01*
X134147741Y-104445707D01*
X134243052Y-104421879D01*
X134290707Y-104398052D01*
X134314535Y-104374224D01*
X134338362Y-104326569D01*
X134338362Y-104278914D01*
X134314535Y-104231258D01*
X134290707Y-104207431D01*
X134243052Y-104183603D01*
X134147741Y-104159775D01*
X134028603Y-104159775D01*
X133933293Y-104183603D01*
X133885638Y-104207431D01*
X133861810Y-104231258D01*
X133837982Y-104278914D01*
X134338362Y-104660155D02*
X133837982Y-104660155D01*
X134147741Y-104707810D02*
X134338362Y-104850776D01*
X134004776Y-104850776D02*
X134195397Y-104660155D01*
X136297845Y-113476362D02*
X136583777Y-113476362D01*
X136440811Y-113476362D02*
X136440811Y-112975982D01*
X136488466Y-113047465D01*
X136536121Y-113095120D01*
X136583777Y-113118948D01*
X135988086Y-112975982D02*
X135940431Y-112975982D01*
X135892776Y-112999810D01*
X135868948Y-113023638D01*
X135845121Y-113071293D01*
X135821293Y-113166603D01*
X135821293Y-113285741D01*
X135845121Y-113381052D01*
X135868948Y-113428707D01*
X135892776Y-113452535D01*
X135940431Y-113476362D01*
X135988086Y-113476362D01*
X136035742Y-113452535D01*
X136059569Y-113428707D01*
X136083397Y-113381052D01*
X136107225Y-113285741D01*
X136107225Y-113166603D01*
X136083397Y-113071293D01*
X136059569Y-113023638D01*
X136035742Y-112999810D01*
X135988086Y-112975982D01*
X135606845Y-113476362D02*
X135606845Y-112975982D01*
X135559190Y-113285741D02*
X135416224Y-113476362D01*
X135416224Y-113142776D02*
X135606845Y-113333397D01*
M02*
