G04 #@! TF.FileFunction,Copper,L2,Bot,Signal*
%FSLAX46Y46*%
G04 Gerber Fmt 4.6, Leading zero omitted, Abs format (unit mm)*
G04 Created by KiCad (PCBNEW 4.0.1-stable) date 2/6/2016 5:06:47 PM*
%MOMM*%
G01*
G04 APERTURE LIST*
%ADD10C,0.100000*%
%ADD11R,2.032000X1.727200*%
%ADD12O,2.032000X1.727200*%
%ADD13R,0.889000X1.397000*%
%ADD14C,1.524000*%
%ADD15R,1.397000X0.889000*%
%ADD16R,2.032000X2.032000*%
%ADD17C,0.889000*%
%ADD18C,1.270000*%
%ADD19C,0.254000*%
%ADD20C,0.508000*%
G04 APERTURE END LIST*
D10*
D11*
X130810000Y-91440000D03*
D12*
X130810000Y-93980000D03*
X130810000Y-96520000D03*
X130810000Y-99060000D03*
X130810000Y-101600000D03*
X130810000Y-104140000D03*
X130810000Y-106680000D03*
X130810000Y-109220000D03*
D11*
X156210000Y-109220000D03*
D12*
X156210000Y-106680000D03*
X156210000Y-104140000D03*
X156210000Y-101600000D03*
X156210000Y-99060000D03*
X156210000Y-96520000D03*
X156210000Y-93980000D03*
X156210000Y-91440000D03*
D13*
X137797500Y-106500000D03*
X139702500Y-106500000D03*
X133159500Y-91440000D03*
X135064500Y-91440000D03*
X133159500Y-96647000D03*
X135064500Y-96647000D03*
X151797500Y-106750000D03*
X153702500Y-106750000D03*
X135064500Y-101600000D03*
X133159500Y-101600000D03*
X135064500Y-104267000D03*
X133159500Y-104267000D03*
D14*
X148590000Y-114300000D03*
X148590000Y-111760000D03*
X151130000Y-114300000D03*
X151130000Y-111760000D03*
X153670000Y-114300000D03*
X153670000Y-111760000D03*
D15*
X136000000Y-114202500D03*
X136000000Y-112297500D03*
D16*
X130810000Y-114300000D03*
D12*
X130810000Y-111760000D03*
D17*
X138303000Y-114681000D03*
X136144000Y-106807000D03*
X138811000Y-110109000D03*
D18*
X137000000Y-108250000D03*
D17*
X152500000Y-105250000D03*
D18*
X133858000Y-112776000D03*
D17*
X138176000Y-112141000D03*
D19*
X130810000Y-91440000D02*
X133159500Y-91440000D01*
X133159500Y-104267000D02*
X133159500Y-107505500D01*
X139319000Y-113792000D02*
X138303000Y-114681000D01*
X139319000Y-111633000D02*
X139319000Y-113792000D01*
X138811000Y-111125000D02*
X139319000Y-111633000D01*
X136779000Y-111125000D02*
X138811000Y-111125000D01*
X133159500Y-107505500D02*
X136779000Y-111125000D01*
X130810000Y-104140000D02*
X130937000Y-104267000D01*
X130937000Y-104267000D02*
X133159500Y-104267000D01*
X135064500Y-104267000D02*
X135064500Y-105727500D01*
X135064500Y-105727500D02*
X136144000Y-106807000D01*
D20*
X136144000Y-106807000D02*
X137604500Y-106807000D01*
X137604500Y-106807000D02*
X137731500Y-106680000D01*
D19*
X135064500Y-101600000D02*
X135064500Y-104267000D01*
X135064500Y-96647000D02*
X135064500Y-101600000D01*
X135064500Y-91440000D02*
X135064500Y-96647000D01*
X133159500Y-101600000D02*
X134112000Y-102552500D01*
X134112000Y-102552500D02*
X134112000Y-107061000D01*
X130810000Y-101600000D02*
X133159500Y-101600000D01*
X137160000Y-110109000D02*
X138811000Y-110109000D01*
X134112000Y-107061000D02*
X137160000Y-110109000D01*
X130810000Y-101600000D02*
X130810000Y-101727000D01*
X130810000Y-106680000D02*
X136271000Y-112141000D01*
X136271000Y-112141000D02*
X138176000Y-112141000D01*
X153606500Y-107315000D02*
X154241500Y-106680000D01*
X154241500Y-106680000D02*
X156210000Y-106680000D01*
X130810000Y-96520000D02*
X133032500Y-96520000D01*
X133032500Y-96520000D02*
X133159500Y-96647000D01*
G36*
X157688979Y-89665478D02*
X157866145Y-89783856D01*
X157984521Y-89961019D01*
X158040000Y-90239931D01*
X158040000Y-116008069D01*
X157984521Y-116286981D01*
X157866145Y-116464144D01*
X157688979Y-116582522D01*
X157410070Y-116638000D01*
X129609931Y-116638000D01*
X129331019Y-116582521D01*
X129153856Y-116464145D01*
X129035478Y-116286979D01*
X128980000Y-116008070D01*
X128980000Y-113284000D01*
X129146560Y-113284000D01*
X129146560Y-115316000D01*
X129190838Y-115551317D01*
X129329910Y-115767441D01*
X129542110Y-115912431D01*
X129794000Y-115963440D01*
X131826000Y-115963440D01*
X132061317Y-115919162D01*
X132277441Y-115780090D01*
X132422431Y-115567890D01*
X132473440Y-115316000D01*
X132473440Y-114488250D01*
X134666500Y-114488250D01*
X134666500Y-114773309D01*
X134763173Y-115006698D01*
X134941801Y-115185327D01*
X135175190Y-115282000D01*
X135714250Y-115282000D01*
X135873000Y-115123250D01*
X135873000Y-114329500D01*
X134825250Y-114329500D01*
X134666500Y-114488250D01*
X132473440Y-114488250D01*
X132473440Y-113284000D01*
X132429162Y-113048683D01*
X132290090Y-112832559D01*
X132108639Y-112708579D01*
X132160732Y-112662036D01*
X132414709Y-112134791D01*
X132417358Y-112119026D01*
X132296217Y-111887000D01*
X130937000Y-111887000D01*
X130937000Y-111907000D01*
X130683000Y-111907000D01*
X130683000Y-111887000D01*
X129323783Y-111887000D01*
X129202642Y-112119026D01*
X129205291Y-112134791D01*
X129459268Y-112662036D01*
X129513124Y-112710154D01*
X129342559Y-112819910D01*
X129197569Y-113032110D01*
X129146560Y-113284000D01*
X128980000Y-113284000D01*
X128980000Y-93980000D01*
X129126655Y-93980000D01*
X129240729Y-94553489D01*
X129565585Y-95039670D01*
X129880366Y-95250000D01*
X129565585Y-95460330D01*
X129240729Y-95946511D01*
X129126655Y-96520000D01*
X129240729Y-97093489D01*
X129565585Y-97579670D01*
X129880366Y-97790000D01*
X129565585Y-98000330D01*
X129240729Y-98486511D01*
X129126655Y-99060000D01*
X129240729Y-99633489D01*
X129565585Y-100119670D01*
X129880366Y-100330000D01*
X129565585Y-100540330D01*
X129240729Y-101026511D01*
X129126655Y-101600000D01*
X129240729Y-102173489D01*
X129565585Y-102659670D01*
X129880366Y-102870000D01*
X129565585Y-103080330D01*
X129240729Y-103566511D01*
X129126655Y-104140000D01*
X129240729Y-104713489D01*
X129565585Y-105199670D01*
X129880366Y-105410000D01*
X129565585Y-105620330D01*
X129240729Y-106106511D01*
X129126655Y-106680000D01*
X129240729Y-107253489D01*
X129565585Y-107739670D01*
X129880366Y-107950000D01*
X129565585Y-108160330D01*
X129240729Y-108646511D01*
X129126655Y-109220000D01*
X129240729Y-109793489D01*
X129565585Y-110279670D01*
X129875069Y-110486461D01*
X129459268Y-110857964D01*
X129205291Y-111385209D01*
X129202642Y-111400974D01*
X129323783Y-111633000D01*
X130683000Y-111633000D01*
X130683000Y-111613000D01*
X130937000Y-111613000D01*
X130937000Y-111633000D01*
X132296217Y-111633000D01*
X132417358Y-111400974D01*
X132414709Y-111385209D01*
X132160732Y-110857964D01*
X131744931Y-110486461D01*
X132054415Y-110279670D01*
X132379271Y-109793489D01*
X132456683Y-109404313D01*
X134696381Y-111644012D01*
X134654060Y-111853000D01*
X134654060Y-112742000D01*
X134698338Y-112977317D01*
X134837410Y-113193441D01*
X134915011Y-113246463D01*
X134763173Y-113398302D01*
X134666500Y-113631691D01*
X134666500Y-113916750D01*
X134825250Y-114075500D01*
X135873000Y-114075500D01*
X135873000Y-114055500D01*
X136127000Y-114055500D01*
X136127000Y-114075500D01*
X136147000Y-114075500D01*
X136147000Y-114329500D01*
X136127000Y-114329500D01*
X136127000Y-115123250D01*
X136285750Y-115282000D01*
X136824810Y-115282000D01*
X137058199Y-115185327D01*
X137236827Y-115006698D01*
X137253211Y-114967143D01*
X137387311Y-115291689D01*
X137690714Y-115595622D01*
X138087332Y-115760313D01*
X138516784Y-115760687D01*
X138913689Y-115596689D01*
X139217622Y-115293286D01*
X139382313Y-114896668D01*
X139382442Y-114749010D01*
X139820781Y-114365463D01*
X139836449Y-114345092D01*
X139857815Y-114330815D01*
X139926579Y-114227902D01*
X140002040Y-114129787D01*
X140008719Y-114104972D01*
X140022996Y-114083605D01*
X140047144Y-113962206D01*
X140079312Y-113842687D01*
X140075986Y-113817205D01*
X140081000Y-113792000D01*
X140081000Y-112036661D01*
X147192758Y-112036661D01*
X147404990Y-112550303D01*
X147797630Y-112943629D01*
X148005512Y-113029949D01*
X147799697Y-113114990D01*
X147406371Y-113507630D01*
X147193243Y-114020900D01*
X147192758Y-114576661D01*
X147404990Y-115090303D01*
X147797630Y-115483629D01*
X148310900Y-115696757D01*
X148866661Y-115697242D01*
X149380303Y-115485010D01*
X149773629Y-115092370D01*
X149859949Y-114884488D01*
X149944990Y-115090303D01*
X150337630Y-115483629D01*
X150850900Y-115696757D01*
X151406661Y-115697242D01*
X151920303Y-115485010D01*
X152313629Y-115092370D01*
X152399949Y-114884488D01*
X152484990Y-115090303D01*
X152877630Y-115483629D01*
X153390900Y-115696757D01*
X153946661Y-115697242D01*
X154460303Y-115485010D01*
X154853629Y-115092370D01*
X155066757Y-114579100D01*
X155067242Y-114023339D01*
X154855010Y-113509697D01*
X154462370Y-113116371D01*
X154254488Y-113030051D01*
X154460303Y-112945010D01*
X154853629Y-112552370D01*
X155066757Y-112039100D01*
X155067242Y-111483339D01*
X154855010Y-110969697D01*
X154462370Y-110576371D01*
X153949100Y-110363243D01*
X153393339Y-110362758D01*
X152879697Y-110574990D01*
X152486371Y-110967630D01*
X152400051Y-111175512D01*
X152315010Y-110969697D01*
X151922370Y-110576371D01*
X151409100Y-110363243D01*
X150853339Y-110362758D01*
X150339697Y-110574990D01*
X149946371Y-110967630D01*
X149860051Y-111175512D01*
X149775010Y-110969697D01*
X149382370Y-110576371D01*
X148869100Y-110363243D01*
X148313339Y-110362758D01*
X147799697Y-110574990D01*
X147406371Y-110967630D01*
X147193243Y-111480900D01*
X147192758Y-112036661D01*
X140081000Y-112036661D01*
X140081000Y-111633000D01*
X140022996Y-111341395D01*
X139966317Y-111256569D01*
X139857815Y-111094184D01*
X139605164Y-110841534D01*
X139725622Y-110721286D01*
X139890313Y-110324668D01*
X139890687Y-109895216D01*
X139729763Y-109505750D01*
X154559000Y-109505750D01*
X154559000Y-110209910D01*
X154655673Y-110443299D01*
X154834302Y-110621927D01*
X155067691Y-110718600D01*
X155924250Y-110718600D01*
X156083000Y-110559850D01*
X156083000Y-109347000D01*
X156337000Y-109347000D01*
X156337000Y-110559850D01*
X156495750Y-110718600D01*
X157352309Y-110718600D01*
X157585698Y-110621927D01*
X157764327Y-110443299D01*
X157861000Y-110209910D01*
X157861000Y-109505750D01*
X157702250Y-109347000D01*
X156337000Y-109347000D01*
X156083000Y-109347000D01*
X154717750Y-109347000D01*
X154559000Y-109505750D01*
X139729763Y-109505750D01*
X139726689Y-109498311D01*
X139423286Y-109194378D01*
X139026668Y-109029687D01*
X138597216Y-109029313D01*
X138200311Y-109193311D01*
X138046354Y-109347000D01*
X137475630Y-109347000D01*
X136015018Y-107886388D01*
X136357784Y-107886687D01*
X136754689Y-107722689D01*
X136781425Y-107696000D01*
X136956320Y-107696000D01*
X137101110Y-107794931D01*
X137353000Y-107845940D01*
X138242000Y-107845940D01*
X138477317Y-107801662D01*
X138693441Y-107662590D01*
X138746463Y-107584989D01*
X138898302Y-107736827D01*
X139131691Y-107833500D01*
X139416750Y-107833500D01*
X139575500Y-107674750D01*
X139575500Y-106627000D01*
X139829500Y-106627000D01*
X139829500Y-107674750D01*
X139988250Y-107833500D01*
X140273309Y-107833500D01*
X140506698Y-107736827D01*
X140685327Y-107558199D01*
X140782000Y-107324810D01*
X140782000Y-107035750D01*
X150718000Y-107035750D01*
X150718000Y-107574810D01*
X150814673Y-107808199D01*
X150993302Y-107986827D01*
X151226691Y-108083500D01*
X151511750Y-108083500D01*
X151670500Y-107924750D01*
X151670500Y-106877000D01*
X150876750Y-106877000D01*
X150718000Y-107035750D01*
X140782000Y-107035750D01*
X140782000Y-106785750D01*
X140623250Y-106627000D01*
X139829500Y-106627000D01*
X139575500Y-106627000D01*
X139555500Y-106627000D01*
X139555500Y-106373000D01*
X139575500Y-106373000D01*
X139575500Y-105325250D01*
X139829500Y-105325250D01*
X139829500Y-106373000D01*
X140623250Y-106373000D01*
X140782000Y-106214250D01*
X140782000Y-105925190D01*
X150718000Y-105925190D01*
X150718000Y-106464250D01*
X150876750Y-106623000D01*
X151670500Y-106623000D01*
X151670500Y-105575250D01*
X151924500Y-105575250D01*
X151924500Y-106623000D01*
X151944500Y-106623000D01*
X151944500Y-106877000D01*
X151924500Y-106877000D01*
X151924500Y-107924750D01*
X152083250Y-108083500D01*
X152368309Y-108083500D01*
X152601698Y-107986827D01*
X152752671Y-107835854D01*
X152793910Y-107899941D01*
X153006110Y-108044931D01*
X153258000Y-108095940D01*
X154147000Y-108095940D01*
X154382317Y-108051662D01*
X154598441Y-107912590D01*
X154743431Y-107700390D01*
X154788996Y-107475385D01*
X154965585Y-107739670D01*
X154987780Y-107754500D01*
X154834302Y-107818073D01*
X154655673Y-107996701D01*
X154559000Y-108230090D01*
X154559000Y-108934250D01*
X154717750Y-109093000D01*
X156083000Y-109093000D01*
X156083000Y-109073000D01*
X156337000Y-109073000D01*
X156337000Y-109093000D01*
X157702250Y-109093000D01*
X157861000Y-108934250D01*
X157861000Y-108230090D01*
X157764327Y-107996701D01*
X157585698Y-107818073D01*
X157432220Y-107754500D01*
X157454415Y-107739670D01*
X157779271Y-107253489D01*
X157893345Y-106680000D01*
X157779271Y-106106511D01*
X157454415Y-105620330D01*
X157139634Y-105410000D01*
X157454415Y-105199670D01*
X157779271Y-104713489D01*
X157893345Y-104140000D01*
X157779271Y-103566511D01*
X157454415Y-103080330D01*
X157139634Y-102870000D01*
X157454415Y-102659670D01*
X157779271Y-102173489D01*
X157893345Y-101600000D01*
X157779271Y-101026511D01*
X157454415Y-100540330D01*
X157139634Y-100330000D01*
X157454415Y-100119670D01*
X157779271Y-99633489D01*
X157893345Y-99060000D01*
X157779271Y-98486511D01*
X157454415Y-98000330D01*
X157139634Y-97790000D01*
X157454415Y-97579670D01*
X157779271Y-97093489D01*
X157893345Y-96520000D01*
X157779271Y-95946511D01*
X157454415Y-95460330D01*
X157139634Y-95250000D01*
X157454415Y-95039670D01*
X157779271Y-94553489D01*
X157893345Y-93980000D01*
X157779271Y-93406511D01*
X157454415Y-92920330D01*
X157139634Y-92710000D01*
X157454415Y-92499670D01*
X157779271Y-92013489D01*
X157893345Y-91440000D01*
X157779271Y-90866511D01*
X157454415Y-90380330D01*
X156968234Y-90055474D01*
X156394745Y-89941400D01*
X156025255Y-89941400D01*
X155451766Y-90055474D01*
X154965585Y-90380330D01*
X154640729Y-90866511D01*
X154526655Y-91440000D01*
X154640729Y-92013489D01*
X154965585Y-92499670D01*
X155280366Y-92710000D01*
X154965585Y-92920330D01*
X154640729Y-93406511D01*
X154526655Y-93980000D01*
X154640729Y-94553489D01*
X154965585Y-95039670D01*
X155280366Y-95250000D01*
X154965585Y-95460330D01*
X154640729Y-95946511D01*
X154526655Y-96520000D01*
X154640729Y-97093489D01*
X154965585Y-97579670D01*
X155280366Y-97790000D01*
X154965585Y-98000330D01*
X154640729Y-98486511D01*
X154526655Y-99060000D01*
X154640729Y-99633489D01*
X154965585Y-100119670D01*
X155280366Y-100330000D01*
X154965585Y-100540330D01*
X154640729Y-101026511D01*
X154526655Y-101600000D01*
X154640729Y-102173489D01*
X154965585Y-102659670D01*
X155280366Y-102870000D01*
X154965585Y-103080330D01*
X154640729Y-103566511D01*
X154526655Y-104140000D01*
X154640729Y-104713489D01*
X154965585Y-105199670D01*
X155280366Y-105410000D01*
X154965585Y-105620330D01*
X154768742Y-105914926D01*
X154750162Y-105816183D01*
X154611090Y-105600059D01*
X154398890Y-105455069D01*
X154147000Y-105404060D01*
X153258000Y-105404060D01*
X153022683Y-105448338D01*
X152806559Y-105587410D01*
X152753537Y-105665011D01*
X152601698Y-105513173D01*
X152368309Y-105416500D01*
X152083250Y-105416500D01*
X151924500Y-105575250D01*
X151670500Y-105575250D01*
X151511750Y-105416500D01*
X151226691Y-105416500D01*
X150993302Y-105513173D01*
X150814673Y-105691801D01*
X150718000Y-105925190D01*
X140782000Y-105925190D01*
X140782000Y-105675190D01*
X140685327Y-105441801D01*
X140506698Y-105263173D01*
X140273309Y-105166500D01*
X139988250Y-105166500D01*
X139829500Y-105325250D01*
X139575500Y-105325250D01*
X139416750Y-105166500D01*
X139131691Y-105166500D01*
X138898302Y-105263173D01*
X138747329Y-105414146D01*
X138706090Y-105350059D01*
X138493890Y-105205069D01*
X138242000Y-105154060D01*
X137353000Y-105154060D01*
X137117683Y-105198338D01*
X136901559Y-105337410D01*
X136756569Y-105549610D01*
X136705560Y-105801500D01*
X136705560Y-105871315D01*
X136359668Y-105727687D01*
X136142128Y-105727498D01*
X135889725Y-105475095D01*
X135960441Y-105429590D01*
X136105431Y-105217390D01*
X136156440Y-104965500D01*
X136156440Y-103568500D01*
X136112162Y-103333183D01*
X135973090Y-103117059D01*
X135826500Y-103016898D01*
X135826500Y-102848779D01*
X135960441Y-102762590D01*
X136105431Y-102550390D01*
X136156440Y-102298500D01*
X136156440Y-100901500D01*
X136112162Y-100666183D01*
X135973090Y-100450059D01*
X135826500Y-100349898D01*
X135826500Y-97895779D01*
X135960441Y-97809590D01*
X136105431Y-97597390D01*
X136156440Y-97345500D01*
X136156440Y-95948500D01*
X136112162Y-95713183D01*
X135973090Y-95497059D01*
X135826500Y-95396898D01*
X135826500Y-92688779D01*
X135960441Y-92602590D01*
X136105431Y-92390390D01*
X136156440Y-92138500D01*
X136156440Y-90741500D01*
X136112162Y-90506183D01*
X135973090Y-90290059D01*
X135760890Y-90145069D01*
X135509000Y-90094060D01*
X134620000Y-90094060D01*
X134384683Y-90138338D01*
X134168559Y-90277410D01*
X134112626Y-90359270D01*
X134068090Y-90290059D01*
X133855890Y-90145069D01*
X133604000Y-90094060D01*
X132715000Y-90094060D01*
X132479683Y-90138338D01*
X132351695Y-90220696D01*
X132290090Y-90124959D01*
X132077890Y-89979969D01*
X131826000Y-89928960D01*
X129794000Y-89928960D01*
X129558683Y-89973238D01*
X129342559Y-90112310D01*
X129197569Y-90324510D01*
X129146560Y-90576400D01*
X129146560Y-92303600D01*
X129190838Y-92538917D01*
X129329910Y-92755041D01*
X129542110Y-92900031D01*
X129583439Y-92908400D01*
X129565585Y-92920330D01*
X129240729Y-93406511D01*
X129126655Y-93980000D01*
X128980000Y-93980000D01*
X128980000Y-90239930D01*
X129035478Y-89961021D01*
X129153856Y-89783855D01*
X129331019Y-89665479D01*
X129609931Y-89610000D01*
X157410070Y-89610000D01*
X157688979Y-89665478D01*
X157688979Y-89665478D01*
G37*
X157688979Y-89665478D02*
X157866145Y-89783856D01*
X157984521Y-89961019D01*
X158040000Y-90239931D01*
X158040000Y-116008069D01*
X157984521Y-116286981D01*
X157866145Y-116464144D01*
X157688979Y-116582522D01*
X157410070Y-116638000D01*
X129609931Y-116638000D01*
X129331019Y-116582521D01*
X129153856Y-116464145D01*
X129035478Y-116286979D01*
X128980000Y-116008070D01*
X128980000Y-113284000D01*
X129146560Y-113284000D01*
X129146560Y-115316000D01*
X129190838Y-115551317D01*
X129329910Y-115767441D01*
X129542110Y-115912431D01*
X129794000Y-115963440D01*
X131826000Y-115963440D01*
X132061317Y-115919162D01*
X132277441Y-115780090D01*
X132422431Y-115567890D01*
X132473440Y-115316000D01*
X132473440Y-114488250D01*
X134666500Y-114488250D01*
X134666500Y-114773309D01*
X134763173Y-115006698D01*
X134941801Y-115185327D01*
X135175190Y-115282000D01*
X135714250Y-115282000D01*
X135873000Y-115123250D01*
X135873000Y-114329500D01*
X134825250Y-114329500D01*
X134666500Y-114488250D01*
X132473440Y-114488250D01*
X132473440Y-113284000D01*
X132429162Y-113048683D01*
X132290090Y-112832559D01*
X132108639Y-112708579D01*
X132160732Y-112662036D01*
X132414709Y-112134791D01*
X132417358Y-112119026D01*
X132296217Y-111887000D01*
X130937000Y-111887000D01*
X130937000Y-111907000D01*
X130683000Y-111907000D01*
X130683000Y-111887000D01*
X129323783Y-111887000D01*
X129202642Y-112119026D01*
X129205291Y-112134791D01*
X129459268Y-112662036D01*
X129513124Y-112710154D01*
X129342559Y-112819910D01*
X129197569Y-113032110D01*
X129146560Y-113284000D01*
X128980000Y-113284000D01*
X128980000Y-93980000D01*
X129126655Y-93980000D01*
X129240729Y-94553489D01*
X129565585Y-95039670D01*
X129880366Y-95250000D01*
X129565585Y-95460330D01*
X129240729Y-95946511D01*
X129126655Y-96520000D01*
X129240729Y-97093489D01*
X129565585Y-97579670D01*
X129880366Y-97790000D01*
X129565585Y-98000330D01*
X129240729Y-98486511D01*
X129126655Y-99060000D01*
X129240729Y-99633489D01*
X129565585Y-100119670D01*
X129880366Y-100330000D01*
X129565585Y-100540330D01*
X129240729Y-101026511D01*
X129126655Y-101600000D01*
X129240729Y-102173489D01*
X129565585Y-102659670D01*
X129880366Y-102870000D01*
X129565585Y-103080330D01*
X129240729Y-103566511D01*
X129126655Y-104140000D01*
X129240729Y-104713489D01*
X129565585Y-105199670D01*
X129880366Y-105410000D01*
X129565585Y-105620330D01*
X129240729Y-106106511D01*
X129126655Y-106680000D01*
X129240729Y-107253489D01*
X129565585Y-107739670D01*
X129880366Y-107950000D01*
X129565585Y-108160330D01*
X129240729Y-108646511D01*
X129126655Y-109220000D01*
X129240729Y-109793489D01*
X129565585Y-110279670D01*
X129875069Y-110486461D01*
X129459268Y-110857964D01*
X129205291Y-111385209D01*
X129202642Y-111400974D01*
X129323783Y-111633000D01*
X130683000Y-111633000D01*
X130683000Y-111613000D01*
X130937000Y-111613000D01*
X130937000Y-111633000D01*
X132296217Y-111633000D01*
X132417358Y-111400974D01*
X132414709Y-111385209D01*
X132160732Y-110857964D01*
X131744931Y-110486461D01*
X132054415Y-110279670D01*
X132379271Y-109793489D01*
X132456683Y-109404313D01*
X134696381Y-111644012D01*
X134654060Y-111853000D01*
X134654060Y-112742000D01*
X134698338Y-112977317D01*
X134837410Y-113193441D01*
X134915011Y-113246463D01*
X134763173Y-113398302D01*
X134666500Y-113631691D01*
X134666500Y-113916750D01*
X134825250Y-114075500D01*
X135873000Y-114075500D01*
X135873000Y-114055500D01*
X136127000Y-114055500D01*
X136127000Y-114075500D01*
X136147000Y-114075500D01*
X136147000Y-114329500D01*
X136127000Y-114329500D01*
X136127000Y-115123250D01*
X136285750Y-115282000D01*
X136824810Y-115282000D01*
X137058199Y-115185327D01*
X137236827Y-115006698D01*
X137253211Y-114967143D01*
X137387311Y-115291689D01*
X137690714Y-115595622D01*
X138087332Y-115760313D01*
X138516784Y-115760687D01*
X138913689Y-115596689D01*
X139217622Y-115293286D01*
X139382313Y-114896668D01*
X139382442Y-114749010D01*
X139820781Y-114365463D01*
X139836449Y-114345092D01*
X139857815Y-114330815D01*
X139926579Y-114227902D01*
X140002040Y-114129787D01*
X140008719Y-114104972D01*
X140022996Y-114083605D01*
X140047144Y-113962206D01*
X140079312Y-113842687D01*
X140075986Y-113817205D01*
X140081000Y-113792000D01*
X140081000Y-112036661D01*
X147192758Y-112036661D01*
X147404990Y-112550303D01*
X147797630Y-112943629D01*
X148005512Y-113029949D01*
X147799697Y-113114990D01*
X147406371Y-113507630D01*
X147193243Y-114020900D01*
X147192758Y-114576661D01*
X147404990Y-115090303D01*
X147797630Y-115483629D01*
X148310900Y-115696757D01*
X148866661Y-115697242D01*
X149380303Y-115485010D01*
X149773629Y-115092370D01*
X149859949Y-114884488D01*
X149944990Y-115090303D01*
X150337630Y-115483629D01*
X150850900Y-115696757D01*
X151406661Y-115697242D01*
X151920303Y-115485010D01*
X152313629Y-115092370D01*
X152399949Y-114884488D01*
X152484990Y-115090303D01*
X152877630Y-115483629D01*
X153390900Y-115696757D01*
X153946661Y-115697242D01*
X154460303Y-115485010D01*
X154853629Y-115092370D01*
X155066757Y-114579100D01*
X155067242Y-114023339D01*
X154855010Y-113509697D01*
X154462370Y-113116371D01*
X154254488Y-113030051D01*
X154460303Y-112945010D01*
X154853629Y-112552370D01*
X155066757Y-112039100D01*
X155067242Y-111483339D01*
X154855010Y-110969697D01*
X154462370Y-110576371D01*
X153949100Y-110363243D01*
X153393339Y-110362758D01*
X152879697Y-110574990D01*
X152486371Y-110967630D01*
X152400051Y-111175512D01*
X152315010Y-110969697D01*
X151922370Y-110576371D01*
X151409100Y-110363243D01*
X150853339Y-110362758D01*
X150339697Y-110574990D01*
X149946371Y-110967630D01*
X149860051Y-111175512D01*
X149775010Y-110969697D01*
X149382370Y-110576371D01*
X148869100Y-110363243D01*
X148313339Y-110362758D01*
X147799697Y-110574990D01*
X147406371Y-110967630D01*
X147193243Y-111480900D01*
X147192758Y-112036661D01*
X140081000Y-112036661D01*
X140081000Y-111633000D01*
X140022996Y-111341395D01*
X139966317Y-111256569D01*
X139857815Y-111094184D01*
X139605164Y-110841534D01*
X139725622Y-110721286D01*
X139890313Y-110324668D01*
X139890687Y-109895216D01*
X139729763Y-109505750D01*
X154559000Y-109505750D01*
X154559000Y-110209910D01*
X154655673Y-110443299D01*
X154834302Y-110621927D01*
X155067691Y-110718600D01*
X155924250Y-110718600D01*
X156083000Y-110559850D01*
X156083000Y-109347000D01*
X156337000Y-109347000D01*
X156337000Y-110559850D01*
X156495750Y-110718600D01*
X157352309Y-110718600D01*
X157585698Y-110621927D01*
X157764327Y-110443299D01*
X157861000Y-110209910D01*
X157861000Y-109505750D01*
X157702250Y-109347000D01*
X156337000Y-109347000D01*
X156083000Y-109347000D01*
X154717750Y-109347000D01*
X154559000Y-109505750D01*
X139729763Y-109505750D01*
X139726689Y-109498311D01*
X139423286Y-109194378D01*
X139026668Y-109029687D01*
X138597216Y-109029313D01*
X138200311Y-109193311D01*
X138046354Y-109347000D01*
X137475630Y-109347000D01*
X136015018Y-107886388D01*
X136357784Y-107886687D01*
X136754689Y-107722689D01*
X136781425Y-107696000D01*
X136956320Y-107696000D01*
X137101110Y-107794931D01*
X137353000Y-107845940D01*
X138242000Y-107845940D01*
X138477317Y-107801662D01*
X138693441Y-107662590D01*
X138746463Y-107584989D01*
X138898302Y-107736827D01*
X139131691Y-107833500D01*
X139416750Y-107833500D01*
X139575500Y-107674750D01*
X139575500Y-106627000D01*
X139829500Y-106627000D01*
X139829500Y-107674750D01*
X139988250Y-107833500D01*
X140273309Y-107833500D01*
X140506698Y-107736827D01*
X140685327Y-107558199D01*
X140782000Y-107324810D01*
X140782000Y-107035750D01*
X150718000Y-107035750D01*
X150718000Y-107574810D01*
X150814673Y-107808199D01*
X150993302Y-107986827D01*
X151226691Y-108083500D01*
X151511750Y-108083500D01*
X151670500Y-107924750D01*
X151670500Y-106877000D01*
X150876750Y-106877000D01*
X150718000Y-107035750D01*
X140782000Y-107035750D01*
X140782000Y-106785750D01*
X140623250Y-106627000D01*
X139829500Y-106627000D01*
X139575500Y-106627000D01*
X139555500Y-106627000D01*
X139555500Y-106373000D01*
X139575500Y-106373000D01*
X139575500Y-105325250D01*
X139829500Y-105325250D01*
X139829500Y-106373000D01*
X140623250Y-106373000D01*
X140782000Y-106214250D01*
X140782000Y-105925190D01*
X150718000Y-105925190D01*
X150718000Y-106464250D01*
X150876750Y-106623000D01*
X151670500Y-106623000D01*
X151670500Y-105575250D01*
X151924500Y-105575250D01*
X151924500Y-106623000D01*
X151944500Y-106623000D01*
X151944500Y-106877000D01*
X151924500Y-106877000D01*
X151924500Y-107924750D01*
X152083250Y-108083500D01*
X152368309Y-108083500D01*
X152601698Y-107986827D01*
X152752671Y-107835854D01*
X152793910Y-107899941D01*
X153006110Y-108044931D01*
X153258000Y-108095940D01*
X154147000Y-108095940D01*
X154382317Y-108051662D01*
X154598441Y-107912590D01*
X154743431Y-107700390D01*
X154788996Y-107475385D01*
X154965585Y-107739670D01*
X154987780Y-107754500D01*
X154834302Y-107818073D01*
X154655673Y-107996701D01*
X154559000Y-108230090D01*
X154559000Y-108934250D01*
X154717750Y-109093000D01*
X156083000Y-109093000D01*
X156083000Y-109073000D01*
X156337000Y-109073000D01*
X156337000Y-109093000D01*
X157702250Y-109093000D01*
X157861000Y-108934250D01*
X157861000Y-108230090D01*
X157764327Y-107996701D01*
X157585698Y-107818073D01*
X157432220Y-107754500D01*
X157454415Y-107739670D01*
X157779271Y-107253489D01*
X157893345Y-106680000D01*
X157779271Y-106106511D01*
X157454415Y-105620330D01*
X157139634Y-105410000D01*
X157454415Y-105199670D01*
X157779271Y-104713489D01*
X157893345Y-104140000D01*
X157779271Y-103566511D01*
X157454415Y-103080330D01*
X157139634Y-102870000D01*
X157454415Y-102659670D01*
X157779271Y-102173489D01*
X157893345Y-101600000D01*
X157779271Y-101026511D01*
X157454415Y-100540330D01*
X157139634Y-100330000D01*
X157454415Y-100119670D01*
X157779271Y-99633489D01*
X157893345Y-99060000D01*
X157779271Y-98486511D01*
X157454415Y-98000330D01*
X157139634Y-97790000D01*
X157454415Y-97579670D01*
X157779271Y-97093489D01*
X157893345Y-96520000D01*
X157779271Y-95946511D01*
X157454415Y-95460330D01*
X157139634Y-95250000D01*
X157454415Y-95039670D01*
X157779271Y-94553489D01*
X157893345Y-93980000D01*
X157779271Y-93406511D01*
X157454415Y-92920330D01*
X157139634Y-92710000D01*
X157454415Y-92499670D01*
X157779271Y-92013489D01*
X157893345Y-91440000D01*
X157779271Y-90866511D01*
X157454415Y-90380330D01*
X156968234Y-90055474D01*
X156394745Y-89941400D01*
X156025255Y-89941400D01*
X155451766Y-90055474D01*
X154965585Y-90380330D01*
X154640729Y-90866511D01*
X154526655Y-91440000D01*
X154640729Y-92013489D01*
X154965585Y-92499670D01*
X155280366Y-92710000D01*
X154965585Y-92920330D01*
X154640729Y-93406511D01*
X154526655Y-93980000D01*
X154640729Y-94553489D01*
X154965585Y-95039670D01*
X155280366Y-95250000D01*
X154965585Y-95460330D01*
X154640729Y-95946511D01*
X154526655Y-96520000D01*
X154640729Y-97093489D01*
X154965585Y-97579670D01*
X155280366Y-97790000D01*
X154965585Y-98000330D01*
X154640729Y-98486511D01*
X154526655Y-99060000D01*
X154640729Y-99633489D01*
X154965585Y-100119670D01*
X155280366Y-100330000D01*
X154965585Y-100540330D01*
X154640729Y-101026511D01*
X154526655Y-101600000D01*
X154640729Y-102173489D01*
X154965585Y-102659670D01*
X155280366Y-102870000D01*
X154965585Y-103080330D01*
X154640729Y-103566511D01*
X154526655Y-104140000D01*
X154640729Y-104713489D01*
X154965585Y-105199670D01*
X155280366Y-105410000D01*
X154965585Y-105620330D01*
X154768742Y-105914926D01*
X154750162Y-105816183D01*
X154611090Y-105600059D01*
X154398890Y-105455069D01*
X154147000Y-105404060D01*
X153258000Y-105404060D01*
X153022683Y-105448338D01*
X152806559Y-105587410D01*
X152753537Y-105665011D01*
X152601698Y-105513173D01*
X152368309Y-105416500D01*
X152083250Y-105416500D01*
X151924500Y-105575250D01*
X151670500Y-105575250D01*
X151511750Y-105416500D01*
X151226691Y-105416500D01*
X150993302Y-105513173D01*
X150814673Y-105691801D01*
X150718000Y-105925190D01*
X140782000Y-105925190D01*
X140782000Y-105675190D01*
X140685327Y-105441801D01*
X140506698Y-105263173D01*
X140273309Y-105166500D01*
X139988250Y-105166500D01*
X139829500Y-105325250D01*
X139575500Y-105325250D01*
X139416750Y-105166500D01*
X139131691Y-105166500D01*
X138898302Y-105263173D01*
X138747329Y-105414146D01*
X138706090Y-105350059D01*
X138493890Y-105205069D01*
X138242000Y-105154060D01*
X137353000Y-105154060D01*
X137117683Y-105198338D01*
X136901559Y-105337410D01*
X136756569Y-105549610D01*
X136705560Y-105801500D01*
X136705560Y-105871315D01*
X136359668Y-105727687D01*
X136142128Y-105727498D01*
X135889725Y-105475095D01*
X135960441Y-105429590D01*
X136105431Y-105217390D01*
X136156440Y-104965500D01*
X136156440Y-103568500D01*
X136112162Y-103333183D01*
X135973090Y-103117059D01*
X135826500Y-103016898D01*
X135826500Y-102848779D01*
X135960441Y-102762590D01*
X136105431Y-102550390D01*
X136156440Y-102298500D01*
X136156440Y-100901500D01*
X136112162Y-100666183D01*
X135973090Y-100450059D01*
X135826500Y-100349898D01*
X135826500Y-97895779D01*
X135960441Y-97809590D01*
X136105431Y-97597390D01*
X136156440Y-97345500D01*
X136156440Y-95948500D01*
X136112162Y-95713183D01*
X135973090Y-95497059D01*
X135826500Y-95396898D01*
X135826500Y-92688779D01*
X135960441Y-92602590D01*
X136105431Y-92390390D01*
X136156440Y-92138500D01*
X136156440Y-90741500D01*
X136112162Y-90506183D01*
X135973090Y-90290059D01*
X135760890Y-90145069D01*
X135509000Y-90094060D01*
X134620000Y-90094060D01*
X134384683Y-90138338D01*
X134168559Y-90277410D01*
X134112626Y-90359270D01*
X134068090Y-90290059D01*
X133855890Y-90145069D01*
X133604000Y-90094060D01*
X132715000Y-90094060D01*
X132479683Y-90138338D01*
X132351695Y-90220696D01*
X132290090Y-90124959D01*
X132077890Y-89979969D01*
X131826000Y-89928960D01*
X129794000Y-89928960D01*
X129558683Y-89973238D01*
X129342559Y-90112310D01*
X129197569Y-90324510D01*
X129146560Y-90576400D01*
X129146560Y-92303600D01*
X129190838Y-92538917D01*
X129329910Y-92755041D01*
X129542110Y-92900031D01*
X129583439Y-92908400D01*
X129565585Y-92920330D01*
X129240729Y-93406511D01*
X129126655Y-93980000D01*
X128980000Y-93980000D01*
X128980000Y-90239930D01*
X129035478Y-89961021D01*
X129153856Y-89783855D01*
X129331019Y-89665479D01*
X129609931Y-89610000D01*
X157410070Y-89610000D01*
X157688979Y-89665478D01*
M02*
