G04 #@! TF.FileFunction,Legend,Top*
%FSLAX46Y46*%
G04 Gerber Fmt 4.6, Leading zero omitted, Abs format (unit mm)*
G04 Created by KiCad (PCBNEW 4.0.1-stable) date 2/6/2016 4:43:16 PM*
%MOMM*%
G01*
G04 APERTURE LIST*
%ADD10C,0.100000*%
%ADD11C,0.152400*%
%ADD12C,0.150000*%
%ADD13C,0.300000*%
%ADD14C,0.109220*%
%ADD15C,0.203200*%
G04 APERTURE END LIST*
D10*
D11*
X143985143Y-108623838D02*
X143888381Y-108672219D01*
X143694858Y-108672219D01*
X143598096Y-108623838D01*
X143549715Y-108527076D01*
X143549715Y-108140029D01*
X143598096Y-108043267D01*
X143694858Y-107994886D01*
X143888381Y-107994886D01*
X143985143Y-108043267D01*
X144033524Y-108140029D01*
X144033524Y-108236790D01*
X143549715Y-108333552D01*
X144420572Y-108623838D02*
X144517334Y-108672219D01*
X144710858Y-108672219D01*
X144807619Y-108623838D01*
X144856000Y-108527076D01*
X144856000Y-108478695D01*
X144807619Y-108381933D01*
X144710858Y-108333552D01*
X144565715Y-108333552D01*
X144468953Y-108285171D01*
X144420572Y-108188410D01*
X144420572Y-108140029D01*
X144468953Y-108043267D01*
X144565715Y-107994886D01*
X144710858Y-107994886D01*
X144807619Y-108043267D01*
X145291429Y-107994886D02*
X145291429Y-109010886D01*
X145291429Y-108043267D02*
X145388191Y-107994886D01*
X145581714Y-107994886D01*
X145678476Y-108043267D01*
X145726857Y-108091648D01*
X145775238Y-108188410D01*
X145775238Y-108478695D01*
X145726857Y-108575457D01*
X145678476Y-108623838D01*
X145581714Y-108672219D01*
X145388191Y-108672219D01*
X145291429Y-108623838D01*
X146355810Y-108091648D02*
X146259048Y-108043267D01*
X146210667Y-107994886D01*
X146162286Y-107898124D01*
X146162286Y-107849743D01*
X146210667Y-107752981D01*
X146259048Y-107704600D01*
X146355810Y-107656219D01*
X146549333Y-107656219D01*
X146646095Y-107704600D01*
X146694476Y-107752981D01*
X146742857Y-107849743D01*
X146742857Y-107898124D01*
X146694476Y-107994886D01*
X146646095Y-108043267D01*
X146549333Y-108091648D01*
X146355810Y-108091648D01*
X146259048Y-108140029D01*
X146210667Y-108188410D01*
X146162286Y-108285171D01*
X146162286Y-108478695D01*
X146210667Y-108575457D01*
X146259048Y-108623838D01*
X146355810Y-108672219D01*
X146549333Y-108672219D01*
X146646095Y-108623838D01*
X146694476Y-108575457D01*
X146742857Y-108478695D01*
X146742857Y-108285171D01*
X146694476Y-108188410D01*
X146646095Y-108140029D01*
X146549333Y-108091648D01*
X147129905Y-107752981D02*
X147178286Y-107704600D01*
X147275048Y-107656219D01*
X147516952Y-107656219D01*
X147613714Y-107704600D01*
X147662095Y-107752981D01*
X147710476Y-107849743D01*
X147710476Y-107946505D01*
X147662095Y-108091648D01*
X147081524Y-108672219D01*
X147710476Y-108672219D01*
X148581333Y-107656219D02*
X148387810Y-107656219D01*
X148291048Y-107704600D01*
X148242667Y-107752981D01*
X148145905Y-107898124D01*
X148097524Y-108091648D01*
X148097524Y-108478695D01*
X148145905Y-108575457D01*
X148194286Y-108623838D01*
X148291048Y-108672219D01*
X148484571Y-108672219D01*
X148581333Y-108623838D01*
X148629714Y-108575457D01*
X148678095Y-108478695D01*
X148678095Y-108236790D01*
X148629714Y-108140029D01*
X148581333Y-108091648D01*
X148484571Y-108043267D01*
X148291048Y-108043267D01*
X148194286Y-108091648D01*
X148145905Y-108140029D01*
X148097524Y-108236790D01*
X149548952Y-107656219D02*
X149355429Y-107656219D01*
X149258667Y-107704600D01*
X149210286Y-107752981D01*
X149113524Y-107898124D01*
X149065143Y-108091648D01*
X149065143Y-108478695D01*
X149113524Y-108575457D01*
X149161905Y-108623838D01*
X149258667Y-108672219D01*
X149452190Y-108672219D01*
X149548952Y-108623838D01*
X149597333Y-108575457D01*
X149645714Y-108478695D01*
X149645714Y-108236790D01*
X149597333Y-108140029D01*
X149548952Y-108091648D01*
X149452190Y-108043267D01*
X149258667Y-108043267D01*
X149161905Y-108091648D01*
X149113524Y-108140029D01*
X149065143Y-108236790D01*
X150081143Y-108285171D02*
X150855238Y-108285171D01*
X151339048Y-107994886D02*
X151339048Y-108865743D01*
X151290667Y-108962505D01*
X151193905Y-109010886D01*
X151145524Y-109010886D01*
X151339048Y-107656219D02*
X151290667Y-107704600D01*
X151339048Y-107752981D01*
X151387429Y-107704600D01*
X151339048Y-107656219D01*
X151339048Y-107752981D01*
X151677715Y-107994886D02*
X152064763Y-107994886D01*
X151822858Y-107656219D02*
X151822858Y-108527076D01*
X151871239Y-108623838D01*
X151968001Y-108672219D01*
X152064763Y-108672219D01*
X152838857Y-108672219D02*
X152838857Y-108140029D01*
X152790476Y-108043267D01*
X152693714Y-107994886D01*
X152500191Y-107994886D01*
X152403429Y-108043267D01*
X152838857Y-108623838D02*
X152742095Y-108672219D01*
X152500191Y-108672219D01*
X152403429Y-108623838D01*
X152355048Y-108527076D01*
X152355048Y-108430314D01*
X152403429Y-108333552D01*
X152500191Y-108285171D01*
X152742095Y-108285171D01*
X152838857Y-108236790D01*
X153758095Y-107994886D02*
X153758095Y-108817362D01*
X153709714Y-108914124D01*
X153661333Y-108962505D01*
X153564572Y-109010886D01*
X153419429Y-109010886D01*
X153322667Y-108962505D01*
X153758095Y-108623838D02*
X153661333Y-108672219D01*
X153467810Y-108672219D01*
X153371048Y-108623838D01*
X153322667Y-108575457D01*
X153274286Y-108478695D01*
X153274286Y-108188410D01*
X153322667Y-108091648D01*
X153371048Y-108043267D01*
X153467810Y-107994886D01*
X153661333Y-107994886D01*
X153758095Y-108043267D01*
X143936762Y-109569686D02*
X143936762Y-110585686D01*
X143936762Y-109618067D02*
X144033524Y-109569686D01*
X144227047Y-109569686D01*
X144323809Y-109618067D01*
X144372190Y-109666448D01*
X144420571Y-109763210D01*
X144420571Y-110053495D01*
X144372190Y-110150257D01*
X144323809Y-110198638D01*
X144227047Y-110247019D01*
X144033524Y-110247019D01*
X143936762Y-110198638D01*
X144856000Y-109569686D02*
X144856000Y-110585686D01*
X144856000Y-109618067D02*
X144952762Y-109569686D01*
X145146285Y-109569686D01*
X145243047Y-109618067D01*
X145291428Y-109666448D01*
X145339809Y-109763210D01*
X145339809Y-110053495D01*
X145291428Y-110150257D01*
X145243047Y-110198638D01*
X145146285Y-110247019D01*
X144952762Y-110247019D01*
X144856000Y-110198638D01*
X146404190Y-109763210D02*
X146355809Y-109714829D01*
X146259047Y-109666448D01*
X146162285Y-109666448D01*
X146065523Y-109714829D01*
X146017143Y-109763210D01*
X145968762Y-109859971D01*
X145968762Y-109956733D01*
X146017143Y-110053495D01*
X146065523Y-110101876D01*
X146162285Y-110150257D01*
X146259047Y-110150257D01*
X146355809Y-110101876D01*
X146404190Y-110053495D01*
X146404190Y-109666448D02*
X146404190Y-110053495D01*
X146452571Y-110101876D01*
X146500952Y-110101876D01*
X146597714Y-110053495D01*
X146646095Y-109956733D01*
X146646095Y-109714829D01*
X146549333Y-109569686D01*
X146404190Y-109472924D01*
X146210666Y-109424543D01*
X146017143Y-109472924D01*
X145872000Y-109569686D01*
X145775238Y-109714829D01*
X145726857Y-109908352D01*
X145775238Y-110101876D01*
X145872000Y-110247019D01*
X146017143Y-110343781D01*
X146210666Y-110392162D01*
X146404190Y-110343781D01*
X146549333Y-110247019D01*
X147081524Y-110247019D02*
X147081524Y-109569686D01*
X147081524Y-109666448D02*
X147129905Y-109618067D01*
X147226667Y-109569686D01*
X147371809Y-109569686D01*
X147468571Y-109618067D01*
X147516952Y-109714829D01*
X147516952Y-110247019D01*
X147516952Y-109714829D02*
X147565333Y-109618067D01*
X147662095Y-109569686D01*
X147807238Y-109569686D01*
X147904000Y-109618067D01*
X147952381Y-109714829D01*
X147952381Y-110247019D01*
X148339429Y-109569686D02*
X148581334Y-110247019D01*
X148823238Y-109569686D02*
X148581334Y-110247019D01*
X148484572Y-110488924D01*
X148436191Y-110537305D01*
X148339429Y-110585686D01*
X149597333Y-110198638D02*
X149500571Y-110247019D01*
X149307048Y-110247019D01*
X149210286Y-110198638D01*
X149161905Y-110101876D01*
X149161905Y-109714829D01*
X149210286Y-109618067D01*
X149307048Y-109569686D01*
X149500571Y-109569686D01*
X149597333Y-109618067D01*
X149645714Y-109714829D01*
X149645714Y-109811590D01*
X149161905Y-109908352D01*
X150226286Y-110247019D02*
X150129524Y-110198638D01*
X150081143Y-110101876D01*
X150081143Y-109231019D01*
X150613333Y-110247019D02*
X150613333Y-109569686D01*
X150613333Y-109231019D02*
X150564952Y-109279400D01*
X150613333Y-109327781D01*
X150661714Y-109279400D01*
X150613333Y-109231019D01*
X150613333Y-109327781D01*
X151097143Y-109569686D02*
X151097143Y-110247019D01*
X151097143Y-109666448D02*
X151145524Y-109618067D01*
X151242286Y-109569686D01*
X151387428Y-109569686D01*
X151484190Y-109618067D01*
X151532571Y-109714829D01*
X151532571Y-110247019D01*
X152016381Y-110150257D02*
X152064762Y-110198638D01*
X152016381Y-110247019D01*
X151968000Y-110198638D01*
X152016381Y-110150257D01*
X152016381Y-110247019D01*
X152500191Y-109569686D02*
X152500191Y-110247019D01*
X152500191Y-109666448D02*
X152548572Y-109618067D01*
X152645334Y-109569686D01*
X152790476Y-109569686D01*
X152887238Y-109618067D01*
X152935619Y-109714829D01*
X152935619Y-110247019D01*
X153322667Y-109569686D02*
X153854857Y-109569686D01*
X153322667Y-110247019D01*
X153854857Y-110247019D01*
D12*
X151510000Y-81980000D02*
X151510000Y-105980000D01*
X151510000Y-81980000D02*
X135510000Y-81980000D01*
X135510000Y-81980000D02*
X135510000Y-105980000D01*
X135510000Y-105980000D02*
X151510000Y-105980000D01*
X132080000Y-92710000D02*
X132080000Y-110490000D01*
X132080000Y-110490000D02*
X129540000Y-110490000D01*
X129540000Y-110490000D02*
X129540000Y-92710000D01*
X132360000Y-89890000D02*
X132360000Y-91440000D01*
X132080000Y-92710000D02*
X129540000Y-92710000D01*
X129260000Y-91440000D02*
X129260000Y-89890000D01*
X129260000Y-89890000D02*
X132360000Y-89890000D01*
X154940000Y-107950000D02*
X154940000Y-90170000D01*
X154940000Y-90170000D02*
X157480000Y-90170000D01*
X157480000Y-90170000D02*
X157480000Y-107950000D01*
X154660000Y-110770000D02*
X154660000Y-109220000D01*
X154940000Y-107950000D02*
X157480000Y-107950000D01*
X157760000Y-109220000D02*
X157760000Y-110770000D01*
X157760000Y-110770000D02*
X154660000Y-110770000D01*
D13*
X137495000Y-111511000D02*
X137495000Y-110011000D01*
X134195000Y-111511000D02*
X134195000Y-110011000D01*
X134195000Y-110011000D02*
X137495000Y-110011000D01*
D12*
X136271000Y-110871000D02*
X135890000Y-110617000D01*
X135890000Y-110617000D02*
X135890000Y-110998000D01*
X135890000Y-110998000D02*
X135890000Y-111125000D01*
X135890000Y-111125000D02*
X136271000Y-110871000D01*
X149860000Y-113030000D02*
X147320000Y-113030000D01*
X147320000Y-113030000D02*
X147320000Y-115570000D01*
X147320000Y-115570000D02*
X149860000Y-115570000D01*
X149860000Y-115570000D02*
X149860000Y-113030000D01*
X129540000Y-113030000D02*
X129540000Y-110490000D01*
X129260000Y-115850000D02*
X129260000Y-114300000D01*
X129540000Y-113030000D02*
X132080000Y-113030000D01*
X132360000Y-114300000D02*
X132360000Y-115850000D01*
X132360000Y-115850000D02*
X129260000Y-115850000D01*
X132080000Y-113030000D02*
X132080000Y-110490000D01*
X132080000Y-110490000D02*
X129540000Y-110490000D01*
X142748095Y-94702381D02*
X142748095Y-95511905D01*
X142795714Y-95607143D01*
X142843333Y-95654762D01*
X142938571Y-95702381D01*
X143129048Y-95702381D01*
X143224286Y-95654762D01*
X143271905Y-95607143D01*
X143319524Y-95511905D01*
X143319524Y-94702381D01*
X144319524Y-95702381D02*
X143748095Y-95702381D01*
X144033809Y-95702381D02*
X144033809Y-94702381D01*
X143938571Y-94845238D01*
X143843333Y-94940476D01*
X143748095Y-94988095D01*
X140295714Y-98353571D02*
X140629048Y-98353571D01*
X140771905Y-98877381D02*
X140295714Y-98877381D01*
X140295714Y-97877381D01*
X140771905Y-97877381D01*
X141152857Y-98829762D02*
X141295714Y-98877381D01*
X141533810Y-98877381D01*
X141629048Y-98829762D01*
X141676667Y-98782143D01*
X141724286Y-98686905D01*
X141724286Y-98591667D01*
X141676667Y-98496429D01*
X141629048Y-98448810D01*
X141533810Y-98401190D01*
X141343333Y-98353571D01*
X141248095Y-98305952D01*
X141200476Y-98258333D01*
X141152857Y-98163095D01*
X141152857Y-98067857D01*
X141200476Y-97972619D01*
X141248095Y-97925000D01*
X141343333Y-97877381D01*
X141581429Y-97877381D01*
X141724286Y-97925000D01*
X142152857Y-98877381D02*
X142152857Y-97877381D01*
X142533810Y-97877381D01*
X142629048Y-97925000D01*
X142676667Y-97972619D01*
X142724286Y-98067857D01*
X142724286Y-98210714D01*
X142676667Y-98305952D01*
X142629048Y-98353571D01*
X142533810Y-98401190D01*
X142152857Y-98401190D01*
X143152857Y-98496429D02*
X143914762Y-98496429D01*
X144914762Y-98877381D02*
X144343333Y-98877381D01*
X144629047Y-98877381D02*
X144629047Y-97877381D01*
X144533809Y-98020238D01*
X144438571Y-98115476D01*
X144343333Y-98163095D01*
X145295714Y-97972619D02*
X145343333Y-97925000D01*
X145438571Y-97877381D01*
X145676667Y-97877381D01*
X145771905Y-97925000D01*
X145819524Y-97972619D01*
X145867143Y-98067857D01*
X145867143Y-98163095D01*
X145819524Y-98305952D01*
X145248095Y-98877381D01*
X145867143Y-98877381D01*
X146295714Y-98353571D02*
X146629048Y-98353571D01*
X146771905Y-98877381D02*
X146295714Y-98877381D01*
X146295714Y-97877381D01*
X146771905Y-97877381D01*
D14*
X133690052Y-107476362D02*
X133404120Y-107476362D01*
X133547086Y-107476362D02*
X133547086Y-106975982D01*
X133499431Y-107047465D01*
X133451776Y-107095120D01*
X133404120Y-107118948D01*
X133999811Y-106975982D02*
X134047466Y-106975982D01*
X134095121Y-106999810D01*
X134118949Y-107023638D01*
X134142776Y-107071293D01*
X134166604Y-107166603D01*
X134166604Y-107285741D01*
X134142776Y-107381052D01*
X134118949Y-107428707D01*
X134095121Y-107452535D01*
X134047466Y-107476362D01*
X133999811Y-107476362D01*
X133952155Y-107452535D01*
X133928328Y-107428707D01*
X133904500Y-107381052D01*
X133880672Y-107285741D01*
X133880672Y-107166603D01*
X133904500Y-107071293D01*
X133928328Y-107023638D01*
X133952155Y-106999810D01*
X133999811Y-106975982D01*
X134476363Y-106975982D02*
X134524018Y-106975982D01*
X134571673Y-106999810D01*
X134595501Y-107023638D01*
X134619328Y-107071293D01*
X134643156Y-107166603D01*
X134643156Y-107285741D01*
X134619328Y-107381052D01*
X134595501Y-107428707D01*
X134571673Y-107452535D01*
X134524018Y-107476362D01*
X134476363Y-107476362D01*
X134428707Y-107452535D01*
X134404880Y-107428707D01*
X134381052Y-107381052D01*
X134357224Y-107285741D01*
X134357224Y-107166603D01*
X134381052Y-107071293D01*
X134404880Y-107023638D01*
X134428707Y-106999810D01*
X134476363Y-106975982D01*
X134857604Y-107142776D02*
X134857604Y-107476362D01*
X134857604Y-107190431D02*
X134881432Y-107166603D01*
X134929087Y-107142776D01*
X135000570Y-107142776D01*
X135048225Y-107166603D01*
X135072053Y-107214259D01*
X135072053Y-107476362D01*
D15*
X142657286Y-114874523D02*
X143528143Y-114874523D01*
X143624905Y-114922904D01*
X143673286Y-115019666D01*
X143673286Y-115068047D01*
X142318619Y-114874523D02*
X142367000Y-114922904D01*
X142415381Y-114874523D01*
X142367000Y-114826142D01*
X142318619Y-114874523D01*
X142415381Y-114874523D01*
X142657286Y-114535856D02*
X142657286Y-114148808D01*
X142318619Y-114390713D02*
X143189476Y-114390713D01*
X143286238Y-114342332D01*
X143334619Y-114245570D01*
X143334619Y-114148808D01*
X143334619Y-113374714D02*
X142802429Y-113374714D01*
X142705667Y-113423095D01*
X142657286Y-113519857D01*
X142657286Y-113713380D01*
X142705667Y-113810142D01*
X143286238Y-113374714D02*
X143334619Y-113471476D01*
X143334619Y-113713380D01*
X143286238Y-113810142D01*
X143189476Y-113858523D01*
X143092714Y-113858523D01*
X142995952Y-113810142D01*
X142947571Y-113713380D01*
X142947571Y-113471476D01*
X142899190Y-113374714D01*
X142657286Y-112455476D02*
X143479762Y-112455476D01*
X143576524Y-112503857D01*
X143624905Y-112552238D01*
X143673286Y-112648999D01*
X143673286Y-112794142D01*
X143624905Y-112890904D01*
X143286238Y-112455476D02*
X143334619Y-112552238D01*
X143334619Y-112745761D01*
X143286238Y-112842523D01*
X143237857Y-112890904D01*
X143141095Y-112939285D01*
X142850810Y-112939285D01*
X142754048Y-112890904D01*
X142705667Y-112842523D01*
X142657286Y-112745761D01*
X142657286Y-112552238D01*
X142705667Y-112455476D01*
D12*
X146035714Y-115261905D02*
X146035714Y-114880953D01*
X146702381Y-115119048D02*
X145845238Y-115119048D01*
X145750000Y-115071429D01*
X145702381Y-114976191D01*
X145702381Y-114880953D01*
X146702381Y-114404762D02*
X146654762Y-114500000D01*
X146559524Y-114547619D01*
X145702381Y-114547619D01*
X146702381Y-113595237D02*
X146178571Y-113595237D01*
X146083333Y-113642856D01*
X146035714Y-113738094D01*
X146035714Y-113928571D01*
X146083333Y-114023809D01*
X146654762Y-113595237D02*
X146702381Y-113690475D01*
X146702381Y-113928571D01*
X146654762Y-114023809D01*
X146559524Y-114071428D01*
X146464286Y-114071428D01*
X146369048Y-114023809D01*
X146321429Y-113928571D01*
X146321429Y-113690475D01*
X146273810Y-113595237D01*
X146654762Y-113166666D02*
X146702381Y-113071428D01*
X146702381Y-112880952D01*
X146654762Y-112785713D01*
X146559524Y-112738094D01*
X146511905Y-112738094D01*
X146416667Y-112785713D01*
X146369048Y-112880952D01*
X146369048Y-113023809D01*
X146321429Y-113119047D01*
X146226190Y-113166666D01*
X146178571Y-113166666D01*
X146083333Y-113119047D01*
X146035714Y-113023809D01*
X146035714Y-112880952D01*
X146083333Y-112785713D01*
X146702381Y-112309523D02*
X145702381Y-112309523D01*
X146702381Y-111880951D02*
X146178571Y-111880951D01*
X146083333Y-111928570D01*
X146035714Y-112023808D01*
X146035714Y-112166666D01*
X146083333Y-112261904D01*
X146130952Y-112309523D01*
M02*
