G04 #@! TF.FileFunction,Legend,Top*
%FSLAX46Y46*%
G04 Gerber Fmt 4.6, Leading zero omitted, Abs format (unit mm)*
G04 Created by KiCad (PCBNEW 4.0.1-stable) date Sunday, April 24, 2016 'PMt' 05:46:04 PM*
%MOMM*%
G01*
G04 APERTURE LIST*
%ADD10C,0.100000*%
%ADD11C,0.300000*%
%ADD12C,0.150000*%
%ADD13C,0.203200*%
G04 APERTURE END LIST*
D10*
D11*
X161960000Y-95300000D02*
X160460000Y-95300000D01*
X161960000Y-98600000D02*
X160460000Y-98600000D01*
X160460000Y-98600000D02*
X160460000Y-95300000D01*
D12*
X157560000Y-87470000D02*
X157560000Y-84930000D01*
X160100000Y-87470000D02*
X157560000Y-87470000D01*
X160100000Y-84930000D02*
X160100000Y-87470000D01*
X157560000Y-84930000D02*
X160100000Y-84930000D01*
D13*
X159790190Y-90896319D02*
X159209619Y-90896319D01*
X159499905Y-90896319D02*
X159499905Y-89880319D01*
X159403143Y-90025462D01*
X159306381Y-90122224D01*
X159209619Y-90170605D01*
X160225619Y-90799557D02*
X160274000Y-90847938D01*
X160225619Y-90896319D01*
X160177238Y-90847938D01*
X160225619Y-90799557D01*
X160225619Y-90896319D01*
X160661048Y-89977081D02*
X160709429Y-89928700D01*
X160806191Y-89880319D01*
X161048095Y-89880319D01*
X161144857Y-89928700D01*
X161193238Y-89977081D01*
X161241619Y-90073843D01*
X161241619Y-90170605D01*
X161193238Y-90315748D01*
X160612667Y-90896319D01*
X161241619Y-90896319D01*
X161580286Y-89880319D02*
X162257619Y-89880319D01*
X161822191Y-90896319D01*
X162644667Y-90896319D02*
X162644667Y-90218986D01*
X162644667Y-90315748D02*
X162693048Y-90267367D01*
X162789810Y-90218986D01*
X162934952Y-90218986D01*
X163031714Y-90267367D01*
X163080095Y-90364129D01*
X163080095Y-90896319D01*
X163080095Y-90364129D02*
X163128476Y-90267367D01*
X163225238Y-90218986D01*
X163370381Y-90218986D01*
X163467143Y-90267367D01*
X163515524Y-90364129D01*
X163515524Y-90896319D01*
X163999334Y-90896319D02*
X163999334Y-90218986D01*
X163999334Y-90315748D02*
X164047715Y-90267367D01*
X164144477Y-90218986D01*
X164289619Y-90218986D01*
X164386381Y-90267367D01*
X164434762Y-90364129D01*
X164434762Y-90896319D01*
X164434762Y-90364129D02*
X164483143Y-90267367D01*
X164579905Y-90218986D01*
X164725048Y-90218986D01*
X164821810Y-90267367D01*
X164870191Y-90364129D01*
X164870191Y-90896319D01*
X166079715Y-89977081D02*
X166128096Y-89928700D01*
X166224858Y-89880319D01*
X166466762Y-89880319D01*
X166563524Y-89928700D01*
X166611905Y-89977081D01*
X166660286Y-90073843D01*
X166660286Y-90170605D01*
X166611905Y-90315748D01*
X166031334Y-90896319D01*
X166660286Y-90896319D01*
X166998953Y-90896319D02*
X167531143Y-90218986D01*
X166998953Y-90218986D02*
X167531143Y-90896319D01*
X168402000Y-89880319D02*
X167918191Y-89880319D01*
X167869810Y-90364129D01*
X167918191Y-90315748D01*
X168014953Y-90267367D01*
X168256857Y-90267367D01*
X168353619Y-90315748D01*
X168402000Y-90364129D01*
X168450381Y-90460890D01*
X168450381Y-90702795D01*
X168402000Y-90799557D01*
X168353619Y-90847938D01*
X168256857Y-90896319D01*
X168014953Y-90896319D01*
X167918191Y-90847938D01*
X167869810Y-90799557D01*
D12*
X160081715Y-97484381D02*
X159510286Y-97484381D01*
X159796000Y-97484381D02*
X159796000Y-96484381D01*
X159700762Y-96627238D01*
X159605524Y-96722476D01*
X159510286Y-96770095D01*
D13*
X159362381Y-88447619D02*
X159410000Y-88400000D01*
X159505238Y-88352381D01*
X159743334Y-88352381D01*
X159838572Y-88400000D01*
X159886191Y-88447619D01*
X159933810Y-88542857D01*
X159933810Y-88638095D01*
X159886191Y-88780952D01*
X159314762Y-89352381D01*
X159933810Y-89352381D01*
X160362381Y-89257143D02*
X160410000Y-89304762D01*
X160362381Y-89352381D01*
X160314762Y-89304762D01*
X160362381Y-89257143D01*
X160362381Y-89352381D01*
X161314762Y-88352381D02*
X160838571Y-88352381D01*
X160790952Y-88828571D01*
X160838571Y-88780952D01*
X160933809Y-88733333D01*
X161171905Y-88733333D01*
X161267143Y-88780952D01*
X161314762Y-88828571D01*
X161362381Y-88923810D01*
X161362381Y-89161905D01*
X161314762Y-89257143D01*
X161267143Y-89304762D01*
X161171905Y-89352381D01*
X160933809Y-89352381D01*
X160838571Y-89304762D01*
X160790952Y-89257143D01*
X162219524Y-88685714D02*
X162219524Y-89352381D01*
X161981428Y-88304762D02*
X161743333Y-89019048D01*
X162362381Y-89019048D01*
X162743333Y-89352381D02*
X162743333Y-88685714D01*
X162743333Y-88780952D02*
X162790952Y-88733333D01*
X162886190Y-88685714D01*
X163029048Y-88685714D01*
X163124286Y-88733333D01*
X163171905Y-88828571D01*
X163171905Y-89352381D01*
X163171905Y-88828571D02*
X163219524Y-88733333D01*
X163314762Y-88685714D01*
X163457619Y-88685714D01*
X163552857Y-88733333D01*
X163600476Y-88828571D01*
X163600476Y-89352381D01*
X164076666Y-89352381D02*
X164076666Y-88685714D01*
X164076666Y-88780952D02*
X164124285Y-88733333D01*
X164219523Y-88685714D01*
X164362381Y-88685714D01*
X164457619Y-88733333D01*
X164505238Y-88828571D01*
X164505238Y-89352381D01*
X164505238Y-88828571D02*
X164552857Y-88733333D01*
X164648095Y-88685714D01*
X164790952Y-88685714D01*
X164886190Y-88733333D01*
X164933809Y-88828571D01*
X164933809Y-89352381D01*
X166124285Y-88447619D02*
X166171904Y-88400000D01*
X166267142Y-88352381D01*
X166505238Y-88352381D01*
X166600476Y-88400000D01*
X166648095Y-88447619D01*
X166695714Y-88542857D01*
X166695714Y-88638095D01*
X166648095Y-88780952D01*
X166076666Y-89352381D01*
X166695714Y-89352381D01*
X167029047Y-89352381D02*
X167552857Y-88685714D01*
X167029047Y-88685714D02*
X167552857Y-89352381D01*
X168410000Y-88352381D02*
X167933809Y-88352381D01*
X167886190Y-88828571D01*
X167933809Y-88780952D01*
X168029047Y-88733333D01*
X168267143Y-88733333D01*
X168362381Y-88780952D01*
X168410000Y-88828571D01*
X168457619Y-88923810D01*
X168457619Y-89161905D01*
X168410000Y-89257143D01*
X168362381Y-89304762D01*
X168267143Y-89352381D01*
X168029047Y-89352381D01*
X167933809Y-89304762D01*
X167886190Y-89257143D01*
D12*
X157337715Y-86652381D02*
X156766286Y-86652381D01*
X157052000Y-86652381D02*
X157052000Y-85652381D01*
X156956762Y-85795238D01*
X156861524Y-85890476D01*
X156766286Y-85938095D01*
M02*
