G04 #@! TF.FileFunction,Copper,L1,Top,Signal*
%FSLAX46Y46*%
G04 Gerber Fmt 4.6, Leading zero omitted, Abs format (unit mm)*
G04 Created by KiCad (PCBNEW 4.0.1-stable) date Sunday, April 24, 2016 'PMt' 05:46:04 PM*
%MOMM*%
G01*
G04 APERTURE LIST*
%ADD10C,0.100000*%
%ADD11R,0.760000X2.400000*%
%ADD12R,1.524000X1.524000*%
%ADD13C,1.524000*%
%ADD14C,0.889000*%
%ADD15C,0.508000*%
%ADD16C,0.254000*%
G04 APERTURE END LIST*
D10*
D11*
X166400000Y-93050000D03*
X166400000Y-96950000D03*
X165130000Y-93050000D03*
X165130000Y-96950000D03*
X161320000Y-96950000D03*
X161320000Y-93050000D03*
X162590000Y-96950000D03*
X162590000Y-93050000D03*
X163860000Y-96950000D03*
X163860000Y-93050000D03*
D12*
X158830000Y-86200000D03*
D13*
X158830000Y-83660000D03*
X161370000Y-86200000D03*
X161370000Y-83660000D03*
X163910000Y-86200000D03*
X163910000Y-83660000D03*
X166450000Y-86200000D03*
X166450000Y-83660000D03*
X168990000Y-86200000D03*
X168990000Y-83660000D03*
D14*
X162260280Y-94973140D03*
X163868100Y-95001080D03*
X165491160Y-95003620D03*
X167319960Y-95013782D03*
D15*
X161320000Y-96950000D02*
X160432000Y-96950000D01*
X160432000Y-96950000D02*
X158830000Y-95348000D01*
X158830000Y-95348000D02*
X158830000Y-87470000D01*
X158830000Y-87470000D02*
X158830000Y-86200000D01*
X158830000Y-83660000D02*
X160157160Y-84987160D01*
X160157160Y-84987160D02*
X160157160Y-85608422D01*
X160157160Y-85608422D02*
X160150799Y-85614783D01*
X160150799Y-85614783D02*
X160150799Y-86785217D01*
X160150799Y-86785217D02*
X160157160Y-86791578D01*
X160157160Y-86791578D02*
X160157160Y-90179160D01*
X160157160Y-90179160D02*
X161320000Y-91342000D01*
X161320000Y-91342000D02*
X161320000Y-93050000D01*
X162321140Y-94973140D02*
X162260280Y-94973140D01*
X162590000Y-95242000D02*
X162321140Y-94973140D01*
X162590000Y-96950000D02*
X162590000Y-95242000D01*
D16*
X162590000Y-96130000D02*
X162590000Y-96950000D01*
D15*
X161370000Y-83660000D02*
X162664140Y-84954140D01*
X162664140Y-84954140D02*
X162664140Y-92975860D01*
X162664140Y-92975860D02*
X162590000Y-93050000D01*
X163860000Y-96950000D02*
X163860000Y-95009180D01*
X163860000Y-95009180D02*
X163868100Y-95001080D01*
D16*
X163890000Y-96920000D02*
X163860000Y-96950000D01*
D15*
X163910000Y-83660000D02*
X165186360Y-84936360D01*
X165186360Y-84936360D02*
X165186360Y-87632540D01*
X165186360Y-87632540D02*
X163860000Y-88958900D01*
X163860000Y-88958900D02*
X163860000Y-93050000D01*
X165130000Y-96950000D02*
X165130000Y-95242000D01*
X165368380Y-95003620D02*
X165491160Y-95003620D01*
X165130000Y-95242000D02*
X165368380Y-95003620D01*
D16*
X165130000Y-96950000D02*
X165130000Y-96130000D01*
D15*
X166450000Y-83660000D02*
X167698420Y-84908420D01*
X167698420Y-84908420D02*
X167698420Y-88036400D01*
X167698420Y-88036400D02*
X165130000Y-90604820D01*
X165130000Y-90604820D02*
X165130000Y-93050000D01*
X167319960Y-95210040D02*
X167319960Y-95013782D01*
X166400000Y-96130000D02*
X167319960Y-95210040D01*
X166400000Y-96950000D02*
X166400000Y-96130000D01*
D16*
X166430000Y-96920000D02*
X166400000Y-96950000D01*
D15*
X168990000Y-83660000D02*
X170350180Y-85020180D01*
X170350180Y-85020180D02*
X170350180Y-87729060D01*
X170350180Y-87729060D02*
X166400000Y-91679240D01*
X166400000Y-91679240D02*
X166400000Y-93050000D01*
M02*
