G04 #@! TF.FileFunction,Copper,L2,Bot,Signal*
%FSLAX46Y46*%
G04 Gerber Fmt 4.6, Leading zero omitted, Abs format (unit mm)*
G04 Created by KiCad (PCBNEW 4.0.1-stable) date Sunday, April 24, 2016 'PMt' 05:46:04 PM*
%MOMM*%
G01*
G04 APERTURE LIST*
%ADD10C,0.100000*%
%ADD11R,1.524000X1.524000*%
%ADD12C,1.524000*%
%ADD13C,0.889000*%
%ADD14C,0.508000*%
G04 APERTURE END LIST*
D10*
D11*
X158830000Y-86200000D03*
D12*
X158830000Y-83660000D03*
X161370000Y-86200000D03*
X161370000Y-83660000D03*
X163910000Y-86200000D03*
X163910000Y-83660000D03*
X166450000Y-86200000D03*
X166450000Y-83660000D03*
X168990000Y-86200000D03*
X168990000Y-83660000D03*
D13*
X162260280Y-94973140D03*
X163868100Y-95001080D03*
X165491160Y-95003620D03*
X167319960Y-95013782D03*
D14*
X161370000Y-86200000D02*
X161409380Y-86239380D01*
X161409380Y-86239380D02*
X161409380Y-94160340D01*
X162222180Y-94973140D02*
X162260280Y-94973140D01*
X161409380Y-94160340D02*
X162222180Y-94973140D01*
X163868100Y-95001080D02*
X163868100Y-86241900D01*
X163868100Y-86241900D02*
X163910000Y-86200000D01*
X166450000Y-94044780D02*
X165935659Y-94559121D01*
X166450000Y-86200000D02*
X166450000Y-94044780D01*
X165935659Y-94559121D02*
X165491160Y-95003620D01*
X168990000Y-86200000D02*
X168968420Y-86221580D01*
X168968420Y-86221580D02*
X168968420Y-93403420D01*
X168968420Y-93403420D02*
X167358058Y-95013782D01*
X167358058Y-95013782D02*
X167319960Y-95013782D01*
M02*
