G04 #@! TF.FileFunction,Legend,Bot*
%FSLAX46Y46*%
G04 Gerber Fmt 4.6, Leading zero omitted, Abs format (unit mm)*
G04 Created by KiCad (PCBNEW 4.0.1-stable) date Wednesday, March 22, 2017 'AMt' 02:40:51 AM*
%MOMM*%
G01*
G04 APERTURE LIST*
%ADD10C,0.100000*%
%ADD11C,0.300000*%
G04 APERTURE END LIST*
D10*
D11*
X163214764Y-107061429D02*
X163214764Y-109061429D01*
X163214764Y-107156667D02*
X163024287Y-107061429D01*
X162643335Y-107061429D01*
X162452859Y-107156667D01*
X162357621Y-107251905D01*
X162262383Y-107442381D01*
X162262383Y-108013810D01*
X162357621Y-108204286D01*
X162452859Y-108299524D01*
X162643335Y-108394762D01*
X163024287Y-108394762D01*
X163214764Y-108299524D01*
X161405240Y-107061429D02*
X161405240Y-109061429D01*
X161405240Y-107156667D02*
X161214763Y-107061429D01*
X160833811Y-107061429D01*
X160643335Y-107156667D01*
X160548097Y-107251905D01*
X160452859Y-107442381D01*
X160452859Y-108013810D01*
X160548097Y-108204286D01*
X160643335Y-108299524D01*
X160833811Y-108394762D01*
X161214763Y-108394762D01*
X161405240Y-108299524D01*
X158357620Y-107442381D02*
X158452858Y-107347143D01*
X158643335Y-107251905D01*
X158833811Y-107251905D01*
X159024287Y-107347143D01*
X159119525Y-107442381D01*
X159214763Y-107632857D01*
X159214763Y-107823333D01*
X159119525Y-108013810D01*
X159024287Y-108109048D01*
X158833811Y-108204286D01*
X158643335Y-108204286D01*
X158452858Y-108109048D01*
X158357620Y-108013810D01*
X158357620Y-107251905D02*
X158357620Y-108013810D01*
X158262382Y-108109048D01*
X158167144Y-108109048D01*
X157976668Y-108013810D01*
X157881430Y-107823333D01*
X157881430Y-107347143D01*
X158071906Y-107061429D01*
X158357620Y-106870952D01*
X158738573Y-106775714D01*
X159119525Y-106870952D01*
X159405239Y-107061429D01*
X159595716Y-107347143D01*
X159690954Y-107728095D01*
X159595716Y-108109048D01*
X159405239Y-108394762D01*
X159119525Y-108585238D01*
X158738573Y-108680476D01*
X158357620Y-108585238D01*
X158071906Y-108394762D01*
X157024287Y-108394762D02*
X157024287Y-107061429D01*
X157024287Y-107251905D02*
X156929048Y-107156667D01*
X156738572Y-107061429D01*
X156452858Y-107061429D01*
X156262382Y-107156667D01*
X156167144Y-107347143D01*
X156167144Y-108394762D01*
X156167144Y-107347143D02*
X156071906Y-107156667D01*
X155881429Y-107061429D01*
X155595715Y-107061429D01*
X155405239Y-107156667D01*
X155310001Y-107347143D01*
X155310001Y-108394762D01*
X154548096Y-107061429D02*
X154071905Y-108394762D01*
X153595715Y-107061429D02*
X154071905Y-108394762D01*
X154262381Y-108870952D01*
X154357620Y-108966190D01*
X154548096Y-109061429D01*
X152071905Y-108299524D02*
X152262381Y-108394762D01*
X152643333Y-108394762D01*
X152833810Y-108299524D01*
X152929048Y-108109048D01*
X152929048Y-107347143D01*
X152833810Y-107156667D01*
X152643333Y-107061429D01*
X152262381Y-107061429D01*
X152071905Y-107156667D01*
X151976667Y-107347143D01*
X151976667Y-107537619D01*
X152929048Y-107728095D01*
X150833809Y-108394762D02*
X151024285Y-108299524D01*
X151119524Y-108109048D01*
X151119524Y-106394762D01*
X150071905Y-108394762D02*
X150071905Y-107061429D01*
X150071905Y-106394762D02*
X150167143Y-106490000D01*
X150071905Y-106585238D01*
X149976666Y-106490000D01*
X150071905Y-106394762D01*
X150071905Y-106585238D01*
X149119524Y-107061429D02*
X149119524Y-108394762D01*
X149119524Y-107251905D02*
X149024285Y-107156667D01*
X148833809Y-107061429D01*
X148548095Y-107061429D01*
X148357619Y-107156667D01*
X148262381Y-107347143D01*
X148262381Y-108394762D01*
X147310000Y-108204286D02*
X147214761Y-108299524D01*
X147310000Y-108394762D01*
X147405238Y-108299524D01*
X147310000Y-108204286D01*
X147310000Y-108394762D01*
X145500476Y-108299524D02*
X145690952Y-108394762D01*
X146071904Y-108394762D01*
X146262380Y-108299524D01*
X146357619Y-108204286D01*
X146452857Y-108013810D01*
X146452857Y-107442381D01*
X146357619Y-107251905D01*
X146262380Y-107156667D01*
X146071904Y-107061429D01*
X145690952Y-107061429D01*
X145500476Y-107156667D01*
X144357618Y-108394762D02*
X144548094Y-108299524D01*
X144643333Y-108204286D01*
X144738571Y-108013810D01*
X144738571Y-107442381D01*
X144643333Y-107251905D01*
X144548094Y-107156667D01*
X144357618Y-107061429D01*
X144071904Y-107061429D01*
X143881428Y-107156667D01*
X143786190Y-107251905D01*
X143690952Y-107442381D01*
X143690952Y-108013810D01*
X143786190Y-108204286D01*
X143881428Y-108299524D01*
X144071904Y-108394762D01*
X144357618Y-108394762D01*
X142833809Y-108204286D02*
X142738570Y-108299524D01*
X142833809Y-108394762D01*
X142929047Y-108299524D01*
X142833809Y-108204286D01*
X142833809Y-108394762D01*
X141881428Y-107061429D02*
X141881428Y-108394762D01*
X141881428Y-107251905D02*
X141786189Y-107156667D01*
X141595713Y-107061429D01*
X141309999Y-107061429D01*
X141119523Y-107156667D01*
X141024285Y-107347143D01*
X141024285Y-108394762D01*
X140262380Y-107061429D02*
X139214761Y-107061429D01*
X140262380Y-108394762D01*
X139214761Y-108394762D01*
X170310001Y-114594762D02*
X170310001Y-112594762D01*
X169452858Y-114594762D02*
X169452858Y-113547143D01*
X169548096Y-113356667D01*
X169738572Y-113261429D01*
X170024286Y-113261429D01*
X170214762Y-113356667D01*
X170310001Y-113451905D01*
X168786191Y-113261429D02*
X168024286Y-113261429D01*
X168500477Y-112594762D02*
X168500477Y-114309048D01*
X168405238Y-114499524D01*
X168214762Y-114594762D01*
X168024286Y-114594762D01*
X167643334Y-113261429D02*
X166881429Y-113261429D01*
X167357620Y-112594762D02*
X167357620Y-114309048D01*
X167262381Y-114499524D01*
X167071905Y-114594762D01*
X166881429Y-114594762D01*
X166214763Y-113261429D02*
X166214763Y-115261429D01*
X166214763Y-113356667D02*
X166024286Y-113261429D01*
X165643334Y-113261429D01*
X165452858Y-113356667D01*
X165357620Y-113451905D01*
X165262382Y-113642381D01*
X165262382Y-114213810D01*
X165357620Y-114404286D01*
X165452858Y-114499524D01*
X165643334Y-114594762D01*
X166024286Y-114594762D01*
X166214763Y-114499524D01*
X164405239Y-114404286D02*
X164310000Y-114499524D01*
X164405239Y-114594762D01*
X164500477Y-114499524D01*
X164405239Y-114404286D01*
X164405239Y-114594762D01*
X164405239Y-113356667D02*
X164310000Y-113451905D01*
X164405239Y-113547143D01*
X164500477Y-113451905D01*
X164405239Y-113356667D01*
X164405239Y-113547143D01*
X162024286Y-112499524D02*
X163738572Y-115070952D01*
X159929048Y-112499524D02*
X161643334Y-115070952D01*
X159452858Y-113261429D02*
X159071905Y-114594762D01*
X158690953Y-113642381D01*
X158310001Y-114594762D01*
X157929048Y-113261429D01*
X157357620Y-113261429D02*
X156976667Y-114594762D01*
X156595715Y-113642381D01*
X156214763Y-114594762D01*
X155833810Y-113261429D01*
X155262382Y-113261429D02*
X154881429Y-114594762D01*
X154500477Y-113642381D01*
X154119525Y-114594762D01*
X153738572Y-113261429D01*
X152976668Y-114404286D02*
X152881429Y-114499524D01*
X152976668Y-114594762D01*
X153071906Y-114499524D01*
X152976668Y-114404286D01*
X152976668Y-114594762D01*
X152024287Y-114594762D02*
X152024287Y-113261429D01*
X152024287Y-113451905D02*
X151929048Y-113356667D01*
X151738572Y-113261429D01*
X151452858Y-113261429D01*
X151262382Y-113356667D01*
X151167144Y-113547143D01*
X151167144Y-114594762D01*
X151167144Y-113547143D02*
X151071906Y-113356667D01*
X150881429Y-113261429D01*
X150595715Y-113261429D01*
X150405239Y-113356667D01*
X150310001Y-113547143D01*
X150310001Y-114594762D01*
X149548096Y-113261429D02*
X149071905Y-114594762D01*
X148595715Y-113261429D02*
X149071905Y-114594762D01*
X149262381Y-115070952D01*
X149357620Y-115166190D01*
X149548096Y-115261429D01*
X147071905Y-114499524D02*
X147262381Y-114594762D01*
X147643333Y-114594762D01*
X147833810Y-114499524D01*
X147929048Y-114309048D01*
X147929048Y-113547143D01*
X147833810Y-113356667D01*
X147643333Y-113261429D01*
X147262381Y-113261429D01*
X147071905Y-113356667D01*
X146976667Y-113547143D01*
X146976667Y-113737619D01*
X147929048Y-113928095D01*
X145833809Y-114594762D02*
X146024285Y-114499524D01*
X146119524Y-114309048D01*
X146119524Y-112594762D01*
X145071905Y-114594762D02*
X145071905Y-113261429D01*
X145071905Y-112594762D02*
X145167143Y-112690000D01*
X145071905Y-112785238D01*
X144976666Y-112690000D01*
X145071905Y-112594762D01*
X145071905Y-112785238D01*
X144119524Y-113261429D02*
X144119524Y-114594762D01*
X144119524Y-113451905D02*
X144024285Y-113356667D01*
X143833809Y-113261429D01*
X143548095Y-113261429D01*
X143357619Y-113356667D01*
X143262381Y-113547143D01*
X143262381Y-114594762D01*
X142310000Y-114404286D02*
X142214761Y-114499524D01*
X142310000Y-114594762D01*
X142405238Y-114499524D01*
X142310000Y-114404286D01*
X142310000Y-114594762D01*
X140500476Y-114499524D02*
X140690952Y-114594762D01*
X141071904Y-114594762D01*
X141262380Y-114499524D01*
X141357619Y-114404286D01*
X141452857Y-114213810D01*
X141452857Y-113642381D01*
X141357619Y-113451905D01*
X141262380Y-113356667D01*
X141071904Y-113261429D01*
X140690952Y-113261429D01*
X140500476Y-113356667D01*
X139357618Y-114594762D02*
X139548094Y-114499524D01*
X139643333Y-114404286D01*
X139738571Y-114213810D01*
X139738571Y-113642381D01*
X139643333Y-113451905D01*
X139548094Y-113356667D01*
X139357618Y-113261429D01*
X139071904Y-113261429D01*
X138881428Y-113356667D01*
X138786190Y-113451905D01*
X138690952Y-113642381D01*
X138690952Y-114213810D01*
X138786190Y-114404286D01*
X138881428Y-114499524D01*
X139071904Y-114594762D01*
X139357618Y-114594762D01*
X137833809Y-114404286D02*
X137738570Y-114499524D01*
X137833809Y-114594762D01*
X137929047Y-114499524D01*
X137833809Y-114404286D01*
X137833809Y-114594762D01*
X136881428Y-113261429D02*
X136881428Y-114594762D01*
X136881428Y-113451905D02*
X136786189Y-113356667D01*
X136595713Y-113261429D01*
X136309999Y-113261429D01*
X136119523Y-113356667D01*
X136024285Y-113547143D01*
X136024285Y-114594762D01*
X135262380Y-113261429D02*
X134214761Y-113261429D01*
X135262380Y-114594762D01*
X134214761Y-114594762D01*
X132024284Y-112499524D02*
X133738570Y-115070952D01*
X170500478Y-120794762D02*
X170500478Y-118794762D01*
X169643335Y-120794762D02*
X169643335Y-119747143D01*
X169738573Y-119556667D01*
X169929049Y-119461429D01*
X170214763Y-119461429D01*
X170405239Y-119556667D01*
X170500478Y-119651905D01*
X168976668Y-119461429D02*
X168214763Y-119461429D01*
X168690954Y-118794762D02*
X168690954Y-120509048D01*
X168595715Y-120699524D01*
X168405239Y-120794762D01*
X168214763Y-120794762D01*
X167833811Y-119461429D02*
X167071906Y-119461429D01*
X167548097Y-118794762D02*
X167548097Y-120509048D01*
X167452858Y-120699524D01*
X167262382Y-120794762D01*
X167071906Y-120794762D01*
X166405240Y-119461429D02*
X166405240Y-121461429D01*
X166405240Y-119556667D02*
X166214763Y-119461429D01*
X165833811Y-119461429D01*
X165643335Y-119556667D01*
X165548097Y-119651905D01*
X165452859Y-119842381D01*
X165452859Y-120413810D01*
X165548097Y-120604286D01*
X165643335Y-120699524D01*
X165833811Y-120794762D01*
X166214763Y-120794762D01*
X166405240Y-120699524D01*
X164595716Y-120604286D02*
X164500477Y-120699524D01*
X164595716Y-120794762D01*
X164690954Y-120699524D01*
X164595716Y-120604286D01*
X164595716Y-120794762D01*
X164595716Y-119556667D02*
X164500477Y-119651905D01*
X164595716Y-119747143D01*
X164690954Y-119651905D01*
X164595716Y-119556667D01*
X164595716Y-119747143D01*
X162214763Y-118699524D02*
X163929049Y-121270952D01*
X160119525Y-118699524D02*
X161833811Y-121270952D01*
X158595716Y-119461429D02*
X158595716Y-121080476D01*
X158690954Y-121270952D01*
X158786192Y-121366190D01*
X158976668Y-121461429D01*
X159262382Y-121461429D01*
X159452859Y-121366190D01*
X158595716Y-120699524D02*
X158786192Y-120794762D01*
X159167144Y-120794762D01*
X159357620Y-120699524D01*
X159452859Y-120604286D01*
X159548097Y-120413810D01*
X159548097Y-119842381D01*
X159452859Y-119651905D01*
X159357620Y-119556667D01*
X159167144Y-119461429D01*
X158786192Y-119461429D01*
X158595716Y-119556667D01*
X157643335Y-120794762D02*
X157643335Y-119461429D01*
X157643335Y-118794762D02*
X157738573Y-118890000D01*
X157643335Y-118985238D01*
X157548096Y-118890000D01*
X157643335Y-118794762D01*
X157643335Y-118985238D01*
X156976668Y-119461429D02*
X156214763Y-119461429D01*
X156690954Y-118794762D02*
X156690954Y-120509048D01*
X156595715Y-120699524D01*
X156405239Y-120794762D01*
X156214763Y-120794762D01*
X155548097Y-120794762D02*
X155548097Y-118794762D01*
X154690954Y-120794762D02*
X154690954Y-119747143D01*
X154786192Y-119556667D01*
X154976668Y-119461429D01*
X155262382Y-119461429D01*
X155452858Y-119556667D01*
X155548097Y-119651905D01*
X152881430Y-119461429D02*
X152881430Y-120794762D01*
X153738573Y-119461429D02*
X153738573Y-120509048D01*
X153643334Y-120699524D01*
X153452858Y-120794762D01*
X153167144Y-120794762D01*
X152976668Y-120699524D01*
X152881430Y-120604286D01*
X151929049Y-120794762D02*
X151929049Y-118794762D01*
X151929049Y-119556667D02*
X151738572Y-119461429D01*
X151357620Y-119461429D01*
X151167144Y-119556667D01*
X151071906Y-119651905D01*
X150976668Y-119842381D01*
X150976668Y-120413810D01*
X151071906Y-120604286D01*
X151167144Y-120699524D01*
X151357620Y-120794762D01*
X151738572Y-120794762D01*
X151929049Y-120699524D01*
X150119525Y-120604286D02*
X150024286Y-120699524D01*
X150119525Y-120794762D01*
X150214763Y-120699524D01*
X150119525Y-120604286D01*
X150119525Y-120794762D01*
X148310001Y-120699524D02*
X148500477Y-120794762D01*
X148881429Y-120794762D01*
X149071905Y-120699524D01*
X149167144Y-120604286D01*
X149262382Y-120413810D01*
X149262382Y-119842381D01*
X149167144Y-119651905D01*
X149071905Y-119556667D01*
X148881429Y-119461429D01*
X148500477Y-119461429D01*
X148310001Y-119556667D01*
X147167143Y-120794762D02*
X147357619Y-120699524D01*
X147452858Y-120604286D01*
X147548096Y-120413810D01*
X147548096Y-119842381D01*
X147452858Y-119651905D01*
X147357619Y-119556667D01*
X147167143Y-119461429D01*
X146881429Y-119461429D01*
X146690953Y-119556667D01*
X146595715Y-119651905D01*
X146500477Y-119842381D01*
X146500477Y-120413810D01*
X146595715Y-120604286D01*
X146690953Y-120699524D01*
X146881429Y-120794762D01*
X147167143Y-120794762D01*
X145643334Y-120794762D02*
X145643334Y-119461429D01*
X145643334Y-119651905D02*
X145548095Y-119556667D01*
X145357619Y-119461429D01*
X145071905Y-119461429D01*
X144881429Y-119556667D01*
X144786191Y-119747143D01*
X144786191Y-120794762D01*
X144786191Y-119747143D02*
X144690953Y-119556667D01*
X144500476Y-119461429D01*
X144214762Y-119461429D01*
X144024286Y-119556667D01*
X143929048Y-119747143D01*
X143929048Y-120794762D01*
X141548095Y-118699524D02*
X143262381Y-121270952D01*
X140881429Y-120794762D02*
X140881429Y-119461429D01*
X140881429Y-119651905D02*
X140786190Y-119556667D01*
X140595714Y-119461429D01*
X140310000Y-119461429D01*
X140119524Y-119556667D01*
X140024286Y-119747143D01*
X140024286Y-120794762D01*
X140024286Y-119747143D02*
X139929048Y-119556667D01*
X139738571Y-119461429D01*
X139452857Y-119461429D01*
X139262381Y-119556667D01*
X139167143Y-119747143D01*
X139167143Y-120794762D01*
X138405238Y-119461429D02*
X137929047Y-120794762D01*
X137452857Y-119461429D02*
X137929047Y-120794762D01*
X138119523Y-121270952D01*
X138214762Y-121366190D01*
X138405238Y-121461429D01*
X135929047Y-120699524D02*
X136119523Y-120794762D01*
X136500475Y-120794762D01*
X136690952Y-120699524D01*
X136786190Y-120509048D01*
X136786190Y-119747143D01*
X136690952Y-119556667D01*
X136500475Y-119461429D01*
X136119523Y-119461429D01*
X135929047Y-119556667D01*
X135833809Y-119747143D01*
X135833809Y-119937619D01*
X136786190Y-120128095D01*
X134690951Y-120794762D02*
X134881427Y-120699524D01*
X134976666Y-120509048D01*
X134976666Y-118794762D01*
X133929047Y-120794762D02*
X133929047Y-119461429D01*
X133929047Y-118794762D02*
X134024285Y-118890000D01*
X133929047Y-118985238D01*
X133833808Y-118890000D01*
X133929047Y-118794762D01*
X133929047Y-118985238D01*
X132976666Y-119461429D02*
X132976666Y-120794762D01*
X132976666Y-119651905D02*
X132881427Y-119556667D01*
X132690951Y-119461429D01*
X132405237Y-119461429D01*
X132214761Y-119556667D01*
X132119523Y-119747143D01*
X132119523Y-120794762D01*
M02*
