G04 #@! TF.FileFunction,Legend,Bot*
%FSLAX46Y46*%
G04 Gerber Fmt 4.6, Leading zero omitted, Abs format (unit mm)*
G04 Created by KiCad (PCBNEW (2015-01-02 BZR 5348)-product) date 1/13/2015 10:28:24 PM*
%MOMM*%
G01*
G04 APERTURE LIST*
%ADD10C,0.100000*%
%ADD11C,0.177800*%
G04 APERTURE END LIST*
D10*
D11*
X151994809Y-108367286D02*
X151994809Y-109383286D01*
X151994809Y-108415667D02*
X151898047Y-108367286D01*
X151704524Y-108367286D01*
X151607762Y-108415667D01*
X151559381Y-108464048D01*
X151511000Y-108560810D01*
X151511000Y-108851095D01*
X151559381Y-108947857D01*
X151607762Y-108996238D01*
X151704524Y-109044619D01*
X151898047Y-109044619D01*
X151994809Y-108996238D01*
X151075571Y-108367286D02*
X151075571Y-109383286D01*
X151075571Y-108415667D02*
X150978809Y-108367286D01*
X150785286Y-108367286D01*
X150688524Y-108415667D01*
X150640143Y-108464048D01*
X150591762Y-108560810D01*
X150591762Y-108851095D01*
X150640143Y-108947857D01*
X150688524Y-108996238D01*
X150785286Y-109044619D01*
X150978809Y-109044619D01*
X151075571Y-108996238D01*
X149527381Y-108560810D02*
X149575762Y-108512429D01*
X149672524Y-108464048D01*
X149769286Y-108464048D01*
X149866048Y-108512429D01*
X149914428Y-108560810D01*
X149962809Y-108657571D01*
X149962809Y-108754333D01*
X149914428Y-108851095D01*
X149866048Y-108899476D01*
X149769286Y-108947857D01*
X149672524Y-108947857D01*
X149575762Y-108899476D01*
X149527381Y-108851095D01*
X149527381Y-108464048D02*
X149527381Y-108851095D01*
X149479000Y-108899476D01*
X149430619Y-108899476D01*
X149333857Y-108851095D01*
X149285476Y-108754333D01*
X149285476Y-108512429D01*
X149382238Y-108367286D01*
X149527381Y-108270524D01*
X149720905Y-108222143D01*
X149914428Y-108270524D01*
X150059571Y-108367286D01*
X150156333Y-108512429D01*
X150204714Y-108705952D01*
X150156333Y-108899476D01*
X150059571Y-109044619D01*
X149914428Y-109141381D01*
X149720905Y-109189762D01*
X149527381Y-109141381D01*
X149382238Y-109044619D01*
X148850047Y-109044619D02*
X148850047Y-108367286D01*
X148850047Y-108464048D02*
X148801666Y-108415667D01*
X148704904Y-108367286D01*
X148559762Y-108367286D01*
X148463000Y-108415667D01*
X148414619Y-108512429D01*
X148414619Y-109044619D01*
X148414619Y-108512429D02*
X148366238Y-108415667D01*
X148269476Y-108367286D01*
X148124333Y-108367286D01*
X148027571Y-108415667D01*
X147979190Y-108512429D01*
X147979190Y-109044619D01*
X147592142Y-108367286D02*
X147350237Y-109044619D01*
X147108333Y-108367286D02*
X147350237Y-109044619D01*
X147446999Y-109286524D01*
X147495380Y-109334905D01*
X147592142Y-109383286D01*
X146334238Y-108996238D02*
X146431000Y-109044619D01*
X146624523Y-109044619D01*
X146721285Y-108996238D01*
X146769666Y-108899476D01*
X146769666Y-108512429D01*
X146721285Y-108415667D01*
X146624523Y-108367286D01*
X146431000Y-108367286D01*
X146334238Y-108415667D01*
X146285857Y-108512429D01*
X146285857Y-108609190D01*
X146769666Y-108705952D01*
X145705285Y-109044619D02*
X145802047Y-108996238D01*
X145850428Y-108899476D01*
X145850428Y-108028619D01*
X145318238Y-108947857D02*
X145269857Y-108996238D01*
X145318238Y-109044619D01*
X145366619Y-108996238D01*
X145318238Y-108947857D01*
X145318238Y-109044619D01*
X144834428Y-109044619D02*
X144834428Y-108367286D01*
X144834428Y-108028619D02*
X144882809Y-108077000D01*
X144834428Y-108125381D01*
X144786047Y-108077000D01*
X144834428Y-108028619D01*
X144834428Y-108125381D01*
X144350618Y-108367286D02*
X144350618Y-109044619D01*
X144350618Y-108464048D02*
X144302237Y-108415667D01*
X144205475Y-108367286D01*
X144060333Y-108367286D01*
X143963571Y-108415667D01*
X143915190Y-108512429D01*
X143915190Y-109044619D01*
M02*
