M48
;DRILL file {kicad (2015-01-02 BZR 5348)-product} date 1/21/2015 12:27:44 AM
;FORMAT={-:-/ absolute / inch / decimal}
FMAT,2
INCH,TZ
T1C0.025
T2C0.026
T3C0.040
%
G90
G05
M72
T1
X5.4Y-3.695
X5.4Y-3.805
X5.41Y-3.885
X5.465Y-3.755
X5.68Y-3.845
X5.735Y-3.955
T2
X5.45Y-3.575
X5.45Y-3.625
X5.45Y-3.975
X5.45Y-4.025
X5.5Y-3.575
X5.5Y-3.625
X5.5Y-3.975
X5.5Y-4.025
X5.55Y-3.575
X5.55Y-3.625
X5.55Y-3.975
X5.55Y-4.025
X5.6Y-3.575
X5.6Y-3.625
X5.6Y-3.975
X5.6Y-4.025
X5.65Y-3.575
X5.65Y-3.625
X5.65Y-3.975
X5.65Y-4.025
T3
X5.45Y-3.185
X5.55Y-3.185
X5.65Y-3.185
T0
M30
